<svg viewBox="0 0 256 256" xml:space="preserve" xmlns="http://www.w3.org/2000/svg"><path style="fill:#f15a24;stroke-width:1" d="M210.132 126.15c15.119-6.728 44.915-19.492 44.915-19.492s-27.946-11.48-42.602-17.81c6.372-5.194 36.903-20.018 36.903-20.018l-46.575 3.848 25.695-62.093s-40.456 30.72-56.164 34.653c.063-7.213.21-26.305.21-26.305s-14.319 15.686-21.426 20.964c-8.264-12.26-24.055-31.036-24.055-31.036s-14.11 17.263-21.89 29.164c-6.392-5.172-23.53-29.459-23.53-29.459s3.954 29.586 3.618 37.303c-16.402-3.933-46.702-17.6-46.702-17.6s13.121 24.896 17.978 37.66c-8.894-.064-38.669-1.683-49.308-2.335 8.6 6.519 44.514 32.467 44.514 32.467L.953 105.9s36.104 8.727 50.76 15.056c-3.574 2.902-12.89 10.366-20.375 16.338h192.189c-4.858-3.848-9.336-7.549-13.395-11.145z"/><linearGradient id="a" gradientUnits="userSpaceOnUse" x1="64.117" y1="60.706" x2="64.117" y2="67.834" gradientTransform="translate(-6.574 -1.064) scale(2.10272)"><stop offset="0" style="stop-color:#78c0e8"/><stop offset="1" style="stop-color:#31a0d6"/></linearGradient><path style="fill:url(#a);stroke-width:1" d="M94.945 94.252h66.593v43.064H94.945Z"/><path style="fill:#ffea5c;stroke-width:1" d="M246.026 114.291a9.34 9.34 0 0 0 .63-3.343c0-5.257-4.268-9.526-9.525-9.526-4.352 0-7.99 2.944-9.125 6.94a9.483 9.483 0 0 0-6.288 8.915c0 5.257 4.269 9.525 9.526 9.525.61 0 1.198-.063 1.787-.189 1.304.673 2.755 1.093 4.332 1.093 5.256 0 9.525-4.268 9.525-9.525 0-1.367-.336-2.691-.862-3.89z"/><path style="fill:#5c5cff;stroke-width:1" d="M210.658 12.204a8.825 8.825 0 0 0-5.13 11.397c1.03 2.712 3.238 4.584 5.824 5.34a8.838 8.838 0 0 0 11.27 4.9 8.825 8.825 0 0 0 5.131-11.397c-1.03-2.712-3.238-4.584-5.824-5.34-1.83-4.395-6.792-6.603-11.271-4.9z"/><path style="fill:#45f9ff;stroke-width:1" d="M34.26 102.348a7.254 7.254 0 1 0-14.382-1.367 7.25 7.25 0 0 0 .673 3.028 8.346 8.346 0 0 0-7.906 7.864 8.369 8.369 0 0 0 7.864 8.831c2.838.169 5.425-1.114 7.065-3.196a8.343 8.343 0 0 0 3.806 1.178 8.369 8.369 0 0 0 8.831-7.864 8.332 8.332 0 0 0-5.95-8.474z"/><ellipse style="fill:#4bff17;stroke-width:1" cx="24.693" cy="34.682" rx="10.514" ry="9.462"/><ellipse style="fill:#ff17c8;stroke-width:1" cx="231.622" cy="51.146" rx="10.514" ry="9.462"/><path style="fill:#d2edf7;stroke-width:1" d="M203.151 65.487c-1.808-1.01-2.334-3.406-1.598-5.341a30.02 30.02 0 0 0 1.977-9.189c.967-18.462-15.203-33.601-36.02-33.391a40.33 40.33 0 0 0-19.955 5.446c-4.815-9.42-15.14-15.897-27.104-15.77-12.406.147-22.877 7.359-27.209 17.41a31.553 31.553 0 0 0-9.883-1.535c-16.864.147-29.06 10.051-27.84 28.534.21 3.133 2.692 9.042 2.692 9.042s-5.068 1.24-9.231 8.263c-3.386 5.699-3.743 14.888-.8 20.944 4.606 9.483 17.39 13.94 26.894 9.378 1.346-.652 2.881-1.472 4.269-.904.694.294 3.596 10.934 29.711 16.359 15.056 3.133 32.719-7.907 33.707-7.928 1.136-.02 2.145.673 3.091 1.304 0 0 6.981 8.011 22.604 4.269 14.74-3.512 16.17-13.52 17.432-13.92 1.01-.316 18.294 5.11 25.59-11.44 3.196-7.4-2.25-18.146-8.327-21.531z"/><path style="fill:#92cbeb;stroke-width:1" d="M55.35 49.632c.127 2.629.737 9.673 3.954 11.65 2.166 1.324 4.1 1.955 5.804 2.165 3.3.4 5.298-3.68 3.07-6.14-2.44-2.67-5.068-7.254-6.077-14.929-1.451-10.829 7.065-16.275 7.065-16.275s-14.635 5.93-13.815 23.53z"/><path style="fill:#78c0e8;stroke-width:1" d="M211.394 87.06c2.103-4.751 1.388-11.459-2.44-15.749 0 0 2.335 6.077-.609 12.112-2.986 6.12-9.315 11.838-15.918 10.261-4.12-.988-.084-7.759-5.887-17.726.294 9.4.105 30.7-27.483 32.467-5.046.315-17.137-4.038-17.852-11.355-1.598-15.939 13.542-13.731 15.707-13.395 5.194.778 10.872-1.471 11.734-5.572.778-3.722-1.03-5.193-2.734-6.665-4.878-4.164-12.553-3.386-17.978.063-8.243 5.257-12.049 19.177-18.588 25.926-7.633 7.864-19.997 9.757-30.532 6.729-18.041-5.194-23.676-28.198-23.676-28.198-2.355 6.014-.274 13.92 1.177 17.453-17.978 3.722-26.957-5.635-29.732-8.369.294 1.682.778 3.344 1.535 4.9 4.605 9.483 17.39 13.94 26.893 9.378 1.346-.652 2.881-1.472 4.269-.904.694.294 3.596 10.934 29.711 16.359 15.056 3.133 32.719-7.906 33.707-7.928 1.136-.02 2.145.673 3.091 1.304 0 0 6.981 8.012 22.604 4.269 14.74-3.512 16.17-13.52 17.432-13.92 1.01-.337 18.294 5.088 25.569-11.44z"/><path style="fill:#92cbeb;stroke-width:1" d="M134.434 10.333s2.797 3.995 3.365 6.076c2.208 8.138-1.956 13.542-3.154 15.75-.631 1.177-1.199 2.544-.757 3.785.483 1.345 1.955 2.06 3.343 2.27 3.743.61 7.633-1.45 9.715-4.604 2.04-3.154 5.761-15.813-12.512-23.277zm67.12 49.813a30.02 30.02 0 0 0 1.976-9.189c.378-7.107-1.809-13.689-5.804-19.135 1.998 3.638 2.503 8.159 1.661 12.28-1.156 5.615-4.752 10.514-8.915 14.446-5.068 4.773-1.472 6.981 1.45 6.981 7.045-.021 9.232-4.353 9.631-5.383z"/><path style="fill:#039be5;stroke-width:1" d="M141.668 137.295v-14.13c0-2.65-2.355-4.795-5.257-4.795-2.902 0-5.257 2.145-5.257 4.795v14.13zm-20.775 0v-21.532a3.15 3.15 0 0 0-3.154-3.154 3.15 3.15 0 0 0-3.154 3.154v21.532z"/><radialGradient id="b" cx="63.72" cy="-2088.9" r="56.957" gradientTransform="matrix(2.10272 0 0 -2.10272 -6.574 -4261.18)" gradientUnits="userSpaceOnUse"><stop offset=".5" style="stop-color:#fde030"/><stop offset=".919" style="stop-color:#f7c02b"/><stop offset="1" style="stop-color:#f4a223"/></radialGradient><path style="fill:url(#b);stroke-width:1" d="M127.411 248.74c32.382 0 62.661-10.935 84.95-30.49 22.773-20.207 35.473-48.069 36.861-80.955H5.601c3.112 76.497 64.637 111.444 121.81 111.444Z"/><path style="fill:#eb8f00;stroke-width:1" d="M21.897 194.195c.315.525.694 1.009 1.03 1.535-.21-.358-.442-.715-.652-1.052-.126-.168-.273-.315-.378-.483z"/><path style="fill:#eb8f00;stroke-width:1" d="M244.596 137.295c-2.67 30.132-15.14 55.743-36.461 74.647-22.29 19.555-52.568 30.489-84.95 30.489-37.786 0-77.465-15.308-100.93-47.753.21.358.42.715.65 1.052a94.491 94.491 0 0 0 2.25 3.385c.569.82 1.115 1.64 1.704 2.44a110.165 110.165 0 0 0 3.848 4.92c.63.756 1.283 1.471 1.913 2.207.905 1.03 1.83 2.04 2.755 3.028a96.21 96.21 0 0 0 6.14 5.972c.694.63 1.409 1.22 2.103 1.83a159.007 159.007 0 0 0 3.616 2.964 85.32 85.32 0 0 0 2.187 1.661c1.24.926 2.524 1.809 3.806 2.692.589.4 1.178.82 1.766 1.22a110.663 110.663 0 0 0 5.447 3.322c.693.4 1.408.778 2.102 1.156 1.367.757 2.755 1.472 4.143 2.187.672.336 1.366.694 2.04 1.01a116.23 116.23 0 0 0 5.95 2.67c.526.21 1.051.4 1.556.61 1.62.651 3.26 1.261 4.92 1.85.694.252 1.41.484 2.103.736 1.83.61 3.68 1.198 5.53 1.724.337.105.673.21.988.295 2.166.61 4.332 1.135 6.519 1.64.652.147 1.283.273 1.934.42 1.746.379 3.491.694 5.236 1.01.568.105 1.115.21 1.661.294 2.23.357 4.458.652 6.687.904.484.063.967.084 1.43.147 1.83.19 3.659.337 5.488.442.63.042 1.262.084 1.871.105 2.25.105 4.521.19 6.771.19 32.382 0 62.661-10.935 84.95-30.49a111.116 111.116 0 0 0 4.269-3.995 90.36 90.36 0 0 0 1.388-1.43c.883-.904 1.787-1.83 2.649-2.755.547-.589 1.051-1.198 1.577-1.808.736-.841 1.472-1.682 2.187-2.565.547-.673 1.072-1.367 1.598-2.04.652-.82 1.283-1.64 1.913-2.502a132.41 132.41 0 0 0 1.556-2.23c.568-.82 1.136-1.64 1.683-2.48.504-.8 1.009-1.598 1.492-2.398.505-.82 1.01-1.64 1.493-2.48.484-.842.947-1.704 1.41-2.545.44-.82.882-1.64 1.303-2.481.463-.883.883-1.788 1.325-2.713.378-.82.757-1.64 1.135-2.481.42-.946.82-1.892 1.22-2.86.336-.82.652-1.64.967-2.46.378-.988.757-1.997 1.093-3.007.274-.799.547-1.619.82-2.439.337-1.051.673-2.103.989-3.175.231-.8.441-1.598.673-2.418.294-1.115.588-2.229.862-3.343.189-.778.357-1.557.525-2.356.253-1.177.505-2.355.736-3.553.148-.736.253-1.493.379-2.229.21-1.262.42-2.523.589-3.806.084-.673.168-1.346.23-2.04.17-1.366.337-2.733.463-4.12.042-.527.064-1.052.106-1.578.126-1.556.21-3.133.294-4.71h-4.647z"/><path style="fill:#eb8f00;stroke-width:1" d="M244.596 137.295c-2.67 30.132-15.14 55.743-36.461 74.647-22.29 19.555-52.568 30.489-84.95 30.489-37.786 0-77.465-15.308-100.93-47.753.21.358.42.715.65 1.052a94.491 94.491 0 0 0 2.25 3.385c.569.82 1.115 1.64 1.704 2.44a110.165 110.165 0 0 0 3.848 4.92c.63.756 1.283 1.471 1.913 2.207.905 1.03 1.83 2.04 2.755 3.028a96.21 96.21 0 0 0 6.14 5.972c.694.63 1.409 1.22 2.103 1.83a159.007 159.007 0 0 0 3.616 2.964 85.32 85.32 0 0 0 2.187 1.661c1.24.926 2.524 1.809 3.806 2.692.589.4 1.178.82 1.766 1.22a110.663 110.663 0 0 0 5.447 3.322c.693.4 1.408.778 2.102 1.156 1.367.757 2.755 1.472 4.143 2.187.672.336 1.366.694 2.04 1.01a116.23 116.23 0 0 0 5.95 2.67c.526.21 1.051.4 1.556.61 1.62.651 3.26 1.261 4.92 1.85.694.252 1.41.484 2.103.736 1.83.61 3.68 1.198 5.53 1.724.337.105.673.21.988.295 2.166.61 4.332 1.135 6.519 1.64.652.147 1.283.273 1.934.42 1.746.379 3.491.694 5.236 1.01.568.105 1.115.21 1.661.294 2.23.357 4.458.652 6.687.904.484.063.967.084 1.43.147 1.83.19 3.659.337 5.488.442.63.042 1.262.084 1.871.105 2.25.105 4.521.19 6.771.19 32.382 0 62.661-10.935 84.95-30.49a111.116 111.116 0 0 0 4.269-3.995 90.36 90.36 0 0 0 1.388-1.43c.883-.904 1.787-1.83 2.649-2.755.547-.589 1.051-1.198 1.577-1.808.736-.841 1.472-1.682 2.187-2.565.547-.673 1.072-1.367 1.598-2.04.652-.82 1.283-1.64 1.913-2.502a132.41 132.41 0 0 0 1.556-2.23c.568-.82 1.136-1.64 1.683-2.48.504-.8 1.009-1.598 1.492-2.398.505-.82 1.01-1.64 1.493-2.48.484-.842.947-1.704 1.41-2.545.44-.82.882-1.64 1.303-2.481.463-.883.883-1.788 1.325-2.713.378-.82.757-1.64 1.135-2.481.42-.946.82-1.892 1.22-2.86.336-.82.652-1.64.967-2.46.378-.988.757-1.997 1.093-3.007.274-.799.547-1.619.82-2.439.337-1.051.673-2.103.989-3.175.231-.8.441-1.598.673-2.418.294-1.115.588-2.229.862-3.343.189-.778.357-1.557.525-2.356.253-1.177.505-2.355.736-3.553.148-.736.253-1.493.379-2.229.21-1.262.42-2.523.589-3.806.084-.673.168-1.346.23-2.04.17-1.366.337-2.733.463-4.12.042-.527.064-1.052.106-1.578.126-1.556.21-3.133.294-4.71h-4.647z"/><path style="fill:#eb8f00;stroke-width:1" d="M248.928 142.005c.126-1.556.23-3.133.294-4.71h-.021a171.81 171.81 0 0 1-.273 4.71z"/><radialGradient id="c" cx="63.72" cy="-2088.9" r="56.957" gradientTransform="matrix(2.10272 0 0 -2.10272 -6.574 -4261.18)" gradientUnits="userSpaceOnUse"><stop offset=".5" style="stop-color:#fde030"/><stop offset=".919" style="stop-color:#f7c02b"/><stop offset="1" style="stop-color:#f4a223"/></radialGradient><path style="fill:url(#c);stroke-width:1" d="M248.928 142.005c.126-1.556.23-3.133.294-4.71h-.021a171.81 171.81 0 0 1-.273 4.71z"/><path style="fill:#422b0d;stroke-width:1" d="M157.29 219.595c0 11.776-13.015 18.694-29.059 18.694-16.043 0-29.06-6.918-29.06-18.694 0-11.775 13.017-24.58 29.06-24.58 16.044 0 29.06 12.805 29.06 24.58z"/><circle style="fill:#fff;stroke-width:1" cx="80.899" cy="156.913" r="32.613"/><ellipse style="fill:#422b0d;stroke-width:1" cx="80.899" cy="156.913" rx="14.025" ry="14.235"/><circle style="fill:#fff;stroke-width:1" cx="175.522" cy="156.913" r="32.613"/><ellipse style="fill:#422b0d;stroke-width:1" cx="175.564" cy="157.082" rx="14.025" ry="14.235"/></svg>