<svg viewBox="0 0 1745 2438" xml:space="preserve" style="fill-rule:evenodd;clip-rule:evenodd;stroke-linejoin:round;stroke-miterlimit:2" xmlns="http://www.w3.org/2000/svg"><path style="fill:#fff" d="M88.42 925.15c-2.899-.18-5.39.361-7.385.971-.15.046-.283.127-.431.176-17.192-.164-34.046 1.515-50.288 5.943-13.2 3.6-21.85 12.69-26.49 24.66-4.99 12.87-4.57 29.672-1.16 42.032 9.01 32.67 35.04 69.59 42.5 99.44 3.01 12.03 8.97 24.758 14.76 35.608.131.248.604.97.806 1.323 46.407 132.456 119.857 245.06 226.854 337.398 35.12 30.31 69.739 58.51 110.049 81.37 12.52 7.1 23.45 16.97 36.95 22.37 44.95 17.98 90.78 19.09 138.09 27.96 30.4 5.7 59.25 5.06 89.94 7.9 9.34.86 20.27 3.6 29.67 2.13 12.3-1.92 23.91-6.17 36.05-8.24 5.96-1.02 31.86-3.44 43.1-6.86 4.92-1.5 8.65-3.75 11.4-6.11 2.35-.08 4.691-.26 6.991-.6 7.02-1.07 41.54-14 57.38-23.42 7.58-4.5 12.11-9.5 13.88-12.6 2.71-4.74 4.53-12.52.51-21.83-3.58-8.27-16.2-22.839-18.82-26.019-11.79-14.31-40.11-66.24-46.26-82.24-14.74-38.33-53.47-63.462-82.79-89.432-27.57-24.42-58.28-40.95-88.7-60.17-14-8.84-31-13.849-44.61-23.459-34.63-24.44-72.19-45.17-110.08-64.11-16.29-8.15-33.33-18.73-48.08-29.79-1.32-.988-2.815-2.501-4.375-4.19-.047-3.274-.15-6.622.035-9.9.06-1.16.36-2.88.58-4.07.15-.21.3-.41.45-.62.04-.01.08-.009.12-.019 24.91-4.15 52.9 8.998 75.88 16.658 59.54 19.85 115.51 55.381 169.23 87.611 56.76 34.06 104.42 78.451 157.05 117.231 11.08 8.16 22.97 15.73 32.94 25.69 15.52 15.52 27.7 37.259 38.57 56.099.48 3.06 2.18 13.61 3.83 19.49 1.81 6.41 4.62 11.65 7.6 15 7.12 8.01 15.939 10.81 26.799 6.74 20.29-7.61 28.771-24.2 28.271-46.15-.38-16.66-6.94-37.35-14.31-56.21-5.99-15.32-12.52-29.15-14.17-37.06-5.99-28.77-43.86-83.64-60.24-107.78-52.2-76.93-120.99-138.25-194.9-192.72-72-53.04-166.99-70.14-254.61-73.38-48.19-1.79-95.45 4.21-143.41-4.13-36.84-6.41-77.25-20.44-117.75-30.28-21.87-5.316-43.766-9.357-65.229-10.782-2.205-.903-4.314-1.512-6.197-1.629z"/><path style="fill:#f9f9f9" d="M934.596.13c-14.658.101-28.695 1.456-41.58 4.218-6.01 1.288-12.61.815-19.24.533-9.91-.42-19.881-.702-29.151 1.014-39.05 7.23-79.44 9.821-118.66 15.857-146.74 22.57-285.619 105.039-380.049 216.639-21.92 25.91-55.27 52.35-69.05 84.31-12.26 28.42-33.96 56.07-49.79 83.5-44.77 77.61-81.04 168.85-81.04 259.62 0 8.419.228 16.817.296 25.228-.526 10.246-.887 20.642-.887 31.383 0 14.53 1.455 47.348 3.926 76.748.108 2.052.13 4.097.244 6.15.322 5.78 1.04 11.49 1.91 17.166 1.342 11.049 2.883 20.219 4.631 25.506.53 2.26 6.92 28.87 13.03 37.03 4.83 6.464 10.75 9.385 16.478 10.24 9.494 8.29 19.958 9.985 28.711 6.859 6.34-2.27 10.67-6.63 13.05-12.77 1.21-3.12 1.871-7.11 1.481-11.42-.32-3.58-1.581-7.74-2.111-9.49-5.68-18.96-7.589-44.73 2.111-62.2 6.4-11.519 22.95-18.3 41.34-23.83 33.23-10 73.93-12.7 95.79-9.58 24.59 3.52 41.32 4.08 54.16 13.5 7.7 5.65 13.44 14.73 19.47 29.07 5.12 12.16 4.899 41.68 7.719 61.99.233 1.68.576 3.158.863 4.745l-.182.706s-.04-.671-.04-.971c0 4.6 1.336 10.368 4.542 16.377 1.525 3.936 3.179 7.286 4.928 9.472 2.265 2.83 4.896 5.082 7.75 6.983 3.149 3.115 6.564 6.006 10.049 8.418 6.986 4.835 14.274 7.449 21.039 8.14 4.415 1.141 8.39.88 11.473.04 6.55-1.79 11.438-5.96 14.218-12.48.082-.192.116-.455.194-.653.975-2.31 1.738-5.093 2.008-8.426 1.08-13.53 6.119-81.791 10.699-95.941 2.467-7.618 5.723-15.152 9.847-22.153 4.493-3.772 8.677-7.095 11.473-9.156 14.6-10.75 32.48-11.32 50.65-10.66 23.88.87 48.41 4.368 70.22 1.638 25.45-3.18 52.16.75 77.78.75 22.13 0 48.12-3.18 69.37 2.41 32.996 8.685 51.988 27.412 62.94 51.376 2.765 18.326 6.276 41.712 6.97 45.634.7 3.965 1.29 8.013 1.832 12.094-.829 53.06-4.783 105.713-11.813 129.147-.84 2.78-3.83 5.68-7.17 8.97-3.627 3.556-7.967 7.074-12.629 10.244-11.05.537-21.645 1.266-30.71 2.186-16.5 1.67-28.83 4.5-33.37 6.76-7.21 3.61-10.171 8.99-11.431 14.16-1.17 4.77-.94 10.39 2.49 16.22 2.05 3.47 7.28 8.71 14.47 12.6 6.09 3.301 13.367 5.658 18.772 6.637.409.162 1.503.613 1.758.713 14.51 9.22 27.03 18.65 40.59 29.35 19.34 15.27 37.38 54.07 45.74 78.25-.03 2.72-.009 8.83.611 11.81 1.23 6.04 4.16 10.68 7.83 13.9 2.508 2.194 5.029 3.456 7.465 4.217 4.256 2.904 8.742 3.303 12.135 3.123 4.33-.23 8.809-1.68 12.879-5.61 1.42-1.39 4.951-4.56 5.941-11.83 2.295-16.822 8.158-36.825 16.69-55.189 1.072-1.3 2.42-2.925 3.03-3.611 8.91-10.02 22.269-16.15 34.349-21.18 14.04-5.85 32.01-4.67 49.99-2.48 7.685.935 15.305 2.13 22.805 3.344 3.745.865 7.466 2.016 11.216 2.765 16.58 3.313 43.902 6.448 68.532 13.58a505.171 505.171 0 0 0 11.927 6.92c17.99 26.77 11.861 50.54-7.029 77.14-14.945 21.03-36.896 42.238-55.717 60.212-15.928 13.784-30.487 25.539-39.144 32.228-8.36 6.46-19.73 10.17-29.93 14.91-9.94 4.62-19.05 9.96-26 16.91-2.43 2.43-6.21 7.46-6.33 16-.07 5.28 2.1 17.31 5.07 29.02 3.3 13.01 7.541 25.59 8.971 28.23 3.86 7.15 9.27 9.092 11.57 9.862 13.91 4.64 39.17 2.45 68.67-5.73 59.17-16.42 138.8-53.871 164.28-69.971 21.81-13.77 48.62-20.13 70.31-33.78 23.21-14.62 43.69-32.14 66.57-46.59 80.04-50.55 175.42-185.36 221.21-270.41 26.65-49.48 59.58-201.36 61.95-262.11 4.25-109.1-28.32-229.27-80.65-322.92-10.69-19.13-18.55-41.71-30.49-59.61-130.18-195.27-253.991-260.32-471.121-337.86-19.598-6.997-44.74-13.648-67.399-17.4-34.838-12.03-73.321-18.98-108.3-18.74zm-81.23 91.34c9.11 1.17 23.17 3.401 32.44 6.821 1.364.5 2.908 1.263 4.41 2.008.547 12.712 1.409 25.617 1.409 31.281 0 47.453.232 94.927.602 142.441l-13.942 41.22c-8.44 8.07-21.72 14.23-32.78 17.45-5.55 1.622-18.677 1.776-34.26 1.286-19.254-2.248-39.084-3.607-56.696-3.604-13.37-1.25-25.295-2.715-33.256-4.41-2.64-.967-5.285-1.765-7.926-2.227-22.366-9.34-42.98-19.891-65.63-28.394-2.94-1.1-6.012-2.002-9.112-2.862-.56-.47-1.1-.97-1.62-1.49a51.22 51.22 0 0 1-1.41-3.138c-6.68-16.4 1.89-32.04 12.99-46.33 14.74-18.98 35.45-35.391 49.92-47.381 18.12-15.01 32.331-37.72 53.561-51.07 24.84-15.61 51.879-28.42 78.229-42.08 3.72-1.93 12.44-5.66 23.07-9.52zm138.759 2.43c16.45 4.82 33.951 8.19 48.941 14.75 65.957 28.85 140.384 93.792 160.178 166.145-.262.598-.511 1.202-.78 1.797a566.1 566.1 0 0 0-3.54 8.002c-.587.564-1.146 1.143-1.768 1.687-7.13 6.22-16.17 10.96-21.84 13.06-18.24 6.78-87.23 18.99-134.42 24.48-18.15 2.12-32.68 3.58-38.53 2.5-21.224-3.93-37.706-19.889-46.538-39.27-1.538-16.252.098-33.413.828-49.62.68-15.28-.54-30.6 0-45.92.14-3.91.15-7.84 0-11.75-.06-1.62-.52-3.23-.39-4.85.09-1.25.19-2.51.39-3.75.584-3.625 2.329-23.961 3.487-47.495l15.423-24.225c4.7-2.66 11.419-4.45 18.559-5.54zm-361.424 39.983a45.52 45.52 0 0 1 4.945.058c3.25.24 6.38.71 9.13 1.68 1.32.47 2.769.67 3.349 1.83.68 1.37.22 2.43-.49 3.37-1.48 1.94-3.358 3.72-5.328 5.49-7.37 6.62-15.692 12.92-21.112 19.7-12.1 15.13-25.03 34.01-40.1 47.2-5.78 5.05-8.629 10.51-10.349 16.21-.68 2.25-1.59 6.58-1.79 7.55-2.76 4.55-8.12 7.74-13.87 10.59-2.963 1.471-6.084 2.771-9.252 3.923-5.836-1.882-11.525-4.308-17.209-6.632-10.23-4.18-20.45-8.16-30.92-10.58-6.2-5.95-10.609-11.592-12.789-21.032-.006-.027-.027-.095-.033-.123 1.326-2.299 3.475-3.73 6.162-5.877 24.75-19.8 54.56-36.229 83.07-54.209 1.26-.44 14.341-5.02 18.631-7.49 2.96-1.69 5.229-3.66 6.969-5.66 3.999-1.225 18.94-5.536 30.986-5.998zm572.555 2.969c10.65 1.75 21.02 5.12 30.34 9.65 24.25 11.77 48.41 22.809 71.96 35.889 3.113 1.728 5.934 3.81 8.7 5.957 3.992 5.418 8.466 11.798 12.289 18.543 2.88 5.08 5.43 10.37 6.5 15.53.6 2.85.79 5.74-1.87 7.71-6.42 4.72-12.738 9.68-19.368 13.73-1.14.69-2.292 1.37-3.452 2-2.67.42-5.23.7-7.39.97-4.27.53-8.399 1.85-12.399 3.6-3.13-.2-13.04.2-22.37 1.22-.82-.97-1.61-2.02-2.37-3.16-17.1-25.65-40.26-51.36-61.1-78.3a530.1 530.1 0 0 1-9.55-12.763c-.156-.499-.32-.951-.47-1.457-.46-1.51-.89-3.18-1.27-4.94l-.04-6.83c2.86-3.27 7.37-5.49 11.86-7.35zm222.59 152.525c7.498 3.898 16.096 10.833 24.869 18.594a285.22 285.22 0 0 1 22.32 22.107c5.492 9.52 10.727 19.465 16.01 29.832 41.49 81.45 78.751 143.322 103.691 236.272 9.77 36.39 13.159 70.54-14.941 96.09-3.246 2.95-8.04 5.432-13.338 7.568-3.524-.474-6.92-.838-9.96-.838-24.55 0-68.712 3.94-106.372 0-19.9-2.08-38.08-5.27-47.27-15.55-8.55-9.56-13.789-21.67-17.789-34.67-.35-6.04-.66-11.98-1.22-17.41-6.1-58.99-8.47-146.22-28.75-199.27-9.032-23.607-19.973-44.025-31.213-66.329 1.554-6.636 4.307-13.116 6.514-18.623 10.04-25.09 41.639-49.148 67.699-54.638 4.754-1 19.255-2.268 29.75-3.135zM430.748 309.35c5.111-.092 10.214.165 15.217.72 21.41 2.38 30.291 18.15 39.451 32.9 3.669 5.911 7.331 11.79 11.2 17.393-.45 3.526-1.05 7.147-1.77 10.889-3.1 16.16-8.43 34.039-13.86 54.299-1.71 6.36-5.45 13.47-8.16 20.5-2.83 7.33-4.78 14.63-5.04 21.36-.87 22.06-10.08 44.14-14.61 66.12-11.16 54.05-10.12 102.87-43.94 147.09-11.15 14.58-31.74 22.26-54.13 26.13-36.91 6.39-79.56 1.57-103.09-11.77-6.5-3.68-12.53-12.92-14.83-19.99-.14-.41-.29-.83-.38-1.25-2.04-9.99-5.49-19.06-8.98-28.05-.61-1.59-1.24-3.16-1.85-4.74.28-9.46 1.349-19.34 2.899-29.34 6.63-42.71 22.97-87.54 34.59-115.53 20.8-50.12 76.371-120.5 115.281-169.1 5.43-2.11 11.91-5.77 19.01-10.46.897-.592 2.03-1.335 2.96-1.962 9.527-3.434 19.792-5.026 30.032-5.21zm776.652 49.765c5.087 1.07 9.783 2.493 13.436 4.266 20.58 10 39.82 27.09 49.42 48.02 2.06 4.499 4.82 8.444 7.82 12.21.591 2.195 1.106 4.41 1.42 6.68 3.89 27.99 16.79 73.16 26.71 106.2 5.92 38.62 9.93 74.32 11.21 93.43.199 3.02.838 16.618 1.424 28.54-1.22 3.025-2.564 5.985-4.111 8.816-5.244 2.792-10.18 6.135-15.014 9.725-8.62 6.39-16.48 14.46-28.53 16.18-55.75 7.96-118.589 12.95-175.199 10.69-38.82-1.56-81.59-4.88-117.57-19.87-4.025-1.678-7.894-3.282-11.674-4.979-3.92-4.544-7.985-9.905-11.197-15.232a34.834 34.834 0 0 1-1.492-2.82c-1.721-26.574-2.551-53.19-.168-79.77 3.765-42.058 5.954-85.154 6.547-128.308.13-.684.298-1.346.404-2.041.59-3.86.3-8.1 1.5-11.4 2.64-7.27 9.67-16.151 17.47-23.991 7.43-7.47 15.54-14.25 22.31-16.28 22.47-6.74 48.63-3.139 73.04-6.429 12.991-1.748 93.386-24.025 132.244-33.637zm-581.125 20.996c3.06.53 6.12 1.17 9.09 1.81 10.5 2.243 20.255 4.308 27.551 4.393 5.363 1.9 10.748 3.7 16.209 5.137 14.81 3.89 30.27 2.15 44.24 5.71 5.19 1.32 38.092 7.83 52.612 8.45 4.87.211 8.975-.523 12.322-1.664 6.024.405 11.945.836 17.976 1.305 19.91 1.55 39.45 3.519 53.5 12.299 2.457 1.535 9.893 6.828 18.121 12.943 4.775 10.125 8.707 20.392 9.89 27.188 7.43 42.76 11.56 130.798 3.81 172.968-1.81 9.87-4.11 23.98-8.77 36.81-.065.18-.14.352-.205.53-2.683 2.697-5.51 5.111-9.555 6.99-25.76 11.96-51.54 18.98-80.06 20.26-64.97 2.92-132.991-3.458-197.711-10.648-11.128-1.239-24.443-3.04-36.328-6.63-7.384-5.659-13.904-12.326-19.102-20.306-1.11-15.02-.803-29.908-.449-36.916 4.01-78.02 20.319-164.218 64.629-227.738 3.74-5.35 9.99-8.43 16.64-10.97a99.28 99.28 0 0 1 5.59-1.92zm253.123 346.842c-.014.196-.04.414-.054.608-.566.097-1.068.124-1.658.25-.15.03-.31.06-.46.1l-.01-.005c.732-.319 1.457-.635 2.182-.953zm-381.03 1.41.023.014a19.847 19.847 0 0 0-.907 1.877l-.04-.043c.28-.646.585-1.265.923-1.848zm707.03 41.795c5.32.01 10.614.086 15.848.252 8.056.254 15.928.731 23.527 1.479 13.178 7.17 26.798 16.827 36.752 25.752 5.05 4.53 9.4 8.17 10.56 11.22 25.26 66.32 1.98 137.71-17.2 204.48-3.54 12.32-13.8 26.3-25.93 38.18-11.91 11.67-25.729 21.53-38.139 24.29-2.695.598-9.527 1.398-17.156 2.404-47.65-12.99-96.027-23.268-145.183-25.555-2.887-.131-16.542-1.806-31.793-3.412-12.817-6.81-24.437-14.995-34.543-25.02-3.919-9.912-6.752-21.3-8.795-33.408-8.19-48.55-3.6-107.938 3.4-135.308 4.03-15.76 14.7-31.691 23.56-45.131 12.657-19.202 29.49-28.898 48.424-36.352 17.466.721 35.263-.629 52.596-.629 28.298 0 66.832-3.306 104.072-3.242zm222.668 3.223c46.8 1.84 92.785 4.174 138.84 9.865 3.009 1.986 7.28 4.593 10.33 5.506 14.6 4.38 18.68 19.54 21.5 35.18.68 3.763 1.187 7.606 1.63 11.466-1.078 7.898-2.58 15.096-4.21 20.303-2.73 8.75-3.44 17.71-3.64 26.96-.2 8.96.439 18.33-3.051 28-14 38.76-27.34 77.75-43.12 115.22-1.05 2.49-3.44 4.66-5.47 7-2.91 3.34-5.72 6.661-7.87 9.871-29.39 44.087-45.465 67.769-80.57 105.002-5.984 1.712-12.041 3.346-18.18 4.486-8.79 1.64-17.72 2.34-26.38-.85-19.16-7.06-38.4-14.15-54.53-24.07-14.607-8.982-26.303-20.585-31.622-37.625 1.015-5.662 2.117-10.967 3.084-15.074 2.509-10.67 5.415-20.92 8.232-31.043 20.79-58.922 33.343-121.084 42.666-182.947 1.902-12.643 2.963-25.34 3.938-38.01.959-3.205 1.87-6.405 2.652-9.53 5.2-20.78 21.751-40.65 45.771-39.71zm-131.72 431.031c5.61-.019 10.902.867 14.97 3.03 3.818 2.027 9.808 5.3 16.082 9.302 3.819 4.096 7.424 7.728 8.487 10.916 2.37 7.1.7 13.26-.19 18.9-.732 4.698-1.244 9.228-1.271 13.643-20.04 12.695-80.005 51.607-124.418 71.819-8.82 4.02-16.92 7.249-23.82 9.199-.54.15-1.13.3-1.73.43-3.39-1.62-6.29-3.82-8.38-6.57 2.62-3.53 4.83-7.26 6.83-11.07 2.98-5.69 4.81-11.86 9.27-16.32 15.22-15.21 31.22-31.15 44-48.71 5.325-7.325 10.36-18.624 15.597-30.344 5.251-4.34 10.596-9.514 13.643-13.647 4.1-5.57 12.39-8.228 20.68-9.648 3.401-.582 6.883-.919 10.25-.93z"/><path style="baseline-shift:baseline;clip-rule:nonzero;display:inline;overflow:visible;vector-effect:none;fill:#fff;fill-rule:nonzero;stroke-linejoin:miter;enable-background:accumulate;stop-color:#000;stop-opacity:1" d="M220.22 1746.232c-39.28.415-77.65 21.185-99.122 54.198-20.4 30.287-33.206 67.03-31.19 103.817 1.852 16.169 10.143 30.461 14.3 46.026 6.233 16.143 11.153 33.852 25.156 45.28 39.604 38.395 100.896 52.324 153.222 34.857 12.643-4.165 27.098-4.295 37.92-12.608 10.635-7.782 23.994-11.364 32.433-22.107 13.873-15.507 19.297-36.36 19.971-56.709-2.009-18.47-24.223-20.921-38.996-20.902-22.28.647-35.385 21.437-48.17 36.86-9.17 12.045-25.435 13.324-39.03 16.85-16.944 4.355-29.93-9.372-43.089-17.466-19.857-13.23-35.356-35.532-35.395-59.92 4.095-22.064 6.686-47.678 25.31-62.768 14.04-10.19 32.172-11.773 48.85-13.486 17.649 4.244 33.912 13.255 48.17 24.354 6.668 12.458 16.697 22.342 28.818 29.403 15.97 9.34 40.519 8.75 52.462-6.765 11.436-18.42-.354-40.556-13.097-54.925-13.24-15.326-28.193-29.766-46.329-39.074-21.867-16.213-49.223-22.695-76.004-23.495a95.314 95.314 0 0 0-16.19-1.42z"/><path style="fill:#fff" d="M471.994 1742.678c-14.937-1.004-26.264 11.853-28.305 25.726-1.283 14.185-5.505 27.56-9.588 41.346-9.581 38.254-12.919 78.378-29.572 114.595-9.505 25.754-22.242 52.973-16.968 81.06 2.944 16.937 20.454 27.696 36.981 25.305 15.045-1.74 31.828-4.717 41.327-17.872 6.728-11.552 20.58-14.352 31.66-20.389 12.23-7.868 25.242 1.39 38.147 2.495 14.45 2.407 22.087 18.032 34.486 25.003 14.079 11.042 33.187 9.735 50.017 8.743 14.876-1.02 25.064-15.807 22.69-30.168-2.542-32.935-15.784-63.771-22.848-95.818-11.104-44.602-21.325-89.615-37.1-132.84-9.977-18.92-31.954-29.152-52.914-26.667-12.586 1.104-25.301 5.228-37.804 1.08-6.69-.96-13.443-1.665-20.209-1.6zm47.438 119.88c16.662 1.61 21.165 20.57 25.017 33.962 3.672 11.547-1.197 24.32-8.64 33.251-6.094 5.028-20.156-3.618-29.379.706-13.943 7.533-25.742-5.224-24.017-19.363.474-17.279 6.4-37.04 21.78-46.625 4.836-1.756 10.151-1.852 15.239-1.93zm199.218-123.66c-4.392.123-9.375.53-14.33 1.23-5.979.844-11.743 2.144-16.566 3.565-7.382.103-14.175 4.304-17.535 10.914-3.802 5.4-4.536 11.01-3.4 16.38-1.231 18.979 3.8 39.965 5.3 58.011 3.37 40.37-4.209 81.15.041 121.92.98 9.34-1.81 20.52-2.97 31.13-1.2 10.89-1.1 21.352 1.58 30.302 2.44 8.12 9.08 15.148 20.05 18.138 9.9 2.71 25.48 1.512 31.38.612 7.07-1.09 13.64-5.141 17.92-13.301 1.83-3.48 3.33-8.29 4.18-13.66 1.04-6.61.99-14.57 1.54-17.52 1.76-9.49 1.88-22.43 3.94-34.32.91-5.26 1.34-10.651 5.11-13.461 1.84-1.37 4.48-1.33 7.95-1.04 9.48.82 15.04 8.691 20.19 17.061 8.33 13.53 14.31 29.909 20.6 42.479 2.01 4.02 4.03 10.262 6.87 15.012a40.12 40.12 0 0 0 2.377 3.511c.077.223.24.66.303.848 2.66 7.98 8.21 14.1 15.87 18.16 10.17 5.37 25.41 6.25 34 5.53 1.8-.15 18.47-3.571 21.78-4.311 15.98-3.53 16.18-19.499 16.18-19.639 0-1.5-.1-6.87-4.73-13.33-1.82-2.538-6.286-7.91-11.346-13.934-7.843-12.405-15.545-25.41-21.774-38.277-1.257-2.584-8.555-15.87-16.664-30.199 1.71-.755 3.383-1.558 5.004-2.541 5.46-3.29 10.91-7.99 15.7-18.44 8.85-19.29 17.16-50.32 16.15-78.34-.79-21.91-7.37-41.938-21.05-55.628-12.4-12.39-29.66-18.82-48.85-21.49-22.12-3.08-47.02-.95-65.45-3-2.99-.33-10.22-.312-12.8-.292a28.65 28.65 0 0 0-5.76-1.6c-2.596-.44-6.397-.602-10.79-.48zm47.332 80.05c13.031-.408 26.91 4.384 38.797 8.921.46 1.35 1.602 4.79 1.862 7.09.65 5.8.138 12.2-1.192 17.76-.68 2.83-2.59 6.99-2.92 7.71-2.117 1.705-7.767 5.32-13.162 9.141-11.921-.46-27.356-.32-40.512.182-.321-11.234.322-33.129-.015-46.213 2.09-1.1 4.01-2.07 4.5-2.25 4.05-1.492 8.299-2.206 12.642-2.342zm258.192-81.138c-18.551-.107-35.65 1.08-45.404 1.73-8.53.57-19.98-1.322-28.71.528-1.06.22-2.11.48-3.13.77-4.22-.86-8.74-.36-12.89 1.71-8.63 4.32-12.78 14.06-10.38 23.04-.975 4.599-.253 9.178 1.72 13.107-.002.155-.03.345-.03.495 0 11.9 1.93 24.028 2.81 36.128.334 4.563.577 9.113.785 13.659-.632 11.344-1.183 22.192-.554 31.332 1.21 17.53 3.34 35.34 3.34 52.52 0 14.4-3.06 33.3 1.49 47.28 0 1.01-.052 6.4-.362 9.91-.68 7.84-1.649 16.45-1.539 23.76.17 11.49 3.5 20.76 8.46 26.34 6.24 7.02 15.98 11.87 27.28 14.16 11.35 2.31 24.41 2.17 32.9 2.17 12.47 0 49.05.789 74.1-.951 14.31-.99 25.63-3.49 30.56-6.08 3.08-1.62 7.27-4.9 11.35-9.45 6.58-7.31 13.59-18.32 15.75-23.65 6.69-16.46 10.32-40.39 7.61-62.32-2.01-16.26-7.52-31.339-16.69-42.469-4.26-5.18-12-10.21-21.14-14.24-1.731-.76-3.957-1.748-6.08-2.686-.715-2.734-.962-5.581-.47-8.605.229-1.415.568-2.68.978-3.844 2.708-2.28 5.454-4.32 7.882-6.265 8.23-6.6 13.7-13.591 15.72-20.471 5.09-17.28 2.36-42.759-3.03-59.809-4.65-14.73-18.23-25.981-38.2-31.771-15.57-4.52-35.575-5.92-54.126-6.027zm-3.26 68.395a28.01 28.01 0 0 1 3.637.074c8.18.75 14.628 2.17 19.318 5.96 4.37 3.54 6.73 9.04 8.55 16.32 2.15 8.59-2.919 14.55-9.509 17.99-9.25 4.81-21.46 6.019-30.64 2.199-.49-.54-3.84-4.34-5.38-6.83-2.38-3.84-4.4-7.958-5.98-11.488.14-2.21.26-5.05.14-7.07-.04-.65-.09-1.3-.16-1.93 1.2-5.42 4.39-10.211 8.66-13.711 3.796-.63 7.663-1.366 11.364-1.514zm13.897 103.861c16.361-.114 29.075 9.459 32.968 25.034.4 1.59-.31 3.469-.77 5.359-1 4.12-2.578 8.14-3.878 11.25-2.65 6.36-9.22 9.9-16.41 12.19-12.93 4.1-28.82 3.65-40.76-1.66-.57-11.26-1.602-22.58-1.602-34.12 0-2.43-.018-4.86-.058-7.29.71-.38 1.338-.71 1.738-.92 7.4-3.04 13.33-7.78 21.55-9.19a44.711 44.711 0 0 1 7.222-.653zm289.486-170.808c-3.524-.092-6.916.01-10.117.33-1.77.18-4.23.382-7 .672a19.95 19.95 0 0 0-15.48 2.43c-1.42.9-3.28.359-5.02.449-4.11.22-8.23.34-12.05.9-45.15 6.69-71.46 11.68-96.54 55.57-13.506 23.631-16.096 50.237-13.92 76.246-2.42 19.452 5.992 65.59 19.6 96.633 7.42 16.95 17.01 29.441 25.67 34.631 11.98 7.19 27.14 18.47 41 21.04 1.306.24 4.122.461 7.527.661 27.491 7.553 94.46 9.662 120.164 3.059 23.18-5.96 41.308-21.35 54.889-41.49 17.72-26.27 27.52-60.821 32.44-87.391 3.65-19.7-6.8-65.579-15.35-84.228-5.68-12.4-18.78-21.36-27.98-31.01-3.19-3.34-6.33-8.601-9.77-13.051-4.18-5.43-8.76-10.021-13.33-12.871-18.83-11.769-50.062-21.937-74.733-22.58zm-14.172 71.01c11.959.322 23.678 2.77 34.395 8.29 42.75 22.03 59.1 72.79 31.58 112.41-3.21 4.62-4.55 10.64-8.59 14.68-19.61 19.62-56.08 32.042-80.35 15.862-4.62-3.07-9.54-5.191-14.54-7.201-2.97-1.2-6.22-1.97-8.73-4.69-9.08-9.842-13.333-23.64-17.777-36.304-5.454-38.023-2.068-79.094 37.307-92.215 3.27-1.1 12.85-6.472 16.34-8.452 3.63.174 7.203-.696 10.365-2.38zm382.647-69.702c-2.47.034-4.85.186-7.022.473-12.98 1.71-20.78 9.26-23.44 15.65-6.48 15.56-7.32 32.21-9.09 47.61-.9 7.86-1.5 15.42-6.7 21.03-2.53 2.74-6.12 4.81-10.96 6.47-1.35-.74-2.87-1.55-3.64-1.92-3.62-1.7-9.01-1.99-12.76-1.95-3.21-1.78-7.41-5.74-12.08-9.89-2.1-1.86-4.22-3.82-6.31-5.82-7.83-16.97-15.58-34.301-25.76-49.721-12.6-19.08-31.81-22.31-53.29-19.62-1.82.23-5.49.43-5.49.43-4.12.25-7.88 1.73-10.94 4.07-3.88.69-7.6 2.54-10.6 5.54-6.08 6.08-7.42 15.12-4.02 22.5.36 4.9 2.7 36.84 2.92 41.17 2.39 47.79 1.47 94.91 1.47 142.65 0 11.16-3.22 28.601-1.5 42.041 1.56 12.22 6.6 22.07 14.87 28.33 7.76 5.88 19.37 9.72 37.13 5.62 9.34-2.16 16.71-8.82 20.43-19.83 3.05-9.05 2.47-23.55 3.53-29.67 3.042-17.623 12.159-37.508 30.966-36.028 3.888 2.589 7.81 3.866 11.696 3.904 3.412 2.375 6.822 5.873 10.289 9.788 2.034 5.02 4.401 8.848 6.84 11.195a20.578 20.578 0 0 0 5.375 3.76c10.494 13.938 19.77 28.938 25.824 38.002 2.17 3.26 5.96 6.938 11.59 9.738 5.95 2.97 15.21 5.431 23.64 6.271 12.56 1.24 23.37-2.47 27.68-6.16 5.05-4.33 9.42-12.13 11.18-22.38 1.92-11.16.82-26.891 1.75-33.401 7.13-49.91-.19-99.24 1.29-149.51.22-7.27 1.35-37.609-1.22-52.549-1.54-8.96-5.2-14.99-8.1-17.89-2.44-2.44-7.23-5.631-14.09-7.471-5.834-1.568-14.05-2.532-21.458-2.432zm-1387.962 402.7c-7.448-.106-13.698 1.472-19.03 4.052-14.11 6.81-22.73 22.59-27.2 42.65-2.43 10.9-3.95 23.151-7.06 33.731-2.05 6.97-4.19 13.859-12.8 13.139-4.71-.39-8.87-3.248-13.02-6.738-6.44-5.43-12.38-12.712-18.03-20.432-13.73-18.78-25.75-39.988-36.24-51.568-2.55-2.83-7.38-6.282-14.26-8.432-7.8-2.45-19.73-3.899-28.43-3.469-12.61.62-20.84 6.88-23.68 11.15-3.28 4.92-5.84 11.67-7.33 19.41-2.41 12.46-2.26 28.15-2.26 37.54 0 47.36.98 95.57 3.66 142.97.23 4.12 1.01 42.7 1.14 49.21-.02.23-.03.45-.04.68-1.79 7.85 1.3 16.359 8.4 21.089a19.913 19.913 0 0 0 14.29 3.102c1.6.39 3.26.718 4.99.968 10.13 1.48 22.1.481 27.98-1.859 5.51-2.2 9.05-5.62 11.21-8.86 7.91-11.87 9.58-32.03 12.71-50.39.59-3.47 1.29-6.84 2.36-9.9.93-2.63 1.86-5.27 4.93-5.83 6.21-1.15 13.56.79 20.81 3.65 12.76 5.04 25.25 13.609 31.36 22.209 7.2 10.16 12.09 23.98 19.09 34.14 7.03 10.19 15.8 17.571 26.93 20.731 7.53 2.13 16.35 2.46 26.92-.56 5.92-1.7 17.24-5.38 22.04-9.39 5.68-4.73 10.28-13.18 11.83-24.24 1.81-12.97-.38-31.21-.38-38.87 0-36.88-3.86-72.05-5.13-108.96-.42-12.2 2.4-24.37 2.14-36.7-.26-11.86 3.38-29.06 1.21-41.76-2.83-16.52-11.56-28.66-31.25-31.77a55.532 55.532 0 0 0-7.86-.693zm129.15 287.763c-1.99.1-21.25.91-28.42-1.52-8.04-2.71-12.9-7.95-15.32-13.75-4.95-11.89-7.35-29.26-8.17-48.25-1.05-24.05.16-51.05-1.63-69.57-2.81-29.05-2.38-59.28-1.74-88.41.08-3.59.04-7.24-.01-10.91-.74-3.05-1.55-6.38-2.16-9.73-1.48-8.01-2.08-16.07-1.1-22.66 2.01-13.48 9.2-22.91 22.49-26.54 2.67-.72 15.84-1.23 33.1-.52 34.86 1.42 88.97 5.69 91.99 6.64 4.16 1.3 12.71 7.18 16.57 19.18 2.84 8.8 4.58 22.06 3.88 28.76-.64 6.18-3.01 10.48-5.04 13.03-4.72 5.9-11.6 10.04-20.63 12.03-7.07 1.55-16.15 1.66-25.78 1.85-11.93.22-27.09-1.51-30.75 15.37-.81 3.77-1.37 6.57-.52 8.69.44 1.11 1.92.76 3.07 1.1 3.61 1.06 7.66 1.5 11.71 1.85 10.15.86 20.34 1.14 27.76 2.92 6.18 1.49 11.18 3.95 14.93 7.02 4.67 3.82 8.27 9.58 10 16.87 1.52 6.4.99 15.02 1.74 19.76 2.25 14.25-4.03 24.01-15.19 30.36-7.19 4.09-18.03 5.94-24.8 7.42-9.67 2.12-18.82 5.55-20.56 15.98-.53 3.18-.92 5.62-.09 7.46.51 1.13 2 .9 3.26 1.27 3.53 1.02 7.55 1.44 11.71 1.72 14.73.98 30.76.33 41.87 3.1.15.04 10.46 1.37 14.31 13.65.49 1.56 2.91 9.76 4.01 18.25 1.33 10.21-.07 20.52-3.57 26.62-3.71 6.46-9.24 10.69-16.67 12.28-28.79 6.17-61.2 1.2-90.25-1.32zm151.31-282.64c1.85-1.39 4.14-2.6 7-3.49 2.5-.79 15.92-2.12 19.24-2.44 13.01-3.62 22.51-1.14 29.82 3.42 9.1 5.69 15.3 16.74 19.01 29.52 6.04 20.8.47 44.87-.99 65.75-1.31 18.82-3.98 57.16 3.23 87.6 3.34 14.07 7.56 27.09 19.03 30.68 4.03 1.26 9.72-.44 13.8-.98 16.16-2.13 21.86-15.56 25.01-31.15 7.33-36.29-.1-84.86 2.7-111.98.44-4.2-.65-10.45-1.34-16.99-1.06-10.2-1.57-20.82.04-29.09 2.01-10.28 7.01-18.03 14.29-22.85 6.66-4.41 16.15-7.16 29.88-3.73 19.82 4.95 29.16 17.93 32.8 34.77 3.32 15.38-.16 35.6-.16 50.74 0 29.86 6.29 82-.38 124.13-5.53 34.89-20.26 63.06-47.61 75.03-10.67 4.67-33.43 7.94-56.36 8.26-23.05.33-46.1-2.37-57.18-7.07-5.64-2.39-27.3-16.13-34.18-25.52-2.67-3.63-4.2-7.23-4.93-10.64-8.36-14.4-13.45-32.81-16.08-52.83-4.43-33.67-2.4-72.14-5.25-96.77-.85-7.42-4.17-50.97-3.19-69.82.38-7.15 1.78-12.31 2.93-14.8 1.87-4.06 4.4-6.62 6.63-8.3.73-.54 1.47-1.02 2.24-1.45zm376.05-7.12c1.54-.01 22.38-.11 29.85 2.39 8.35 2.78 13.22 8.16 15.59 13.67 8.33 19.44 5.3 32.3-.11 40.76-5.66 8.85-15.84 14.66-28.51 16.96-5.74 1.05-14.37 1.75-20.77 2.17-.05 7.64-.17 18.31-.5 21.17-2.57 22.62-2.97 45.62-2.25 67.76.6 18.07-3.61 35.9-3.61 53.92 0 12.08 1.11 24.08-.06 33.67-1.4 11.4-5.68 20.45-12.92 26.77-7.13 6.23-18 10.79-35.59 8.94-10.84-1.14-18.56-7.31-23.15-17.3-4.01-8.76-3.91-23.29-5.03-29.15-7.02-36.48-2.3-74.34-3.74-111.19-.38-9.91.99-28.93.45-45.31-.15-4.46-1-10.33-1.54-13.68-2.46-.15-6.2-.36-8.63-.37-10.77-.03-21.11-1.53-28.78-6.41-8.38-5.33-12.81-13.54-14.21-23.5-.41-2.94-.22-6.18-.19-9.21-2.46-4.92-3.41-10.72-2.34-17.46 1.5-9.49 8.4-18.04 21.28-21.45 10.94-2.89 28.85-1.42 33.64-.77 30.35 4.14 60.66 2.88 91.12 7.62zm127.92 5.911c-4 0-22.11 1.16-33.98 2.77-1.79-.48-3.71-.721-5.74-.721-11.04 0-20 8.96-20 20 0 2.53.47 4.95 1.33 7.17-.21 16.58-2.8 36.8.61 52.73.8 3.7-.03 7.759-.43 11.789-.52 5.18-.91 10.34-.6 15.21 1.62 25.96 3.19 52.27 3.19 78.34 0 24.53-6.51 54.772.34 78.052 1.88 6.4 6.39 12.219 14.22 15.779 6.25 2.85 16.67 4.08 25.53 3.69 9.21-.4 16.75-2.801 18.49-3.741 5.77-3.13 8.07-7.438 9.22-10.318 4.23-10.56 4.24-36.601 7.89-59.131.704-4.338 1.606-8.483 2.864-12.192.27.03.914.064 1.105.092 20.498 2.93 28.805 11.099 37.36 23.703.424 1.348.852 2.697 1.28 4.037 5.6 17.49 11.842 34.48 27.792 46.89a43.342 43.342 0 0 0 3.412 2.4c2.137 2.43 4.587 4.661 7.637 6.57 4.5 2.81 11.22 4.939 18.88 5.699 11.38 1.14 25.45-.368 29.09-.818 14.4-1.82 17.4-14.181 17.41-14.201 1-3.35 1.83-8.82-1.4-15.37-.341-.69-1.052-1.69-1.888-2.79-3.027-5.224-10.4-15.973-21.221-29.84-11.98-15.34-21.6-33.31-29.17-50.69 1.05-1.8 3.939-6.61 6.129-9.27 5.4-6.56 11.12-12.64 14.23-17.39 11.03-16.83 17.53-43.44 15.1-67.69-1.78-17.87-8.37-34.3-19.81-45.75-34.99-34.98-82.91-35.01-128.87-35.01zm40.51 66.619c7.39.86 14.69 2.22 22.16 4.03 9.5 2.29 16.98 13.09 21.23 24.1 1.34 3.47 2.51 7.1 3.11 10.61-4.8 15.42-19.59 23.06-34.71 23.81-14.04.7-29.02-4.13-37.99-15.17.15-6.81.32-13.6.55-20.36.23-6.85.67-13.69.83-20.52 3.16-.72 8.36-1.941 11.19-2.801a41.201 41.201 0 0 0 6.26-2.459c.86-.16 1.74-.331 2.65-.541 1.51-.34 3.09-.57 4.72-.7zm292.197-74.469c-11.807-.028-26.307 1.346-39.267 3.738-12.57 2.32-23.73 5.711-30.41 9.211-6.57 3.45-10.6 7.8-12.75 11.5-10.39 17.96-17.02 47.03-21.8 67.88-3.22 14.05-10.31 27.07-13.5 41.21-9.7 43.14-20.3 88.51-29.03 131.34-1.32 2.87-1.83 5.76-1.69 8.62-1.39 10.36 5.5 20.17 15.9 22.25 5.59 1.12 11.12-.22 15.44-3.27 1.87-.69 3.73-1.63 5.59-2.82 4.99-.78 10.74-1.72 13.68-2.3 5.96-1.18 9.75-3.42 11.14-4.45 17.47-12.94 31.79-28.391 54.04-31.571 22.53-3.22 44.72 2.09 63.45 13.96 8.29 5.25 19.1 16.56 30.33 21.44 13.8 6.01 28.11 6.11 42.16-6.19 4.59-4.01 9.32-12.3 7.85-24.65-1.85-15.49-15.54-47.03-18.57-54.24-11.5-27.42-27.1-84.77-32.66-114.6-2.29-12.23-3.9-29.78-8.38-45.07-4.02-13.69-10.4-25.67-19.47-33.6-3.75-3.28-11.03-6.79-21.3-7.88-3.18-.335-6.817-.499-10.753-.508zm-13.687 135.008c6.7 3.74 12.17 10.28 16.06 17.39.25.45.49.9.73 1.35-.06 2.1-.07 4.251-.04 6.451.11 7.9 1.41 16.94-2.5 24.34-.88 1.66-2.78 1.87-4.25 2.74-2.46 1.44-4.95 2.92-7.35 4.61-.71.51-1.43.96-2.14 1.36-6.17.3-12.69.04-18.77-.78-.48-.07-.97-.15-1.48-.24-4.6-2.85-8.62-7.23-11.56-12.19.01-2.6-.03-7.32-.35-9.48-1.69-11.16 4.1-18.62 11.81-24.4 5.89-4.41 12.76-8.021 19.84-11.151zM1567 2148.839c1.65-2.85 4.45-6.05 9.32-9.1 3.91-2.44 8.92-3.97 14.58-4.07 5.71-.1 12.65 1.6 16.56 2.62 14.79 3.83 22.66 9.43 27.8 15.81 6.43 7.97 8.35 18.85 11.06 36.52 4.36 28.32 2.42 57 .58 85.66-1.13 17.73-2.24 35.46-1.18 53.06 3.42 8.73 7.5 16.63 16.72 23.14 4.35 3.07 11.43 2.86 18.59 3.45 12.83 1.05 26.19 1.92 36.26 5.36 11.57 3.95 19.95 10.9 24.42 21.05 3.7 8.4 5.03 20.12-.44 36.54-1.77 5.31-5.51 10.46-12.96 13.18-2.55.93-6.62 1.73-11.66 1.45-3.48-.18-9.47-1.17-14.11-2.01-6.99.03-14.26-.6-18.22-.6-19.71 0-45.59 4.64-64.67.18-5.82-1.35-12.14-.49-18.11-.42l-1.78.31c-4.06.91-8.27.51-12.03-1.06-2.04.39-4.12.45-6.22.26-3.73-.36-9.98-1.45-15.09-9.12-2.31-3.47-5.13-11.82-6.24-22.62-1.66-16.21-1.46-39.97-.91-46.51.45-5.21.9-10.41 1.49-15.57-.05-3.38-.06-6.05-.06-7.72 0-3.39.55-6.23 1.48-8.6-1.04-29.31-3.26-58.84-5.67-87.76-1.38-16.55-1.19-33.32.98-49.27.42-3.04 1.21-20.51 2.13-23.55 1.74-5.71 4.94-8.84 7.38-10.61z"/></svg>