<svg viewBox="0 0 1101 2159" xml:space="preserve" style="fill-rule:evenodd;clip-rule:evenodd;stroke-linejoin:round;stroke-miterlimit:2" xmlns="http://www.w3.org/2000/svg"><path style="fill:#fff;stroke-width:2.88923" d="M595.816-.031C584.374.204 574.26 4.023 565.187 9.97c-10.499 6.885-19.039 17.763-26.675 24.816-16.85 15.553-24.847 45.596-26.82 67.332-2.78 30.565-11.579 59.976-7.245 91.168 6.776 48.779 2.125 98.192 7.04 147.332 9.37 93.692 9.417 192.085 9.417 286.254 0 31.504 2.012 68.051-7.85 97.637-1.311 3.932-4.832 13.612-6.265 17.533-7.333 2.43-13.34 2.855-18.205.252-6.157-3.297-9.709-10.056-12.488-17.484-5.608-14.998-6.69-33.482-4.358-49.797 1.043-7.307.527-14.935-.562-22.623-.523-3.684-2.143-7.353-1.262-10.883 2.303-9.208 2.299-19.537 1.4-30.022-.557-6.51-2.823-13.124-.933-18.478 2.201-6.232 4.068-19.07 4.557-34.696.939-30.048-1.843-72.227-5.024-84.943-1.453-5.822.378-12.444 1.037-18.994.94-9.352 1.24-18.603-.271-27.17-11.476-65.03 6.94-136.035-3.33-201.08-3.985-25.229 1.774-62.303-4.686-89.78-6.934-29.498-23.547-51.38-59.185-56.865-24.559-3.779-39.065 5.625-50.114 19.178-5.189 6.368-8.76 14.72-13.724 20.924-24.403 30.505-25.832 66.67-35.725 101.291-4.444 15.544-10.74 44.448-8.59 60.22 2.48 18.174-.252 64.39-3.072 85.077-3.167 23.206 3.308 47.718-1.297 70.748-6.322 31.605 1.602 68.002 1.602 100.144 0 47.618-2.164 94.553-2.164 142.061 0 13.889.438 32.188-2.067 49.621-1.713 11.947-3.986 23.866-11.744 31.026-3.758 3.47-7.899 5.7-12.13 7.675-11.117-14.366-14.393-29.977-16.23-46.496-2.103-18.918-2.573-38.888-6.072-59.886-6.717-40.302-4.845-84.55-4.845-125.588 0-16.995 3.701-36.334-.52-53.221-2.329-9.315-.168-20.198.248-30.746.494-12.51-.28-24.712-3.941-35.7-4.109-12.316-4.097-28.822-5.365-44.187-1.211-14.677-3.264-28.603-7.37-39.69-5.53-14.928-14.635-25.866-27.28-32.222-11.231-5.643-26.342-8.218-47.02-2.578-7.732 2.109-20.993 10.248-27.473 15.92-9.41 8.234-16.457 19.373-21.588 31.959-5.348 13.126-8.487 28.027-12.234 40.017-9.766 31.25-11.25 63.748-11.198 96.325.047 28.094 1.308 56.227-2.968 83.314-7.093 44.907 2.37 93.44-4.36 138.295-16.023 106.815-3.55 212.876 13.58 321.37 10.266 65.01 1.433 134.33 30.059 195.161 11.193 23.784 41.571 53.206 60.455 68.31 68.145 54.518 182.915 70.848 272.371 51.68 23.53-5.044 42.772-18.133 65.383-23.785 15.255-3.813 29.928 7.118 33.531 20.325 3.435 12.59-3.177 23.488-11.81 32.535-12.222 12.799-29.453 22.175-44.428 26.668-4.522 1.355-8.843 3.316-13.053 5.613-2.826 1.543-5.134 4.27-8.422 4.79-61.248 9.671-128.528-1.389-189.17-10.718-25.514-3.923-67.646-11.716-92.453-5.19-15.526 4.086-20.7 12.268-23.422 17.585-2.265 4.42-2.07 11.77-1.24 18.26-2.427 11.155-.268 23.604 7.192 35.898 11.389 18.763 38.064 38.19 53.484 44.584 120.498 49.96 265.686 60.202 394.766 38.69 88.788-14.797 179.478-42.707 231.947-119.413 13.984-20.412 21.438-44.159 26.754-68.752 4.334-20.077 7.194-40.73 13.002-59.611 13.261-43.13 23.779-89.83 45.506-129.2 4.651-8.445 8.06-17.734 11.296-27.144 3.005-8.682 5.402-17.7 11.036-24.853 11.47-14.594 26.524-24.563 41.375-34.86 19.502-13.507 38.83-27.33 54.2-46.558 14.794-18.497 26.178-60.015 30.079-83.418 11.788-70.83 33.428-152.928 15.457-224.737-3.698-14.77-1.937-32.444-3.988-48.886-2.11-17.116-7.252-33.163-18.086-46.73-10.777-13.476-23.114-19.76-35.422-21.903-11.875-2.075-24.24-.084-36.201 5.521-25.166 11.797-48.684 42.318-56.514 61.11-18.462 44.323-28.979 90.762-45.88 133-14.62 36.572-34.296 69.871-72.405 93.681-33.92 21.204-71.46 26.403-109.635 29.512-44.529 3.629-89.992 4.325-133.432 16.174-4.085 1.115-8.548-.006-12.937-.205-7.616-.344-15.14-.123-22.268 1.521-39.316 9.073-80.057 18.958-105.12 54.045-11.26 15.764-17.944 49.077-9.536 68.697.916 2.136 3.554 6.92 5.129 9.729.381 4.386 1.762 9.259 4.842 14.283 4.143 6.752 16.582 17.472 19.83 19.5 8.702 5.44 16.049 13.957 24.861 19.262 11.306 6.807 23.955 10.517 39.467 8.13 10.742-1.652 25.061-3.703 34.367-9.519 1.058-.659 4.774-4.08 7.793-6.92l.244-.09c14.932-5.599 22.508-22.267 16.908-37.199-3.73-9.945-10.39-14.962-17.54-17.658-5.643-2.13-12.51-2.924-20.286-.367-3.626 1.193-12.466 8.387-17.554 12.697-2.728.413-9.449 1.439-12.72 1.942-1.198.185-1.746-1.06-2.581-1.666-.23-.168-.439-.377-.666-.55-1.502-6.67-5.26-12.748-10.903-16.927-.936-1.35-2.63-3.82-3.084-4.727-9.286-18.572 5.462-32.024 20.05-44.789 3.903-3.415 9.661-3.326 15.208-3.338 10.217-.026 20.624 2.153 28.65 4.16 19.595 4.898 43.348 19.206 60.518 37.454 9.8 10.416 17.714 22.054 19.569 34.42 2.143 14.278-3.71 24.01-7.27 37.06-2.618 9.598-10.534 17.878-18.898 25.483-11.242 10.219-24.165 18.72-34.22 25.004-5.344 3.34-10.786 7.534-16.417 11.564-3.869 2.768-7.553 6.11-12.086 6.758-73.675 10.525-136.224-16.485-173.53-80.92-9.485-16.382-21.307-44.422-16.783-62.524 7.004-28.002 8.342-58.498 27.018-82.271 4.574-5.819 11.196-9.624 17.483-13.842 7.067-4.744 14.055-9.587 20.214-15.183 24.865-22.609 56.569-30.291 89.471-35.018 39.499-5.672 80.857-6.85 118.197-15.465 3.254-.751 6.751.546 10.25.844 7.4.627 14.732.543 21.739-1.072 38.028-8.775 72.332-6.745 108.898-22.743 4.345-1.898 10.038-3.042 15.123-5.021 7.772-3.045 14.677-7.323 19.936-12.914 24.356-25.862 59.025-65.152 71.709-103.21 27.13-81.354 26.032-183.578 12.742-267.712-8.957-56.866-4.738-116.57-9.158-174.033-3.872-50.374-7.888-105.18-25.108-152.563-7.107-19.566-16.353-42.06-29.99-58.252-6.472-7.673-22.305-20.193-22.305-20.193a28.885 28.885 0 0 0-19.242-5.98s-12.487.804-22.226 4.355c-8.726 3.181-15.643 8.56-19.743 14.299-10.898 15.258-15.06 35.44-17.986 53.488-9.055 55.843-16.422 115.517-16.422 172.184 0 11.363 1.759 21.314 5.234 32.418.015.965.088 7.252-.224 10.959-.688 8.124-1.91 16.33-2.395 21.814-2.331 26.451-.014 53.64-1.326 79.865-2.054 41.053 9.526 99.03 9.526 142.48 0 19.786-6.36 41.684-4.797 60.452 1.482 17.763-.567 37.878-8.235 54.21-4.802 10.223-12.059 18.916-23.047 22.59l-10.355-11.384c-6.767-28.413-3.175-94.609 1.3-122.955 4.904-31.048 1.887-75.444-2.415-106.988-4.655-34.134-3.652-75.834-.115-110.028 4.833-46.742-4.465-94.924.236-141.93 2.528-25.266-.697-50.704 1.924-76.054.47-4.545-.744-13.183-1.414-17.404.814-3.41 1.196-7.027 1.115-10.82-.075-3.48-1.11-9.956-1.7-13.391 7.177-21.58 1.881-50.52-12.43-75.182C651.482 24.162 627.11 4.62 607.714.982 603.593.21 599.63-.11 595.816-.03zm-64.191 1109.226a28.76 28.76 0 0 0 10.66 13.643c-4.44-2.756-8.19-7.055-10.66-13.643zm-259.049 343.8.211.03a22.726 22.726 0 0 1-.127 3.797c.072-1.272.013-2.551-.084-3.828zm222.535 1.185c.014.4-.099.793-.07 1.195-.628.005-1.286.02-1.916.027a46.98 46.98 0 0 0 1.986-1.222z"/><path style="fill:#fff" d="M164.861 1656.846c-4.716-.083-9.706.23-13.771 1-9.79 1.87-15.504 7.739-17.2 11.699-2.056 4.8-2.821 9.97-3 15.27-.122 3.67.52 7.46-.593 10.79-3.322 9.97-6.456 22.68-12.424 32.83-3.863 6.57-9.144 12-18.184 12-6.24 0-13.43-3.23-19.474-7.77-5.587-4.2-10.487-9.57-11.51-15.71a522.357 522.357 0 0 0-3.55-19.043c.049-5.524.128-11.097.128-16.547 0-7.64-2.648-12.55-5.873-15.98-3.404-3.62-7.966-5.9-13.51-6.65-2.448-.32-6.525-.19-9.976.03-2.634-.49-7.505-1.1-10.154-1.14-.382-.01-.75 0-1.104.01-4.721-1.33-10.003-.33-13.967 3.14-4.368 3.82-7.756 11.08-8.117 20.77-.216 5.8.428 12.88.895 19.44.275 3.87.874 7.43.212 9.63-3.597 11.99-3.486 100.55-1.316 114.29.89 5.64-1.15 12.41-1.883 18.89-.873 7.73-.608 15.16 1.787 21.55.07.184.17.37.246.553 1.172 4.598 4.49 8.572 9.264 10.358.201.075.57.155.82.232 1.022.565 2.087 1.1 3.247 1.567 6.068 2.43 14.452 3.6 20.564 3.23 4.269-.25 7.78-1.28 10.094-2.44.128-.064.262-.158.392-.228 6.298-1.32 10.288-4.52 12.23-7.111 4.015-5.35 5.829-11.942 6.202-19.102.265-5.09-.78-10.618.31-14.978 2.267-9.06 7.218-20.12 14.239-28.74 3.846-4.73 8.264-8.79 13.449-10.68 9.171-3.33 16.424-3.741 22.031-.701 9.488 5.15 13.435 17.61 15.438 31.63.518 3.63.115 28.98 1.068 35.23.742 4.86 2.81 7.65 3.81 8.81 2.668 3.12 7.038 5.92 13.589 5.87 2.324-.019 5.569-.58 9.06-1.404 3.222.028 6.552.031 9.822.006a15.2 15.2 0 0 0 1.909-.013c2.915-.034 5.45-.083 6.683-.168 3.353-.23 5.36-1.13 5.98-1.41 1.898-.86 7.003-3.601 8.887-11.301 1.216-4.97 2.512-22.36 2.565-33.79.032-6.9-.762-12.21-1.385-13.98-2.181-6.18-2.022-19.65-1.799-34.96.393-27.04 2.205-59.03.604-74.5-.545-5.28 1.87-17.16 1.42-25.71-.435-8.25-3.27-14.7-6.995-18.42-1.745-1.75-4.699-3.8-9.029-4.98-2.97-.81-7.414-1.287-12.13-1.37zm65.469 2.539c5.806-5.44 12.007-7.63 17.898-8 6.873-.42 13.754 1.81 19.854 6.33 9.017 6.67 16.235 18.85 18.288 29.8 3.794 20.24-2.919 56.7-1.476 86.88.386 8.05 1.377 15.58 3.834 21.85 1.666 4.25 3.991 7.86 7.834 9.99 5.578 3.1 11.854.77 17.275-2.58 7.029-4.35 13.016-11.14 15.187-17.65 5.994-17.98 3.812-48.69 3.087-73.51-.615-21.01.412-38.62 4.11-46.02 1.667-3.33 5.506-7.6 12.543-9.49 8.328-2.23 26.409-1.3 30.589-.16 7.59 2.07 14.27 9.19 16.13 21.25 1.71 11.15-1 29.01-.25 34.65 1.76 13.17 2.32 62.54-.42 95.39-1.42 17.06-4.58 30.23-7.6 34.91-7.25 11.19-13.347 17.03-23.05 25.52-7.863 6.88-21.987 12.52-36.694 14.85-14.318 2.28-28.949 1.35-38.463-2.58-1.078-.01-4.477-.05-6.304-.15-3.876-.22-7.474-1.06-10.534-2.59-8.287-4.14-19.565-7.24-28.201-10.32-1.885-.67-4.54-2.09-7.32-4.61-2.682-2.43-6.202-6.55-9.339-10.92-3.766-5.25-6.914-10.87-8.095-14.21-.929-2.63-1.197-4.88-1.197-6.53 0-17.97-.437-67.94 3.206-82.51.486-1.95.274-6.12.15-11.38-.395-16.77-2.264-41.7-2.037-55.25.16-9.53 2.657-15.86 4.203-17.92.421-.57 2.924-3.43 6.792-5.04zm220.524-5.822c-3.222-.016-5.858.05-7.32.232-1.73.21-3.241.62-4.561 1.13a15.027 15.027 0 0 0-5.97-1.23c-8.28 0-15 6.72-15 15 0 20.52 3.63 42.8 1.57 64.11-1.46 15.09-4.44 40.02-.73 54.88 3.27 13.06 1.69 32.36-.28 45.52-1.07 7.17-1.55 17.46.67 25.32 1.87 6.6 5.45 11.87 10.42 15.27 4.5 3.08 10.4 5.05 18.27 3.91 2.13.37 5.429.87 7.159.71 4.26-.41 7.772-2.14 10.512-4.88 2.47-2.47 6.02-9.29 7.61-19.71 1.5-9.842 2.388-24.412 2.939-39.077.261-1.9.33-3.746.189-5.514.04-1.267.095-2.547.13-3.804.334-1.855 1.024-3.784 2.03-5.125.804-1.072 1.543-2.28 2.26-3.537 1.213-.84 2.474-1.637 3.752-2.313 1.07-.57 2.94-1.17 3.6-1.38a34.197 34.197 0 0 1 4.937 1.882c4.406 16.052 7.602 31.83 10.012 40.258 2.19 7.67 4.97 19.22 10.18 26.83 6.18 9.03 14.9 14.23 27.01 12.5 5.57-.8 11.679-4.6 16.089-11.91 3.44-5.72 8.201-18.84 8.441-19.53 2.14-3.42 4.62-9.47 7.11-17.2 2.072-6.437 4.367-14.382 6.888-22.606 2.836-2.516 5.679-4.81 8.522-6.475 1.46-.86 2.78-1.709 4.17-1.709 3.58 0 5.76 2.05 7.34 4.67.447.74.843 1.528 1.224 2.33.495 17.888.031 35.855 2.785 53.3 1.21 7.7 7.542 17.9 15.692 23.31 6.73 4.47 14.33 5.86 21.26 3.83 4.79-1.41 9.63-4.42 13.59-10.36 2.66-3.98 5.209-13.7 5.949-26.12 1.26-21.26-.44-52.44-1.11-61.21-1.28-16.6 1.54-34.11 1.54-50.85 0-10.91.24-21.88.24-32.78 0-5.89 1.2-15.45.53-23.19-.48-5.56-1.88-10.47-4.01-14.19-.54-.96-3.75-6.56-12.44-7.76-6.86-.94-34.34-2.4-46.33-1.75-8.25.45-13.25 3.62-14.62 4.9-2.66 2.49-5.11 6.18-7.07 10.44-1.44 3.13-2.58 6.74-3.92 9.18-4.34 7.86-10.18 17.35-17.59 24.33-5.02 4.74-10.72 8.62-17.63 7.39-17.49-3.13-22.76-14.91-27.85-25.07-6.07-12.11-12.34-22.81-22.89-28.67-.62-.34-2.76-1.51-6.5-1.96-4.216-.51-19.135-1.278-28.8-1.322zm348.832-7.44c-13.69-.122-34.448 2.332-39.733 3.531-7.55 1.71-16.58 1.31-24.74 2.9-8.52 1.66-16.27 4.982-22.49 11.202-2.69 2.69-5.67 8.29-7.09 15.83-1.63 8.74-1.97 21.538-2.85 26.828-5.32 31.92-12.79 63.932-15.29 96.422-.59 7.65-11.76 47.88-12.1 57.76-.24 7.28 2.96 11.43 4.71 13.17 3.614 3.62 8.611 4.951 13.29 4.101 1.097.372 1.968.579 2.33.639 2.92.49 5.71.4 8.37-.23.3 0 .59-.012.89-.032.122-.008.24-.025.36-.035 3.526 1.425 7.692 1.675 12.42-.424 2-.89 4.75-2.7 7.49-5.65 3.64-3.93 9.96-13.43 11.81-16.26 10.79-9.1 23.56-15.55 37.98-16.86 3.39-.31 13.82.85 23.2 2.9 3.68.8 8.56 2.54 10.61 3.29 4.71 9.3 13.73 20.37 23.54 26.75 10.37 6.76 21.58 8.4 31.1 4.07 8.51-3.87 13.82-12.68 13.53-25.24-.32-13.95-8.5-34.75-10.63-41.14-7.69-23.08-11.24-63.62-18.85-97.52-5.98-26.63-15.06-49.33-27.97-60.63-2.27-1.98-7.23-4.54-14.52-5.15a73.395 73.395 0 0 0-5.367-.222zm-22.323 79.563c3.345.14 6.675.513 9.87.968 3.911.562 7.008 2.923 9.558 6.035 1.257 1.82 2.416 3.793 3.482 5.836 1.173 2.24 2.212 4.602 3.192 7.004.372 1.15.72 2.314 1.021 3.502.477 7.448.895 14.875 1.483 22.258-.266 2.144-.646 4.24-1.176 6.246-1.38 5.25-3.52 9.99-7.37 12.66-6.2 4.29-16.46 3.27-26.06.94-9.734-2.357-19.302-6.424-23.623-12.211.25-8.905.555-18.108 1.082-27.309 5.927-11.863 16.961-21.446 28.541-25.93zm68.65 118.74.06.379c-.08-.07-.161-.13-.241-.2l.07-.07.112-.11zm69.29-198.108c-6.796.193-13.174 2.53-17.467 7.205-.177.177-.331.368-.498.553-.19.223-.369.457-.549.69a14.883 14.883 0 0 0-1.351 1.974c-1.916 3.24-3.036 7.26-3.036 12.106 0 42.53 2.99 85.359 2.99 128.279 0 3-.067 6.049-.136 9.102-.287 2.836-.648 5.378-1.143 7.359-1.37 5.45-2.131 38.4 1.969 51.36 3.59 11.33 11.801 14.869 17.701 14.869 3.6 0 12.74-.59 19.11-2.35 5.79-1.6 10.03-4.54 12.27-7.22 3.2-3.84 6.06-11.48 6.87-22.06.581-7.556.461-17.288.315-27.69.446-1.225 1.382-3.8 1.484-4.07 3.83-10.21 8.91-13.49 18.5-16.91 5.6-2 9.52 2.27 13.58 6.33.222.223.442.416.664.628a532.454 532.454 0 0 0 12.67 17.457c.449.76.932 1.514 1.486 2.246.42.559 1.017 1.224 1.668 1.914 2.663 3.472 5.258 6.74 7.881 10.062 2.908 5.394 5.719 11.497 8.893 17.053 4.07 7.12 8.74 13.44 14.1 17.83 4.43 3.62 9.689 5.3 15.369 5.55 3.81.17 7.9-.66 11.23-.66 2.69 0 7.46.31 10.76-.57 5.42-1.45 9.31-4.71 11.56-9.22 3.4-6.8 4.85-18.69 4.24-32.99-.67-15.49-3.47-34.592-4.933-50.817-.103-9.486-.126-19.023.041-28.502 1.694-12.891 2.734-26.663 3.102-39.762.03-1.067.635-10.111.252-15.17.131-12.246-.276-30.553-1.592-35.789-2-7.98-7.41-10.71-9.89-11.64-4.84-1.81-15.61-2.38-24.67-.62-8 1.55-14.48 5.17-17.42 8.48-3.26 3.68-5.61 9.18-6.28 15.84-.8 7.8.75 17.89 1.69 23.77-.467 6.233-.794 13.812-1.731 21.167-1.382 2.662-2.713 5.363-3.896 8.164-3.718 1.54-7.026 1.517-10.463 2.01a57.68 57.68 0 0 0-5.356 1.023 40.25 40.25 0 0 1-2.691-.852c-6.334-4.407-11.594-10.322-16.203-16.841-9.71-13.74-16.73-30.08-23.58-43.77-4.32-8.65-14.76-18.26-26.13-22.15-3.6-1.23-7.256-1.894-10.863-1.996-3.463-.99-7.041-1.47-10.517-1.372zm-790.564 284.527c1.355-.39 2.786-.7 4.289-.91 9.007-1.29 22.003 1.43 27.276 2.39 3.969.72 8.457.31 12.638.71 5.45.52 10.556 1.93 15.008 4.71 4.859 3.04 9.541 10.2 13.396 20.17 4.002 10.35 8.056 26.65 26.558 29.49 8.347 1.29 14.425.62 18.897-2.08 7.285-4.4 10.052-12.86 12.782-20.55 2.845-8.01 5.239-15.79 8.334-21.62 3.515-6.62 8.058-11.35 13.485-14.06 9.651-4.83 24.209-4.02 34.596-2.54 3.846.55 8.249.18 12.341.57 5.273.51 10.2 1.9 14.448 4.55 4.712 2.95 9.346 9.75 10.668 19.63 1.52 11.36-.366 28.43-1.262 34.4-5.406 36.04 2.109 75.18-.259 111.89-.31 4.8-.122 36.29-1.24 43.28-1.204 7.53-5.704 10.68-7.276 11.66-1.544.96-4.639 2.33-8.699 3.16-5.944 1.21-14.756 1.59-19.682.47-6.817-1.55-10.652-5.65-12.449-9.25-6.542-13.08-5.946-27.21-4.901-41.41.883-12.01 2.354-24.4-12.524-34.35-.932-.02-3.195-.08-4.46-.1-.707-.01-1.409-.04-2.106-.08-.04.03-.076.06-.109.09-16.138 13.83-16.126 30.45-20.687 52.35-.964 4.63-2.931 17.94-6.86 23.68-3.465 5.07-8.076 7.66-12.952 8.36-9.528 1.36-17.338-2.13-23.568-10.05-4.807-6.12-8.612-16.38-11.839-27.98-2.971-10.68-5.631-22.75-10.26-31.55-1.681-3.2-3.13-6.49-6.815-5.7-6.365 1.37-10.346 2.73-12.28 5.68-2.041 3.1-1.771 7.02-1.822 11.21-.126 10.54.463 22.31-3.036 34.19.179 1.72.529 5.44.42 7.32-.237 4.06-1.526 7.5-3.453 10.19-2.847 3.99-7.837 7.41-14.466 8.83-9.313 1.99-22.314-.43-27.832-3.88-2.274-1.42-7.117-6.32-8.557-15.53-1.94-12.4-1.745-40.9-.943-46.51 4.866-34.06-1.412-72.31-1.412-106.85 0-6-1.702-15.33-2.084-23.72-.395-8.68.711-16.63 3.432-22.07 2.917-5.84 9.136-8.94 15.265-8.19zm544.56-2.687c-5.2.096-9.238.41-11.455.938-3.5.83-10.48-.142-15.59.728-1.14.19-2.241.44-3.281.75-.42-.02-.83-.02-1.24-.02a14.91 14.91 0 0 0-7.651-.708c-6.23 1.03-10.93 5.789-12.19 11.619-1.3 3.2-1.038 6.25-.548 8.6.25 1.2.68 2.74 1.5 4.34 5.83 44.82-2.232 91.73 3.318 136.13.4 3.19-.558 8.29-1.228 13.86-.98 8.13-1.79 16.91-1.08 24.16 1.06 10.67 5.519 18.75 12.529 23.21 2.25 1.43 7.779 3.32 15.699 3.71 16.87.81 52.261-2 61.461-2 9.16 0 20.25 1.71 30.7 1.41 9.38-.28 18.3-2.08 25.87-6.32 28.26-15.82 46.73-52.4 51.13-90.74 4.43-38.57-5.56-77.96-29.7-98.65-14.28-12.24-30.53-19.79-47.87-23.66-3.01-.85-6.37-1.64-9.98-2.34-18.735-3.644-44.794-5.305-60.394-5.017zm42.058 61.615c4.883-.1 9.702.467 13.987 1.592 18.73 4.93 27.469 20.69 30.529 38.19 1.495 8.585 1.624 17.637.752 26.464-2.477 7.267-5.635 14.041-9.342 19.555-2.74 4.08-5.6 7.48-8.91 9.22-11.93 6.28-30.2 4.41-43.1 1.01-9.024-2.372-13.297-8.203-16.035-15.048-.828-10.125.518-21.43 1.485-30.81 1.15-11.11-.66-22.892 1.64-33.622 1.63-7.58 7.74-11.779 14.62-14.129 4.544-1.55 9.492-2.32 14.374-2.422zm167.805-63.798c-6.42 0-11.868 1.44-15.568 3.67-6.02 1.43-10.771 6.52-11.451 13.03-1.67 15.82 1.91 33.88 3.89 49.68 3.88 31.04 2.48 66.03 2.48 97.42 0 5.55-.88 31.58.75 43.54 1.08 8.02 4.55 12.95 6.66 14.79 6.63 5.8 17.14 8.02 28.97 7.08 5.68-.45 11.73-1.49 17.27-2.23 3.26-.43 6.21-1.03 8.37-.55 8.72 1.94 31.15 6.35 47.72 6.43 10.14.05 18.58-1.92 23.45-4.96 3.39-2.12 7.06-6.26 9.46-12.15 3.3-8.1 4.5-20.19 3.33-26.4-1.75-9.27-7.9-13.29-12.69-14.49-7.23-1.81-24.38.54-40.53 1.18-4.68.18-9.24.16-13.18-.52-.75-.13-1.73-.42-2.52-.68.07-2.37.09-6.04-.3-9.42.46-1.35 1.11-3.3 1.29-4.15.99-4.6 4.84-6.71 8.92-8.35 7.61-3.08 16.7-4.11 24.3-5.14 1.89-.26 4.69.32 7.48.44 4.09.17 8.15-.07 11.6-.98 6.94-1.82 12.18-5.87 15.06-12.59 3.24-7.55 1-16.24-1.05-23.12-.03-.68-.2-4.43-.53-6.21-.89-4.74-2.9-9.18-8.12-13.24-3.05-2.38-7.31-4.24-12.73-5.05-6.32-.95-15.37-.39-24.95-.12-6.04.18-12.381.23-17.961-1.06-4.27-.99-7.91-3.15-8.69-8.64-.47-3.31-.518-5.85.622-7.72 1.93-3.16 5.978-3.9 9.968-4.84 8.65-2.03 18.312-2.37 25.702-3.51 5.83-.89 19.729-3.17 26.949-8.41 7.21-5.23 10.699-12.4 9.199-21.41-.51-3.07-1.548-9.45-3.148-13.97-1.61-4.51-4.04-7.88-6.26-9.82-1.19-1.04-3.171-2.47-6.291-3.4-1.89-.56-5.99-1.2-11.62-1.53-20.03-1.14-66.7-.44-73.6-.44-4.9 0-14.72-2.16-22.25-2.16zm-413.881 1.17c-8.17.044-17.118.365-22.783 1.115-3.56.48-6.47 1.4-8.66 2.37-2.81-.17-5.77.63-8.9 2.58-4.77 2.99-7.28 8.22-7.03 13.47-.25 2.14-1.53 12.9-1.92 15.09-2.33 13.22-7.62 25.99-9.11 39.4-2.07 18.61-14.52 66.76-20.21 100.24-2.93 17.26-3.7 31.31-2.05 37.9 1.82 7.3 7.14 12.79 15.46 15.38 8.89 2.76 22.91 1.17 28.1-.13 4.35-1.09 8.74-3.84 12.6-8.15 2.61-2.91 7.36-9.41 8.03-10.34 9.42-5.62 16.93-10.73 26.42-14.02 3.77.47 7.4.52 10.72 0 3.43-.54 6.94-1.2 10.49-1.95 4.36 1.32 8.06 3.8 11.48 6.59 6.02 4.91 11.36 10.72 16.91 15.58a95.1 95.1 0 0 0 4.932 4.037c.698 1.217 1.5 2.34 2.398 3.353 2.06 2.32 5.22 4.55 9.83 5.42 1.274.24 2.956.3 4.824.238 7.97 2.246 16.852 2.007 27.317-2.017 6.69-2.58 12.259-8.94 13.119-19.82 1.1-13.85-9.8-50.92-10.14-52.07-.26-12.16-5.23-26.36-8.11-38.6-3.63-15.45-9.74-53.392-17.32-79.032-4.15-14.02-9.42-24.798-14.17-29.558-2.43-2.42-7.28-5.221-14.4-6.221-11.21-1.57-33.73.55-39.71-.3-2.555-.366-9.947-.6-18.117-.555zm29.957 84.615c.44.26 2.34 1.37 3.29 2.06 1.64 1.2 3.23 2.42 4.81 3.49 2.85 1.94 5.76 3.42 8.68 4.36 1.55 6.4 2.81 12.97 3.68 19.29 1.1 7.92 1.6 15.43 1.15 21.63-.2 2.63-1.13 6.27-1.33 7.03-6.49 6.66-12.36 5.88-20.76 7.08-11.08 1.58-19.04 1.56-24.24-2.23-2.89-2.11-4.26-5.54-5.15-9.78-1.48-7.05-1.28-15.84-.08-26.26 1.71-14.86 15.35-26.47 29.95-26.67z"/></svg>