<?xml version="1.0" encoding="UTF-8" standalone="no"?>
<!-- Created with Inkscape (http://www.inkscape.org/) -->

<svg
   xmlns:dc="http://purl.org/dc/elements/1.1/"
   xmlns:cc="http://creativecommons.org/ns#"
   xmlns:rdf="http://www.w3.org/1999/02/22-rdf-syntax-ns#"
   xmlns:svg="http://www.w3.org/2000/svg"
   xmlns="http://www.w3.org/2000/svg"
   xmlns:sodipodi="http://sodipodi.sourceforge.net/DTD/sodipodi-0.dtd"
   xmlns:inkscape="http://www.inkscape.org/namespaces/inkscape"
   id="svg2"
   sodipodi:docname="arcadeslot.svg"
   viewBox="0 0 220 213.33333"
   version="1.1"
   inkscape:version="0.92.1 r15371"
   width="220"
   height="213.33333"
   inkscape:export-filename="C:\Users\Alan\Downloads\slot.png"
   inkscape:export-xdpi="600"
   inkscape:export-ydpi="600">
  <defs
     id="defs13">
    <filter
       style="color-interpolation-filters:sRGB"
       height="4.7592173"
       y="-1.8796085"
       width="4.0283766"
       x="-1.5141883"
       id="filter5849"
       inkscape:collect="always">
      <feGaussianBlur
         id="feGaussianBlur5851"
         stdDeviation="21.537181"
         inkscape:collect="always" />
    </filter>
    <filter
       inkscape:collect="always"
       style="color-interpolation-filters:sRGB"
       id="filter913"
       x="-0.10457619"
       width="1.2091523"
       y="-0.012875318"
       height="1.0257506">
      <feGaussianBlur
         inkscape:collect="always"
         stdDeviation="0.61275112"
         id="feGaussianBlur915" />
    </filter>
  </defs>
  <sodipodi:namedview
     id="base"
     bordercolor="#666666"
     inkscape:pageshadow="2"
     inkscape:window-y="-8"
     pagecolor="#ffffff"
     inkscape:window-height="706"
     inkscape:window-maximized="1"
     inkscape:zoom="2.0011122"
     inkscape:window-x="-8"
     showgrid="false"
     borderopacity="1.0"
     inkscape:current-layer="layer1"
     inkscape:cx="120.15476"
     inkscape:cy="101.76964"
     inkscape:window-width="1366"
     inkscape:pageopacity="1"
     inkscape:document-units="px"
     inkscape:snap-global="false">
    <inkscape:grid
       id="grid2816"
       enabled="true"
       visible="true"
       snapvisiblegridlinesonly="true"
       type="xygrid"
       empspacing="5"
       originx="0"
       originy="0"
       spacingx="1"
       spacingy="1" />
  </sodipodi:namedview>
  <g
     id="layer1"
     inkscape:label="Layer 1"
     inkscape:groupmode="layer"
     transform="translate(0,-852.36)">
    <g
       transform="matrix(1.2160591,0,0,1.2160591,-14.304022,-198.39195)"
       id="g947">
      <g
         id="g935" />
    </g>
    <g
       id="g4710">
      <path
         inkscape:connector-curvature="0"
         d="m 30,1022.4 -10,10 h 160 l -10,-10 z"
         style="fill:#4d4d4d;fill-rule:evenodd"
         id="path2835"
         transform="matrix(1.2160591,0,0,1.2160591,-14.304022,-198.3919)" />
      <path
         inkscape:connector-curvature="0"
         transform="matrix(1.2160591,0,0,1.2160591,-14.304022,838.12818)"
         d="m 180,20 -10,10 v 140 l 10,10 z"
         style="fill:#808080;fill-rule:evenodd"
         id="path2833" />
      <path
         inkscape:connector-curvature="0"
         d="m 20,872.36 v 160 l 10,-10 v -140 z"
         style="fill:#999999;fill-rule:evenodd"
         id="path2831"
         transform="matrix(1.2160591,0,0,1.2160591,-14.304022,-198.3919)" />
      <path
         inkscape:connector-curvature="0"
         transform="matrix(1.2160591,0,0,1.2160591,-14.304022,838.12818)"
         d="M 20,20 30,30 H 170 L 180,20 Z"
         style="fill:#b3b3b3;fill-rule:evenodd"
         id="rect2818" />
      <rect
         x="30"
         y="882.35999"
         width="140"
         height="140"
         style="fill:#5b494d;fill-opacity:1;fill-rule:evenodd"
         id="rect2845"
         transform="matrix(1.2160591,0,0,1.2160591,-14.304022,-198.3919)" />
      <g
         transform="matrix(1.2160591,0,0,1.2160591,17.178471,-199.3914)"
         id="g924"
         style="">
        <g
           id="g919">
          <rect
             transform="matrix(1.1219185,0,0,0.99614785,-10.866967,3.674349)"
             y="896.73499"
             x="90.9375"
             height="114.21875"
             width="14.0625"
             id="rect820"
             style="color:#000000;clip-rule:nonzero;display:inline;overflow:visible;visibility:visible;opacity:1;isolation:auto;mix-blend-mode:normal;color-interpolation:sRGB;color-interpolation-filters:linearRGB;solid-color:#000000;solid-opacity:1;fill:#808080;fill-opacity:1;fill-rule:nonzero;stroke:none;stroke-width:0.71762753;stroke-linecap:round;stroke-linejoin:miter;stroke-miterlimit:4;stroke-dasharray:none;stroke-dashoffset:0;stroke-opacity:0.98994978;filter:url(#filter913);color-rendering:auto;image-rendering:auto;shape-rendering:auto;text-rendering:auto;enable-background:accumulate" />
          <rect
             y="897.68671"
             x="91.561424"
             height="112.8125"
             width="14.559684"
             id="rect820-2"
             style="color:#000000;clip-rule:nonzero;display:inline;overflow:visible;visibility:visible;opacity:1;isolation:auto;mix-blend-mode:normal;color-interpolation:sRGB;color-interpolation-filters:linearRGB;solid-color:#000000;solid-opacity:1;fill:#000000;fill-opacity:1;fill-rule:nonzero;stroke:none;stroke-width:0.7256943;stroke-linecap:round;stroke-linejoin:miter;stroke-miterlimit:4;stroke-dasharray:none;stroke-dashoffset:0;stroke-opacity:0.98994978;color-rendering:auto;image-rendering:auto;shape-rendering:auto;text-rendering:auto;enable-background:accumulate" />
        </g>
      </g>
      <path
         inkscape:connector-curvature="0"
         id="path4548"
         d="M 97.644496,889.50176 99.288243,1015.659"
         style="fill:none;stroke:#d43232;stroke-width:5.79644442;stroke-linecap:butt;stroke-linejoin:miter;stroke-miterlimit:4;stroke-dasharray:none;stroke-opacity:1"
         transform="matrix(1.2160591,0,0,1.2160591,-14.304022,-198.3919)" />
      <g
         id="text4552"
         style="font-style:normal;font-variant:normal;font-weight:normal;font-stretch:normal;font-size:10.90983582px;line-height:1.25;font-family:'OCR A Extended';-inkscape-font-specification:'OCR A Extended';letter-spacing:0px;word-spacing:0px;fill:#d43232;fill-opacity:1;stroke:none;stroke-width:0.27274591"
         transform="matrix(1.1843691,0,0,1.2485971,-14.304022,-198.3919)"
         aria-label="INSERT
COIN TO
PLAY">
        <path
           inkscape:connector-curvature="0"
           id="path4571"
           style="font-style:normal;font-variant:normal;font-weight:bold;font-stretch:normal;font-family:sans-serif;-inkscape-font-specification:sans-serif;text-align:center;text-anchor:middle;fill:#d43232;fill-opacity:1;stroke-width:0.27274591"
           d="m 47.867852,885.51312 h 2.050921 v 7.95331 h -2.050921 z" />
        <path
           inkscape:connector-curvature="0"
           id="path4573"
           style="font-style:normal;font-variant:normal;font-weight:bold;font-stretch:normal;font-family:sans-serif;-inkscape-font-specification:sans-serif;text-align:center;text-anchor:middle;fill:#d43232;fill-opacity:1;stroke-width:0.27274591"
           d="m 51.937732,885.51312 h 2.290639 l 2.892598,5.45492 v -5.45492 h 1.94438 v 7.95331 H 56.77471 l -2.892598,-5.45492 v 5.45492 h -1.94438 z" />
        <path
           inkscape:connector-curvature="0"
           id="path4575"
           style="font-style:normal;font-variant:normal;font-weight:bold;font-stretch:normal;font-family:sans-serif;-inkscape-font-specification:sans-serif;text-align:center;text-anchor:middle;fill:#d43232;fill-opacity:1;stroke-width:0.27274591"
           d="m 66.613804,885.76349 v 1.68335 q -0.655229,-0.29299 -1.278496,-0.44214 -0.623267,-0.14916 -1.177282,-0.14916 -0.735136,0 -1.086722,0.20243 -0.351587,0.20243 -0.351587,0.62859 0,0.31963 0.234391,0.50075 0.239718,0.17579 0.862985,0.30364 l 0.87364,0.17579 q 1.32644,0.26636 1.885782,0.80972 0.559342,0.54336 0.559342,1.54485 0,1.31578 -0.783079,1.96036 -0.777752,0.63925 -2.3812,0.63925 -0.756443,0 -1.518214,-0.14384 -0.761771,-0.14383 -1.523542,-0.42616 v -1.7313 q 0.761771,0.40486 1.470271,0.61262 0.713827,0.20242 1.374384,0.20242 0.67121,0 1.028124,-0.22373 0.356914,-0.22374 0.356914,-0.63925 0,-0.3729 -0.245046,-0.57532 -0.239718,-0.20243 -0.964199,-0.36225 l -0.793733,-0.17579 q -1.193263,-0.2557 -1.747279,-0.81504 -0.548688,-0.55934 -0.548688,-1.50756 0,-1.18794 0.767098,-1.82718 0.767098,-0.63925 2.205407,-0.63925 0.655229,0 1.347748,0.10121 0.692519,0.0959 1.432981,0.29299 z" />
        <path
           inkscape:connector-curvature="0"
           id="path4577"
           style="font-style:normal;font-variant:normal;font-weight:bold;font-stretch:normal;font-family:sans-serif;-inkscape-font-specification:sans-serif;text-align:center;text-anchor:middle;fill:#d43232;fill-opacity:1;stroke-width:0.27274591"
           d="m 68.941733,885.51312 h 5.534824 v 1.55017 h -3.483903 v 1.48093 h 3.276147 v 1.55018 h -3.276147 v 1.82185 h 3.601099 v 1.55018 h -5.65202 z" />
        <path
           inkscape:connector-curvature="0"
           id="path4579"
           style="font-style:normal;font-variant:normal;font-weight:bold;font-stretch:normal;font-family:sans-serif;-inkscape-font-specification:sans-serif;text-align:center;text-anchor:middle;fill:#d43232;fill-opacity:1;stroke-width:0.27274591"
           d="m 79.313535,889.03964 q 0.644575,0 0.921583,-0.23972 0.282334,-0.23972 0.282334,-0.78841 0,-0.54336 -0.282334,-0.77775 -0.277008,-0.23439 -0.921583,-0.23439 H 78.45055 v 2.04027 z m -0.862985,1.417 v 3.00979 h -2.050922 v -7.95331 h 3.132317 q 1.571485,0 2.301293,0.52738 0.735135,0.52738 0.735135,1.66737 0,0.78841 -0.383548,1.29448 -0.378222,0.50607 -1.14532,0.74579 0.420838,0.0959 0.751117,0.43682 0.335605,0.3356 0.676537,1.02279 l 1.113357,2.25868 h -2.184098 l -0.969526,-1.97634 q -0.292989,-0.59663 -0.596632,-0.81504 -0.298315,-0.21841 -0.79906,-0.21841 z" />
        <path
           inkscape:connector-curvature="0"
           id="path4581"
           style="font-style:normal;font-variant:normal;font-weight:bold;font-stretch:normal;font-family:sans-serif;-inkscape-font-specification:sans-serif;text-align:center;text-anchor:middle;fill:#d43232;fill-opacity:1;stroke-width:0.27274591"
           d="m 83.356779,885.51312 h 7.330046 v 1.55017 h -2.636899 v 6.40314 h -2.050921 v -6.40314 h -2.642226 z" />
        <path
           inkscape:connector-curvature="0"
           id="path4583"
           style="font-style:normal;font-variant:normal;font-weight:bold;font-stretch:normal;font-family:sans-serif;-inkscape-font-specification:sans-serif;text-align:center;text-anchor:middle;fill:#d43232;fill-opacity:1;stroke-width:0.27274591"
           d="m 50.616619,906.96246 q -0.564669,0.29299 -1.177282,0.44215 -0.612613,0.14915 -1.278496,0.14915 -1.986997,0 -3.148298,-1.10803 -1.1613,-1.11335 -1.1613,-3.01512 0,-1.90709 1.1613,-3.01512 1.161301,-1.11336 3.148298,-1.11336 0.665883,0 1.278496,0.14916 0.612613,0.14916 1.177282,0.44215 v 1.64606 q -0.569996,-0.38887 -1.124011,-0.56999 -0.554015,-0.18112 -1.166628,-0.18112 -1.097376,0 -1.72597,0.70317 -0.628594,0.70317 -0.628594,1.93905 0,1.23056 0.628594,1.93373 0.628594,0.70317 1.72597,0.70317 0.612613,0 1.166628,-0.18112 0.554015,-0.18112 1.124011,-0.57 z" />
        <path
           inkscape:connector-curvature="0"
           id="path4585"
           style="font-style:normal;font-variant:normal;font-weight:bold;font-stretch:normal;font-family:sans-serif;-inkscape-font-specification:sans-serif;text-align:center;text-anchor:middle;fill:#d43232;fill-opacity:1;stroke-width:0.27274591"
           d="m 55.954341,900.78839 q -0.937564,0 -1.454289,0.69252 -0.516726,0.69251 -0.516726,1.9497 0,1.25186 0.516726,1.94438 0.516725,0.69252 1.454289,0.69252 0.942891,0 1.459617,-0.69252 0.516726,-0.69252 0.516726,-1.94438 0,-1.25719 -0.516726,-1.9497 -0.516726,-0.69252 -1.459617,-0.69252 z m 0,-1.48626 q 1.917745,0 3.004467,1.09738 1.086722,1.09738 1.086722,3.0311 0,1.9284 -1.086722,3.02578 -1.086722,1.09737 -3.004467,1.09737 -1.912417,0 -3.004466,-1.09737 -1.086722,-1.09738 -1.086722,-3.02578 0,-1.93372 1.086722,-3.0311 1.092049,-1.09738 3.004466,-1.09738 z" />
        <path
           inkscape:connector-curvature="0"
           id="path4587"
           style="font-style:normal;font-variant:normal;font-weight:bold;font-stretch:normal;font-family:sans-serif;-inkscape-font-specification:sans-serif;text-align:center;text-anchor:middle;fill:#d43232;fill-opacity:1;stroke-width:0.27274591"
           d="m 61.59038,899.44597 h 2.050921 v 7.95331 H 61.59038 Z" />
        <path
           inkscape:connector-curvature="0"
           id="path4589"
           style="font-style:normal;font-variant:normal;font-weight:bold;font-stretch:normal;font-family:sans-serif;-inkscape-font-specification:sans-serif;text-align:center;text-anchor:middle;fill:#d43232;fill-opacity:1;stroke-width:0.27274591"
           d="m 65.66026,899.44597 h 2.290639 l 2.892598,5.45491 v -5.45491 h 1.94438 v 7.95331 h -2.290639 l -2.892598,-5.45492 v 5.45492 h -1.94438 z" />
        <path
           inkscape:connector-curvature="0"
           id="path4591"
           style="font-style:normal;font-variant:normal;font-weight:bold;font-stretch:normal;font-family:sans-serif;-inkscape-font-specification:sans-serif;text-align:center;text-anchor:middle;fill:#d43232;fill-opacity:1;stroke-width:0.27274591"
           d="m 77.646164,899.44597 h 7.330045 v 1.55017 h -2.636898 v 6.40314 h -2.050922 v -6.40314 h -2.642225 z" />
        <path
           inkscape:connector-curvature="0"
           id="path4593"
           style="font-style:normal;font-variant:normal;font-weight:bold;font-stretch:normal;font-family:sans-serif;-inkscape-font-specification:sans-serif;text-align:center;text-anchor:middle;fill:#d43232;fill-opacity:1;stroke-width:0.27274591"
           d="m 89.664031,900.78839 q -0.937564,0 -1.45429,0.69252 -0.516726,0.69251 -0.516726,1.9497 0,1.25186 0.516726,1.94438 0.516726,0.69252 1.45429,0.69252 0.942891,0 1.459616,-0.69252 0.516726,-0.69252 0.516726,-1.94438 0,-1.25719 -0.516726,-1.9497 -0.516725,-0.69252 -1.459616,-0.69252 z m 0,-1.48626 q 1.917744,0 3.004466,1.09738 1.086722,1.09738 1.086722,3.0311 0,1.9284 -1.086722,3.02578 -1.086722,1.09737 -3.004466,1.09737 -1.912418,0 -3.004467,-1.09737 -1.086722,-1.09738 -1.086722,-3.02578 0,-1.93372 1.086722,-3.0311 1.092049,-1.09738 3.004467,-1.09738 z" />
        <path
           inkscape:connector-curvature="0"
           id="path4595"
           style="font-style:normal;font-variant:normal;font-weight:bold;font-stretch:normal;font-family:sans-serif;-inkscape-font-specification:sans-serif;text-align:center;text-anchor:middle;fill:#d43232;fill-opacity:1;stroke-width:0.27274591"
           d="m 54.686499,913.37881 h 3.403997 q 1.518214,0 2.327929,0.67654 0.815041,0.67121 0.815041,1.91775 0,1.25186 -0.815041,1.92839 -0.809715,0.67121 -2.327929,0.67121 h -1.353075 v 2.75943 h -2.050922 z m 2.050922,1.48626 v 2.22138 h 1.134665 q 0.596632,0 0.921583,-0.28766 0.324951,-0.29299 0.324951,-0.82569 0,-0.53271 -0.324951,-0.82037 -0.324951,-0.28766 -0.921583,-0.28766 z" />
        <path
           inkscape:connector-curvature="0"
           id="path4597"
           style="font-style:normal;font-variant:normal;font-weight:bold;font-stretch:normal;font-family:sans-serif;-inkscape-font-specification:sans-serif;text-align:center;text-anchor:middle;fill:#d43232;fill-opacity:1;stroke-width:0.27274591"
           d="m 62.677102,913.37881 h 2.050921 v 6.40314 h 3.601098 v 1.55018 h -5.652019 z" />
        <path
           inkscape:connector-curvature="0"
           id="path4599"
           style="font-style:normal;font-variant:normal;font-weight:bold;font-stretch:normal;font-family:sans-serif;-inkscape-font-specification:sans-serif;text-align:center;text-anchor:middle;fill:#d43232;fill-opacity:1;stroke-width:0.27274591"
           d="m 74.449923,919.88316 h -3.206895 l -0.506072,1.44897 h -2.061575 l 2.945868,-7.95332 h 2.445125 l 2.945869,7.95332 h -2.061576 z m -2.695497,-1.47559 h 2.178771 l -1.086722,-3.16428 z" />
        <path
           inkscape:connector-curvature="0"
           id="path4601"
           style="font-style:normal;font-variant:normal;font-weight:bold;font-stretch:normal;font-family:sans-serif;-inkscape-font-specification:sans-serif;text-align:center;text-anchor:middle;fill:#d43232;fill-opacity:1;stroke-width:0.27274591"
           d="m 75.909539,913.37881 h 2.242696 l 1.811203,2.834 1.811203,-2.834 h 2.248023 l -3.031102,4.60259 v 3.35073 h -2.050921 v -3.35073 z" />
      </g>
      <g
         id="text4564"
         style="font-style:normal;font-variant:normal;font-weight:normal;font-stretch:normal;font-size:6.76375484px;line-height:1.25;font-family:'OCR A Extended';-inkscape-font-specification:'OCR A Extended';letter-spacing:0px;word-spacing:0px;fill:#d43232;fill-opacity:1;stroke:none;stroke-width:0.16909388"
         transform="matrix(1.0663607,0,0,1.3867725,-14.304022,-198.3919)"
         aria-label="PUSH TO REJECT">
        <path
           inkscape:connector-curvature="0"
           id="path4604"
           style="font-style:normal;font-variant:normal;font-weight:normal;font-stretch:normal;font-family:sans-serif;-inkscape-font-specification:sans-serif;text-align:center;text-anchor:middle;fill:#d43232;fill-opacity:1;stroke-width:0.16909388"
           d="m 50.335678,873.10394 v 1.85277 h 0.838864 q 0.465669,0 0.71997,-0.24109 0.254302,-0.24109 0.254302,-0.68695 0,-0.44255 -0.254302,-0.68364 -0.254301,-0.24109 -0.71997,-0.24109 z m -0.667128,-0.54823 h 1.505992 q 0.828957,0 1.251691,0.3765 0.426037,0.37319 0.426037,1.09646 0,0.72988 -0.426037,1.10308 -0.422734,0.37319 -1.251691,0.37319 h -0.838864 v 1.98157 H 49.66855 Z" />
        <path
           inkscape:connector-curvature="0"
           id="path4606"
           style="font-style:normal;font-variant:normal;font-weight:normal;font-stretch:normal;font-family:sans-serif;-inkscape-font-specification:sans-serif;text-align:center;text-anchor:middle;fill:#d43232;fill-opacity:1;stroke-width:0.16909388"
           d="m 53.674622,872.55571 h 0.67043 v 2.99547 q 0,0.79263 0.287328,1.1427 0.287327,0.34678 0.931337,0.34678 0.640707,0 0.928035,-0.34678 0.287327,-0.35007 0.287327,-1.1427 v -2.99547 h 0.670431 v 3.07803 q 0,0.96437 -0.478879,1.45646 -0.475577,0.49209 -1.406914,0.49209 -0.93464,0 -1.413519,-0.49209 -0.475576,-0.49209 -0.475576,-1.45646 z" />
        <path
           inkscape:connector-curvature="0"
           id="path4608"
           style="font-style:normal;font-variant:normal;font-weight:normal;font-stretch:normal;font-family:sans-serif;-inkscape-font-specification:sans-serif;text-align:center;text-anchor:middle;fill:#d43232;fill-opacity:1;stroke-width:0.16909388"
           d="m 61.660344,872.71754 v 0.65061 q -0.379801,-0.18164 -0.716668,-0.27081 -0.336866,-0.0892 -0.650615,-0.0892 -0.544931,0 -0.842167,0.21136 -0.293932,0.21137 -0.293932,0.60108 0,0.32696 0.194854,0.49539 0.198157,0.16513 0.746391,0.26751 l 0.402919,0.0826 q 0.746391,0.14201 1.099771,0.502 0.356682,0.35668 0.356682,0.95775 0,0.71667 -0.482182,1.08656 -0.478879,0.3699 -1.406914,0.3699 -0.350077,0 -0.746391,-0.0793 -0.393011,-0.0793 -0.815745,-0.23448 v -0.68695 q 0.406221,0.22789 0.79593,0.34348 0.389708,0.11559 0.766206,0.11559 0.571353,0 0.881798,-0.22458 0.310446,-0.22458 0.310446,-0.64071 0,-0.36328 -0.224578,-0.56805 -0.221275,-0.20476 -0.729877,-0.30714 l -0.406222,-0.0793 q -0.746391,-0.14862 -1.079955,-0.46567 -0.333564,-0.31705 -0.333564,-0.8818 0,-0.65392 0.459063,-1.03041 0.462366,-0.3765 1.271507,-0.3765 0.346775,0 0.70676,0.0627 0.359985,0.0628 0.736483,0.18825 z" />
        <path
           inkscape:connector-curvature="0"
           id="path4610"
           style="font-style:normal;font-variant:normal;font-weight:normal;font-stretch:normal;font-family:sans-serif;-inkscape-font-specification:sans-serif;text-align:center;text-anchor:middle;fill:#d43232;fill-opacity:1;stroke-width:0.16909388"
           d="m 62.997902,872.55571 h 0.667128 v 2.0212 h 2.42412 v -2.0212 h 0.667128 v 4.9308 H 66.08915 v -2.34816 h -2.42412 v 2.34816 h -0.667128 z" />
        <path
           inkscape:connector-curvature="0"
           id="path4612"
           style="font-style:normal;font-variant:normal;font-weight:normal;font-stretch:normal;font-family:sans-serif;-inkscape-font-specification:sans-serif;text-align:center;text-anchor:middle;fill:#d43232;fill-opacity:1;stroke-width:0.16909388"
           d="m 69.553592,872.55571 h 4.171203 v 0.56144 h -1.750386 v 4.36936 h -0.670431 v -4.36936 h -1.750386 z" />
        <path
           inkscape:connector-curvature="0"
           id="path4614"
           style="font-style:normal;font-variant:normal;font-weight:normal;font-stretch:normal;font-family:sans-serif;-inkscape-font-specification:sans-serif;text-align:center;text-anchor:middle;fill:#d43232;fill-opacity:1;stroke-width:0.16909388"
           d="m 76.373492,873.00817 q -0.726575,0 -1.155915,0.54162 -0.426037,0.54163 -0.426037,1.47627 0,0.93134 0.426037,1.47297 0.42934,0.54163 1.155915,0.54163 0.726576,0 1.14931,-0.54163 0.426038,-0.54163 0.426038,-1.47297 0,-0.93464 -0.426038,-1.47627 -0.422734,-0.54162 -1.14931,-0.54162 z m 0,-0.54163 q 1.037021,0 1.657913,0.69685 0.620892,0.69355 0.620892,1.86267 0,1.16583 -0.620892,1.86268 -0.620892,0.69355 -1.657913,0.69355 -1.040323,0 -1.664517,-0.69355 -0.620892,-0.69355 -0.620892,-1.86268 0,-1.16912 0.620892,-1.86267 0.624194,-0.69685 1.664517,-0.69685 z" />
        <path
           inkscape:connector-curvature="0"
           id="path4616"
           style="font-style:normal;font-variant:normal;font-weight:normal;font-stretch:normal;font-family:sans-serif;-inkscape-font-specification:sans-serif;text-align:center;text-anchor:middle;fill:#d43232;fill-opacity:1;stroke-width:0.16909388"
           d="m 84.187477,875.17468 q 0.21467,0.0727 0.416129,0.31045 0.204762,0.23778 0.409524,0.65391 l 0.677036,1.34747 h -0.716667 l -0.630799,-1.2649 q -0.244394,-0.49539 -0.475577,-0.65722 -0.22788,-0.16183 -0.624194,-0.16183 h -0.726575 v 2.08395 h -0.667129 v -4.9308 h 1.505993 q 0.845469,0 1.261599,0.35338 0.416129,0.35338 0.416129,1.06674 0,0.46567 -0.217973,0.77281 -0.21467,0.30715 -0.627496,0.42604 z m -1.671123,-2.07074 v 1.75039 h 0.838864 q 0.482181,0 0.726575,-0.22128 0.247696,-0.22458 0.247696,-0.65722 0,-0.43264 -0.247696,-0.65061 -0.244394,-0.22128 -0.726575,-0.22128 z" />
        <path
           inkscape:connector-curvature="0"
           id="path4618"
           style="font-style:normal;font-variant:normal;font-weight:normal;font-stretch:normal;font-family:sans-serif;-inkscape-font-specification:sans-serif;text-align:center;text-anchor:middle;fill:#d43232;fill-opacity:1;stroke-width:0.16909388"
           d="m 86.552148,872.55571 h 3.117669 v 0.56144 h -2.450541 v 1.45976 h 2.348159 v 0.56144 h -2.348159 v 1.78672 h 2.509988 v 0.56144 h -3.177116 z" />
        <path
           inkscape:connector-curvature="0"
           id="path4620"
           style="font-style:normal;font-variant:normal;font-weight:normal;font-stretch:normal;font-family:sans-serif;-inkscape-font-specification:sans-serif;text-align:center;text-anchor:middle;fill:#d43232;fill-opacity:1;stroke-width:0.16909388"
           d="m 90.832338,872.55571 h 0.667128 v 4.58733 q 0,0.89171 -0.340169,1.29462 -0.336867,0.40292 -1.086561,0.40292 h -0.254301 v -0.56144 H 90.0265 q 0.44255,0 0.624194,-0.2477 0.181644,-0.24769 0.181644,-0.8884 z" />
        <path
           inkscape:connector-curvature="0"
           id="path4622"
           style="font-style:normal;font-variant:normal;font-weight:normal;font-stretch:normal;font-family:sans-serif;-inkscape-font-specification:sans-serif;text-align:center;text-anchor:middle;fill:#d43232;fill-opacity:1;stroke-width:0.16909388"
           d="m 92.827119,872.55571 h 3.117669 v 0.56144 h -2.450541 v 1.45976 h 2.348159 v 0.56144 h -2.348159 v 1.78672 h 2.509988 v 0.56144 h -3.177116 z" />
        <path
           inkscape:connector-curvature="0"
           id="path4624"
           style="font-style:normal;font-variant:normal;font-weight:normal;font-stretch:normal;font-family:sans-serif;-inkscape-font-specification:sans-serif;text-align:center;text-anchor:middle;fill:#d43232;fill-opacity:1;stroke-width:0.16909388"
           d="m 100.79963,872.93551 v 0.70346 q -0.33687,-0.31375 -0.71997,-0.46898 -0.379802,-0.15522 -0.809142,-0.15522 -0.84547,0 -1.294625,0.51851 -0.449156,0.51521 -0.449156,1.49278 0,0.97427 0.449156,1.49279 0.449155,0.5152 1.294625,0.5152 0.42934,0 0.809142,-0.15522 0.3831,-0.15522 0.71997,-0.46897 v 0.69685 q -0.35008,0.23779 -0.74309,0.35668 -0.389709,0.1189 -0.825654,0.1189 -1.119586,0 -1.763596,-0.68364 -0.64401,-0.68695 -0.64401,-1.87259 0,-1.18894 0.64401,-1.87258 0.64401,-0.68694 1.763596,-0.68694 0.442551,0 0.832264,0.11889 0.39301,0.11559 0.73648,0.35008 z" />
        <path
           inkscape:connector-curvature="0"
           id="path4626"
           style="font-style:normal;font-variant:normal;font-weight:normal;font-stretch:normal;font-family:sans-serif;-inkscape-font-specification:sans-serif;text-align:center;text-anchor:middle;fill:#d43232;fill-opacity:1;stroke-width:0.16909388"
           d="m 101.15301,872.55571 h 4.1712 v 0.56144 h -1.75038 v 4.36936 h -0.67043 v -4.36936 h -1.75039 z" />
      </g>
      <rect
         y="883.24774"
         x="31.435488"
         height="154.50813"
         width="153.00896"
         id="rect4521"
         style="opacity:1;fill:none;fill-opacity:1;stroke:#d43232;stroke-width:5.4430027;stroke-linecap:round;stroke-linejoin:bevel;stroke-miterlimit:4;stroke-dasharray:none;stroke-dashoffset:1.21209455;stroke-opacity:1;paint-order:stroke fill markers" />
    </g>
    <g
       id="g6126"
       transform="matrix(0.46451724,0,0,0.45177809,106.87478,896.83809)">
      <g
         transform="matrix(-1,0,0,1,811.30435,23.367625)"
         id="g4290-3-4-9">
        <g
           id="g7387-0-1-0-6-9"
           transform="translate(-405.5012,-621.37519)">
          <path
             inkscape:connector-curvature="0"
             id="path9056-6-5-5-7-15-4-8-3"
             style="color:#000000;fill:#d5b04f"
             d="m 1074.2806,606.02876 c -42.3033,0 -76.58532,55.94287 -76.58532,124.96413 0,69.02621 34.28502,124.9827 76.58532,124.9827 2.0472,0 4.0759,-0.12971 6.0827,-0.38695 -39.4575,-5.05832 -70.5143,-58.91591 -70.5143,-124.59885 0,-65.68294 31.0575,-119.52202 70.5143,-124.58027 -2.0067,-0.25726 -4.0357,-0.38696 -6.0827,-0.38696 z" />
          <path
             style="fill:#c89c31;fill-rule:evenodd"
             inkscape:connector-curvature="0"
             id="path9058-2-1-7-2-0-9-9-1"
             d="m 1063.239,607.32273 c -4.8928,1.1533 -9.6339,3.06175 -14.1814,5.64951 3.2426,0.3127 7.1095,0.5001 11.2764,0.52239 4.1905,-2.47954 8.5483,-4.38855 13.0431,-5.64952 -2.9411,-0.28764 -6.4007,-0.47132 -10.1381,-0.52238 z m -14.1101,14.31726 c -4.6925,0 -9.0211,0.21786 -12.5688,0.58042 -1.5117,1.39861 -2.9893,2.87274 -4.4348,4.43058 2.808,0.50846 6.7076,0.8856 11.1933,1.06416 1.9477,-2.16929 3.9526,-4.2007 6.0236,-6.07516 -0.072,-10e-5 -0.1415,0 -0.2134,0 z m -13.399,14.35626 c -4.436,0.0644 -8.4682,0.32738 -11.7033,0.71583 -0.9851,1.39935 -1.9534,2.83596 -2.8932,4.31456 2.8971,0.50914 6.9129,0.87897 11.5015,1.04477 1.306,-2.10403 2.6596,-4.12758 4.0554,-6.07516 -0.3193,0.002 -0.6451,-0.004 -0.9605,0 z m -9.2248,14.31726 c -4.1344,0.06 -7.9226,0.29069 -11.0393,0.63844 -0.7723,1.50949 -1.5123,3.05544 -2.2411,4.62412 3.1076,0.45464 7.1828,0.77588 11.7508,0.88999 0.9571,-2.09784 1.9421,-4.15891 2.9762,-6.15255 -0.4844,-0.002 -0.9715,-0.007 -1.4466,0 z m -4.9684,14.31726 c -4.6329,0.0144 -8.8985,0.2322 -12.379,0.59977 -0.5974,1.57177 -1.176,3.16169 -1.7312,4.7789 3.2258,0.42057 7.3265,0.71206 11.8809,0.79323 0.7077,-2.09704 1.4511,-4.15049 2.2292,-6.17194 z m -7.0787,14.33645 c -3.5793,0 -6.9494,0.12845 -9.9245,0.34826 -0.4948,1.77527 -0.9545,3.57946 -1.3992,5.39802 3.2986,0.29024 7.1672,0.445 11.3239,0.445 0.2398,0 0.4734,10e-4 0.7114,0 0.5042,-2.08596 1.0426,-4.14257 1.6126,-6.17193 -0.7633,-0.0116 -1.5392,-0.0193 -2.324,-0.0193 z m -5.5849,14.33645 c -2.7057,0 -5.2825,0.0832 -7.6718,0.21282 -0.3615,1.87936 -0.6882,3.79109 -0.996,5.70759 2.6571,0.16612 5.5837,0.27087 8.6678,0.27087 1.173,0 2.3161,-0.013 3.4386,-0.0387 0.3274,-2.05456 0.6901,-4.08251 1.079,-6.09454 -1.4585,-0.0443 -2.9669,-0.058 -4.5175,-0.058 z m -6.6876,14.33645 c -1.0841,0.0157 -2.123,0.0587 -3.15404,0.0967 -0.22842,1.98015 -0.42238,3.96648 -0.59286,5.97839 1.8942,0.0774 3.8847,0.11609 5.9526,0.11609 2.1532,0 4.2254,-0.0518 6.1893,-0.13544 0.1682,-1.98194 0.3684,-3.94995 0.5929,-5.901 -2.1369,-0.10075 -4.4106,-0.15478 -6.7824,-0.15478 -0.7476,0 -1.4773,-0.0106 -2.2055,0 z m 2.2055,14.31726 c -2.2651,0 -4.44548,0.0432 -6.49784,0.13543 -0.0844,1.95768 -0.13747,3.9195 -0.16601,5.901 2.10151,0.0972 4.33615,0.15479 6.66365,0.15479 1.9011,0 3.7324,-0.031 5.4901,-0.0967 0.029,-2.01457 0.08,-4.00784 0.166,-5.99777 -1.8071,-0.0698 -3.6951,-0.0967 -5.6559,-0.0967 z m 0,14.33645 c -2.3097,0 -4.52895,0.0591 -6.61661,0.15478 0.0522,1.97972 0.1292,3.94624 0.23715,5.901 2.01796,0.0888 4.15786,0.13544 6.37906,0.13544 2.008,0 3.9405,-0.043 5.7864,-0.11609 -0.1094,-1.97847 -0.1967,-3.97447 -0.249,-5.97839 -1.7717,-0.0669 -3.6192,-0.0967 -5.5375,-0.0967 z m 0,14.33645 c -1.9908,0 -3.9078,0.0442 -5.73897,0.11609 0.19605,2.01488 0.42155,4.01614 0.67589,5.99777 1.62758,0.0558 3.31578,0.0774 5.06318,0.0774 2.4876,0 4.8648,-0.0638 7.0909,-0.17413 -0.2486,-1.94455 -0.4833,-3.90513 -0.6758,-5.88168 -2.0289,-0.0898 -4.1807,-0.13544 -6.4148,-0.13544 z m -2.2055,14.33645 c -0.5543,0.008 -1.0714,0.0247 -1.6126,0.0387 0.3568,2.0628 0.7429,4.11514 1.162,6.13317 0.8717,0.0153 1.7557,0.0193 2.6561,0.0193 3.3923,0 6.59,-0.11078 9.4502,-0.30956 -0.3837,-1.86134 -0.7483,-3.73079 -1.079,-5.6302 -2.5773,-0.15451 -5.4032,-0.25152 -8.3711,-0.25152 -0.7476,0 -1.4773,-0.0106 -2.2055,0 z m 8.3594,14.31726 c -2.4075,0 -4.7138,0.0511 -6.8773,0.15478 0.5164,2.00188 1.0589,3.99255 1.6364,5.93976 1.6818,0.0599 3.4295,0.0967 5.2407,0.0967 2.4164,0 4.7297,-0.0504 6.9012,-0.15478 -0.5779,-1.95049 -1.1197,-3.93435 -1.6364,-5.93976 -1.6895,-0.0604 -3.4447,-0.0967 -5.2646,-0.0967 z m 2.241,14.33645 c -1.6405,0 -3.23,0.028 -4.7664,0.0774 0.7366,2.06862 1.518,4.10338 2.324,6.09454 0.8022,0.0129 1.6166,0.0193 2.4426,0.0193 3.4485,0 6.6982,-0.1239 9.5925,-0.32891 -0.7475,-1.8583 -1.4707,-3.74335 -2.158,-5.66883 -2.3225,-0.12158 -4.8181,-0.19347 -7.4347,-0.19347 z m 10.0668,14.33646 c -3.1306,0 -6.0975,0.1 -8.7862,0.27086 0.9579,1.98615 1.9596,3.91789 2.9881,5.8043 1.8494,0.0734 3.7861,0.11608 5.7981,0.11608 2.2087,0 4.3358,-0.0476 6.3438,-0.13543 -1.0649,-1.95408 -2.0937,-3.95621 -3.0829,-6.01715 -1.0661,-0.0231 -2.1496,-0.0387 -3.2607,-0.0387 z m 5.5849,14.31725 c -2.2172,0 -4.3528,0.0469 -6.3673,0.13544 1.3768,2.09524 2.8001,4.10962 4.2687,6.03646 0.6903,0.009 1.3911,0.0193 2.0988,0.0193 3.5371,0 6.867,-0.11392 9.8179,-0.32891 -1.3914,-1.84029 -2.7471,-3.75406 -4.0555,-5.74622 -1.8388,-0.0725 -3.7632,-0.11609 -5.7628,-0.11609 z m 13.9917,14.33646 c -3.1492,0 -6.1324,0.098 -8.8336,0.27086 2.074,2.12688 4.2132,4.09997 6.4147,5.901 0.7945,0.0126 1.6011,0.0193 2.4189,0.0193 3.369,0 6.5468,-0.11334 9.3911,-0.30956 -2.1567,-1.78754 -4.2634,-3.74181 -6.2964,-5.84299 -1.0132,-0.0208 -2.0415,-0.0387 -3.0948,-0.0387 z m 18.7229,14.33645 c -2.8169,0 -5.4992,0.0923 -7.9681,0.23217 6.7023,3.12763 13.7879,4.79822 21.1061,4.79822 1.7153,0 3.4113,-0.09 5.0988,-0.27087 0.2358,-0.0526 0.4621,-0.10024 0.6759,-0.15478 -5.1824,-0.69844 -10.2205,-2.24835 -15.0591,-4.54667 -1.2531,-0.0322 -2.536,-0.0582 -3.8535,-0.0582 z" />
        </g>
        <g
           transform="translate(-415.5012,-621.37519)"
           id="use7391-6-3-3-0-5">
          <path
             d="m 1074.2806,606.02876 c -42.3033,0 -76.58532,55.94287 -76.58532,124.96413 0,69.02621 34.28502,124.9827 76.58532,124.9827 2.0472,0 4.0759,-0.12971 6.0827,-0.38695 -39.4575,-5.05832 -70.5143,-58.91591 -70.5143,-124.59885 0,-65.68294 31.0575,-119.52202 70.5143,-124.58027 -2.0067,-0.25726 -4.0357,-0.38696 -6.0827,-0.38696 z"
             style="color:#000000;fill:#d5b04f"
             id="path7395-5-3-7-3-7"
             inkscape:connector-curvature="0" />
          <path
             d="m 1063.239,607.32273 c -4.8928,1.1533 -9.6339,3.06175 -14.1814,5.64951 3.2426,0.3127 7.1095,0.5001 11.2764,0.52239 4.1905,-2.47954 8.5483,-4.38855 13.0431,-5.64952 -2.9411,-0.28764 -6.4007,-0.47132 -10.1381,-0.52238 z m -14.1101,14.31726 c -4.6925,0 -9.0211,0.21786 -12.5688,0.58042 -1.5117,1.39861 -2.9893,2.87274 -4.4348,4.43058 2.808,0.50846 6.7076,0.8856 11.1933,1.06416 1.9477,-2.16929 3.9526,-4.2007 6.0236,-6.07516 -0.072,-10e-5 -0.1415,0 -0.2134,0 z m -13.399,14.35626 c -4.436,0.0644 -8.4682,0.32738 -11.7033,0.71583 -0.9851,1.39935 -1.9534,2.83596 -2.8932,4.31456 2.8971,0.50914 6.9129,0.87897 11.5015,1.04477 1.306,-2.10403 2.6596,-4.12758 4.0554,-6.07516 -0.3193,0.002 -0.6451,-0.004 -0.9605,0 z m -9.2248,14.31726 c -4.1344,0.06 -7.9226,0.29069 -11.0393,0.63844 -0.7723,1.50949 -1.5123,3.05544 -2.2411,4.62412 3.1076,0.45464 7.1828,0.77588 11.7508,0.88999 0.9571,-2.09784 1.9421,-4.15891 2.9762,-6.15255 -0.4844,-0.002 -0.9715,-0.007 -1.4466,0 z m -4.9684,14.31726 c -4.6329,0.0144 -8.8985,0.2322 -12.379,0.59977 -0.5974,1.57177 -1.176,3.16169 -1.7312,4.7789 3.2258,0.42057 7.3265,0.71206 11.8809,0.79323 0.7077,-2.09704 1.4511,-4.15049 2.2292,-6.17194 z m -7.0787,14.33645 c -3.5793,0 -6.9494,0.12845 -9.9245,0.34826 -0.4948,1.77527 -0.9545,3.57946 -1.3992,5.39802 3.2986,0.29024 7.1672,0.445 11.3239,0.445 0.2398,0 0.4734,10e-4 0.7114,0 0.5042,-2.08596 1.0426,-4.14257 1.6126,-6.17193 -0.7633,-0.0116 -1.5392,-0.0193 -2.324,-0.0193 z m -5.5849,14.33645 c -2.7057,0 -5.2825,0.0832 -7.6718,0.21282 -0.3615,1.87936 -0.6882,3.79109 -0.996,5.70759 2.6571,0.16612 5.5837,0.27087 8.6678,0.27087 1.173,0 2.3161,-0.013 3.4386,-0.0387 0.3274,-2.05456 0.6901,-4.08251 1.079,-6.09454 -1.4585,-0.0443 -2.9669,-0.058 -4.5175,-0.058 z m -6.6876,14.33645 c -1.0841,0.0157 -2.123,0.0587 -3.15404,0.0967 -0.22842,1.98015 -0.42238,3.96648 -0.59286,5.97839 1.8942,0.0774 3.8847,0.11609 5.9526,0.11609 2.1532,0 4.2254,-0.0518 6.1893,-0.13544 0.1682,-1.98194 0.3684,-3.94995 0.5929,-5.901 -2.1369,-0.10075 -4.4106,-0.15478 -6.7824,-0.15478 -0.7476,0 -1.4773,-0.0106 -2.2055,0 z m 2.2055,14.31726 c -2.2651,0 -4.44548,0.0432 -6.49784,0.13543 -0.0844,1.95768 -0.13747,3.9195 -0.16601,5.901 2.10151,0.0972 4.33615,0.15479 6.66365,0.15479 1.9011,0 3.7324,-0.031 5.4901,-0.0967 0.029,-2.01457 0.08,-4.00784 0.166,-5.99777 -1.8071,-0.0698 -3.6951,-0.0967 -5.6559,-0.0967 z m 0,14.33645 c -2.3097,0 -4.52895,0.0591 -6.61661,0.15478 0.0522,1.97972 0.1292,3.94624 0.23715,5.901 2.01796,0.0888 4.15786,0.13544 6.37906,0.13544 2.008,0 3.9405,-0.043 5.7864,-0.11609 -0.1094,-1.97847 -0.1967,-3.97447 -0.249,-5.97839 -1.7717,-0.0669 -3.6192,-0.0967 -5.5375,-0.0967 z m 0,14.33645 c -1.9908,0 -3.9078,0.0442 -5.73897,0.11609 0.19605,2.01488 0.42155,4.01614 0.67589,5.99777 1.62758,0.0558 3.31578,0.0774 5.06318,0.0774 2.4876,0 4.8648,-0.0638 7.0909,-0.17413 -0.2486,-1.94455 -0.4833,-3.90513 -0.6758,-5.88168 -2.0289,-0.0898 -4.1807,-0.13544 -6.4148,-0.13544 z m -2.2055,14.33645 c -0.5543,0.008 -1.0714,0.0247 -1.6126,0.0387 0.3568,2.0628 0.7429,4.11514 1.162,6.13317 0.8717,0.0153 1.7557,0.0193 2.6561,0.0193 3.3923,0 6.59,-0.11078 9.4502,-0.30956 -0.3837,-1.86134 -0.7483,-3.73079 -1.079,-5.6302 -2.5773,-0.15451 -5.4032,-0.25152 -8.3711,-0.25152 -0.7476,0 -1.4773,-0.0106 -2.2055,0 z m 8.3594,14.31726 c -2.4075,0 -4.7138,0.0511 -6.8773,0.15478 0.5164,2.00188 1.0589,3.99255 1.6364,5.93976 1.6818,0.0599 3.4295,0.0967 5.2407,0.0967 2.4164,0 4.7297,-0.0504 6.9012,-0.15478 -0.5779,-1.95049 -1.1197,-3.93435 -1.6364,-5.93976 -1.6895,-0.0604 -3.4447,-0.0967 -5.2646,-0.0967 z m 2.241,14.33645 c -1.6405,0 -3.23,0.028 -4.7664,0.0774 0.7366,2.06862 1.518,4.10338 2.324,6.09454 0.8022,0.0129 1.6166,0.0193 2.4426,0.0193 3.4485,0 6.6982,-0.1239 9.5925,-0.32891 -0.7475,-1.8583 -1.4707,-3.74335 -2.158,-5.66883 -2.3225,-0.12158 -4.8181,-0.19347 -7.4347,-0.19347 z m 10.0668,14.33646 c -3.1306,0 -6.0975,0.1 -8.7862,0.27086 0.9579,1.98615 1.9596,3.91789 2.9881,5.8043 1.8494,0.0734 3.7861,0.11608 5.7981,0.11608 2.2087,0 4.3358,-0.0476 6.3438,-0.13543 -1.0649,-1.95408 -2.0937,-3.95621 -3.0829,-6.01715 -1.0661,-0.0231 -2.1496,-0.0387 -3.2607,-0.0387 z m 5.5849,14.31725 c -2.2172,0 -4.3528,0.0469 -6.3673,0.13544 1.3768,2.09524 2.8001,4.10962 4.2687,6.03646 0.6903,0.009 1.3911,0.0193 2.0988,0.0193 3.5371,0 6.867,-0.11392 9.8179,-0.32891 -1.3914,-1.84029 -2.7471,-3.75406 -4.0555,-5.74622 -1.8388,-0.0725 -3.7632,-0.11609 -5.7628,-0.11609 z m 13.9917,14.33646 c -3.1492,0 -6.1324,0.098 -8.8336,0.27086 2.074,2.12688 4.2132,4.09997 6.4147,5.901 0.7945,0.0126 1.6011,0.0193 2.4189,0.0193 3.369,0 6.5468,-0.11334 9.3911,-0.30956 -2.1567,-1.78754 -4.2634,-3.74181 -6.2964,-5.84299 -1.0132,-0.0208 -2.0415,-0.0387 -3.0948,-0.0387 z m 18.7229,14.33645 c -2.8169,0 -5.4992,0.0923 -7.9681,0.23217 6.7023,3.12763 13.7879,4.79822 21.1061,4.79822 1.7153,0 3.4113,-0.09 5.0988,-0.27087 0.2358,-0.0526 0.4621,-0.10024 0.6759,-0.15478 -5.1824,-0.69844 -10.2205,-2.24835 -15.0591,-4.54667 -1.2531,-0.0322 -2.536,-0.0582 -3.8535,-0.0582 z"
             id="path7397-8-3-2-3-8"
             inkscape:connector-curvature="0"
             style="fill:#c89c31;fill-rule:evenodd" />
        </g>
      </g>
      <path
         inkscape:connector-curvature="0"
         id="path9060-8-8-9-4-5-9-8"
         style="color:#000000;fill:#eed175"
         d="m 53.73758,132.99131 c 0,69.02333 34.2928,124.97879 76.5942,124.97879 42.3015,0 76.5943,-55.95546 76.5943,-124.97879 0,-69.02333 -34.2928,-124.9787916 -76.5943,-124.9787916 -42.3014,0 -76.5942,55.9554716 -76.5942,124.9787916 z" />
      <path
         inkscape:connector-curvature="0"
         id="path9062-1-1-4-3-2-0-4"
         style="color:#000000;fill:#c89c31"
         d="m 55.67218,133.91059 c 0,67.25927 33.4163,121.78465 74.6367,121.78465 41.2204,0 74.6367,-54.52538 74.6367,-121.78465 0,-67.25926 -33.4163,-121.78464 -74.6367,-121.78464 -41.2204,0 -74.6367,54.52538 -74.6367,121.78464 z" />
      <path
         inkscape:connector-curvature="0"
         id="path9064-0-6-95-3-3-8-8"
         style="color:#000000;fill:#ebc859"
         d="m 58.07818,134.19217 c 0,65.11062 32.3488,117.89415 72.2524,117.89415 39.9035,0 72.2524,-52.78353 72.2524,-117.89415 0,-65.11061 -32.3489,-117.89414 -72.2524,-117.89414 -39.9036,0 -72.2524,52.78353 -72.2524,117.89414 z" />
      <path
         inkscape:connector-curvature="0"
         id="path9066-4-4-8-4-3-5-0"
         style="color:#000000;fill:#d2aa48"
         d="m 182.83908,52.17955 c 27.4055,47.32651 26.8922,121.68896 -2.1124,166.40834 -7.8334,12.07726 -16.277,22.23586 -26.6337,26.75547 6.3612,-5.37697 11.7689,-12.76387 17.237,-21.19449 31.4647,-48.5109 32.9259,-129.35372 3.2705,-180.561525 -2.8627,-4.94359 -6.0656,-8.538355 -9.265,-12.567005 6.2827,5.714285 12.3017,12.176335 17.5037,21.15922 z" />
      <path
         inkscape:connector-curvature="0"
         id="path9068-5-4-4-2-1-4-2"
         style="color:#000000;fill:#f7e587"
         d="M 86.50048,228.26481 C 54.72958,188.86928 48.53788,114.90927 72.68218,63.06995 c 6.5206,-14.00088 14.5976,-24.941425 23.5242,-32.69907 -5.7382,6.998595 -10.996,15.392685 -15.5481,25.16618 -26.192,56.2382 -19.5497,136.38698 14.8295,179.01372 3.3187,4.1152 6.7741,7.72234 10.3332,10.84459 -6.7699,-3.96494 -13.2902,-9.65092 -19.3209,-17.12933 z" />
      <rect
         y="103.50612"
         x="203.99089"
         height="27.5"
         width="34.136597"
         id="rect5318-9-4-0-2-0"
         style="opacity:0.60082302;fill:#ffffff;fill-opacity:1;fill-rule:nonzero;stroke:none;filter:url(#filter5849)" />
    </g>
  </g>
  <metadata
     id="metadata10">
    <rdf:RDF>
      <cc:Work>
        <dc:format>image/svg+xml</dc:format>
        <dc:type
           rdf:resource="http://purl.org/dc/dcmitype/StillImage" />
        <cc:license
           rdf:resource="http://creativecommons.org/publicdomain/zero/1.0/" />
        <dc:publisher>
          <cc:Agent
             rdf:about="http://openclipart.org/">
            <dc:title>Openclipart</dc:title>
          </cc:Agent>
        </dc:publisher>
        <dc:title></dc:title>
        <dc:date>2010-08-11T13:36:50</dc:date>
        <dc:description>Beveled square</dc:description>
        <dc:source>https://openclipart.org/detail/79453/beveled-square-by-jhnri4</dc:source>
        <dc:creator>
          <cc:Agent>
            <dc:title>jhnri4</dc:title>
          </cc:Agent>
        </dc:creator>
        <dc:subject>
          <rdf:Bag>
            <rdf:li>bevel</rdf:li>
            <rdf:li>grey</rdf:li>
            <rdf:li>inkscape</rdf:li>
            <rdf:li>rectangle</rdf:li>
            <rdf:li>square</rdf:li>
          </rdf:Bag>
        </dc:subject>
      </cc:Work>
      <cc:License
         rdf:about="http://creativecommons.org/publicdomain/zero/1.0/">
        <cc:permits
           rdf:resource="http://creativecommons.org/ns#Reproduction" />
        <cc:permits
           rdf:resource="http://creativecommons.org/ns#Distribution" />
        <cc:permits
           rdf:resource="http://creativecommons.org/ns#DerivativeWorks" />
      </cc:License>
    </rdf:RDF>
  </metadata>
</svg>
