<svg width="576.554" height="568.415" viewBox="0 0 152.547 150.393" xmlns:xlink="http://www.w3.org/1999/xlink" xmlns="http://www.w3.org/2000/svg"><defs><pattern xlink:href="#a" id="b" patternTransform="matrix(.0739 0 0 .0739 308.857 -15.607)"/><pattern patternUnits="userSpaceOnUse" width="76.5" height="76.5" patternTransform="translate(1202.219 322.656)" id="a"><path d="M38.249.01v76.493M76.495 38.257H.003" fill="none" stroke="#fff" stroke-width=".269"/></pattern></defs><path style="marker:none" color="#000" overflow="visible" fill="#2c71b8" d="M0 0h152.547v150.393H0z"/><path d="M42.066 7.687c-18.485 0-33.493 15.006-33.493 33.492v68.53c0 18.484 15.008 33.49 33.493 33.49h68.53c18.485 0 33.49-15.006 33.49-33.492v-68.53c0-18.484-15.006-33.49-33.49-33.49z" clip-rule="evenodd" fill="none" stroke="#fff" stroke-width="1.28"/><path style="line-height:normal;font-variant-ligatures:normal;font-variant-position:normal;font-variant-caps:normal;font-variant-numeric:normal;font-variant-alternates:normal;font-feature-settings:normal;text-indent:0;text-align:start;text-decoration-line:none;text-decoration-style:solid;text-decoration-color:#000;text-transform:none;text-orientation:mixed;white-space:normal;shape-padding:0;isolation:auto;mix-blend-mode:normal;solid-color:#000;solid-opacity:1" d="M79.8 32.53a2.855 2.855 0 00-2.581 1.758L60.153 75.332a2.855 2.855 0 00-.017.064h6.176l13.522-32.53 30.218 73.683a2.855 2.855 0 105.284-2.168L82.495 34.3a2.855 2.855 0 00-2.696-1.771zM52.138 94.663l-8.191 19.705a2.855 2.855 0 105.273 2.192l9.07-21.821a2.855 2.855 0 00.028-.076z" fill="none" stroke="#fff" stroke-width="2.117"/><path style="line-height:normal;font-variant-ligatures:normal;font-variant-position:normal;font-variant-caps:normal;font-variant-numeric:normal;font-variant-alternates:normal;font-feature-settings:normal;text-indent:0;text-align:start;text-decoration-line:none;text-decoration-style:solid;text-decoration-color:#000;text-transform:none;text-orientation:mixed;white-space:normal;shape-padding:0;isolation:auto;mix-blend-mode:normal;solid-color:#000;solid-opacity:1" d="M36.058 88.952a2.855 2.855 0 100 5.711h32.978a2.855 2.855 0 100-5.71zm6.037-13.556a2.855 2.855 0 100 5.71h32.973a2.855 2.855 0 100-5.71z" fill="none" stroke="#fff" stroke-width="2.117"/><path style="marker:none" d="M26.007 66.584c-6.337-5.506-10.344-13.625-10.344-22.679 0-16.585 13.445-30.03 30.03-30.03a29.916 29.916 0 0119.56 7.241" overflow="visible" fill="none" stroke="#fff" stroke-width=".529" stroke-dasharray="1.05833,2.11667"/><path d="M65.509 22.327l-2.969-1.445 1.765-1.643 1.204 3.088" fill="#fff" stroke="#fff" stroke-width=".529" stroke-linecap="round" stroke-linejoin="round"/><path style="font-variation-settings:normal;-inkscape-stroke:none;marker:none" d="M79.834 130.446V17.66" color="#000" overflow="visible" fill="none" stroke="#fff" stroke-width=".529" stroke-dasharray="1.05833,2.11667"/><path style="font-variation-settings:normal;-inkscape-stroke:none;marker:none" d="M124.59 110.927a12.378 12.378 0 01-1.03 10.246c-3.453 5.92-11.05 7.919-16.968 4.466a12.358 12.358 0 01-5.473-6.656m-65.998-8.056a12.378 12.378 0 001.03 10.246c3.452 5.92 11.05 7.919 16.968 4.466a12.358 12.358 0 005.472-6.656" overflow="visible" fill="none" stroke="#fff" stroke-width=".529" stroke-dasharray="1.05833,2.11667"/><path style="font-variation-settings:normal;-inkscape-stroke:none;marker:none" d="M115.731 123.372L72.666 19.13M43.653 123.372L86.717 19.13" color="#000" overflow="visible" fill="none" stroke="#fff" stroke-width=".529" stroke-dasharray="1.05833,2.11667"/><path style="marker:none" color="#000" overflow="visible" fill="url(#b)" d="M-21.192-72.156h302.36v302.36h-302.36z"/></svg>