<svg width="2275.551" height="2275.55" viewBox="0 0 602.073 602.073" xmlns:xlink="http://www.w3.org/1999/xlink" xmlns="http://www.w3.org/2000/svg"><defs><pattern xlink:href="#a" id="b" patternTransform="translate(1202.219 322.656) scale(.27934)"/><pattern patternUnits="userSpaceOnUse" width="76.5" height="76.5" patternTransform="translate(1202.219 322.656)" id="a"><path d="M38.249.01v76.493M76.495 38.257H.003" fill="none" stroke="#fff" stroke-width=".269"/></pattern></defs><g color="#000"><path style="marker:none" overflow="visible" fill="#2c71b8" d="M0 0h302.36v302.36H0z"/><path style="marker:none" overflow="visible" fill="url(#b)" d="M-45.207 108.927h1142.775v1142.775H-45.207z" transform="matrix(.26458 0 0 .26458 11.96 -28.82)"/><path style="marker:none" overflow="visible" fill="#2c71b8" d="M299.714 0h302.359v302.36h-302.36z"/><path style="marker:none" overflow="visible" fill="url(#b)" d="M-45.207 108.927h1142.775v1142.775H-45.207z" transform="matrix(.26458 0 0 .26458 311.674 -28.82)"/><g><path style="marker:none" overflow="visible" fill="#2c71b8" d="M0 299.713h302.36v302.36H0z"/><path style="marker:none" overflow="visible" fill="url(#b)" d="M-45.207 108.927h1142.775v1142.775H-45.207z" transform="matrix(.26458 0 0 .26458 11.96 270.893)"/></g><g><path style="marker:none" overflow="visible" fill="#2c71b8" d="M299.714 299.713h302.359v302.36h-302.36z"/><path style="marker:none" overflow="visible" fill="url(#b)" d="M-45.207 108.927h1142.775v1142.775H-45.207z" transform="matrix(.26458 0 0 .26458 311.674 270.893)"/></g></g><g stroke-width="1.493" fill="none" stroke="#fff"><path style="font-variation-settings:normal;mix-blend-mode:normal" d="M310.992 104.943v11.254h5.627v-11.254zm5.627 11.254v5.627h11.253v5.626h5.627v11.254h5.626v5.627h5.627v-5.627h5.627V127.45h5.627v-5.626h11.253v-5.627h-11.253v-5.627h-5.627v-5.627h-5.627v5.627h-5.627v-5.627H333.5v5.627h-5.627v5.627h-5.627zm50.64 0h5.627v-11.254h-5.627v5.627zm-33.76 0h5.626v5.627H333.5zm11.253 0h5.627v5.627h-5.627z" stroke-width="1.58753676"/><path style="font-variation-settings:normal;mix-blend-mode:normal" d="M333.499 121.824h5.626v-5.627H333.5zM344.752 121.824h5.627v-5.627h-5.627zM310.992 121.824v11.253h5.627v5.627h11.253v-5.627h5.627v-5.627h-16.88v-5.626zm56.267 0v5.626h-16.88v5.627h5.627v5.627h11.253v-5.627h5.627v-11.253z" stroke-width="1.58753676"/></g><g stroke-width="1.493" fill="none" stroke="#fff"><path style="font-variation-settings:normal;mix-blend-mode:normal" d="M237.844 104.943v11.254h-5.627v5.627h-11.253v-5.627h-5.627v11.253h16.88v5.627h5.627v11.254h5.627v5.626h5.627v-5.626h5.626v-11.254h5.627v-5.627h16.88v-11.253h-5.626v5.627H260.35v-5.627h-5.627v-11.254h-5.626v11.254h-5.627v-11.254zm0 16.88h5.627v5.627h-5.627zm11.254 0h5.626v5.627h-5.626z" stroke-width="1.58753676"/><path style="font-variation-settings:normal;mix-blend-mode:normal" d="M237.844 127.45h5.627v-5.626h-5.627zM249.098 127.45h5.626v-5.626h-5.626zM220.964 133.077v5.627h-5.627v11.253h11.254v-5.626h5.626v-5.627h5.627v-5.627h-11.253zm33.76 0v5.627h5.627v5.627h5.627v5.626h11.253v-11.253h-5.626v-5.627H260.35z" stroke-width="1.58753676"/></g><g stroke-width="1.493" fill="none" stroke="#fff"><path style="font-variation-settings:normal;mix-blend-mode:normal" d="M142.19 104.944v11.253h-16.881v-5.627h-5.626v11.254h16.88v16.88h5.627v5.627h5.626v5.626h5.627v-5.626h5.627v-5.627h5.627v-16.88h16.88V110.57h-5.627v5.627h-16.88v-11.253h-5.627v11.253h-5.627v-11.253zm0 16.88h5.626v5.626h-5.626zm11.253 0h5.627v5.626h-5.627z" stroke-width="1.58753676"/><path style="font-variation-settings:normal;mix-blend-mode:normal" d="M142.19 127.45h5.626v-5.626h-5.627zM153.443 127.45h5.627v-5.626h-5.627zM119.683 127.45v16.881h5.626v-5.627h5.627v-5.627h5.627v-5.627h-11.254zm45.014 0v5.627h5.626v5.627h5.627v5.627h5.627V127.45h-11.254z" stroke-width="1.58753676"/></g><g stroke-width="1.493" fill="none" stroke="#fff"><path style="font-variation-settings:normal;mix-blend-mode:normal" d="M220.964 48.676v11.253h5.627v5.627h5.626v5.627h5.627v-5.627h5.627V93.69h5.627V65.556h5.626v5.627h5.627v-5.627h5.627V59.93h5.627V48.676h-5.627v5.627h-11.254v-5.627h-5.626v11.253h-5.627V48.676h-5.627v5.627h-11.253v-5.627z" stroke-width="1.58753676"/><path style="font-variation-settings:normal;mix-blend-mode:normal" d="M243.47 31.796v5.626h-5.626v5.627h-5.627v5.627h-5.626v5.627h11.253v-5.627h5.627v11.253h5.627V48.676h5.626v5.627h11.254v-5.627h-5.627v-5.627h-5.627v-5.627h-5.626v-5.626z" stroke-width="1.58753676"/><path style="font-variation-settings:normal;mix-blend-mode:normal" d="M215.337 37.422v28.134h5.627v5.627h5.627v5.627h5.626v5.626h5.627V71.183h-5.627v-5.627h-5.626V59.93h-5.627V37.422zm56.268 0V59.93h-5.627v5.627h-5.627v5.627h-5.627v11.253h5.627V76.81h5.627v-5.627h5.627v-5.627h5.626V37.422z" stroke-width="1.58753676"/><path style="font-variation-settings:normal;mix-blend-mode:normal" d="M215.337 37.422v28.134h5.627v5.627h5.627v5.627h5.626v5.626h5.627V71.183h-5.627v-5.627h-5.626V59.93h-5.627V37.422zm56.268 0V59.93h-5.627v5.627h-5.627v5.627h-5.627v11.253h5.627V76.81h5.627v-5.627h5.627v-5.627h5.626V37.422z" stroke-width="1.58753676"/></g><g stroke-width="1.493" fill="none" stroke="#fff"><path style="font-variation-settings:normal;mix-blend-mode:normal" d="M513.554 48.676v11.253h5.627v5.627h5.627v5.627h5.627v-5.627h5.626V93.69h5.627V65.556h5.627v5.627h5.627v-5.627h5.626V59.93h5.627V48.676h-5.627v5.627h-11.253v-5.627h-5.627v11.253h-5.627V48.676h-5.626v5.627H519.18v-5.627z" stroke-width="1.58753676"/><path style="font-variation-settings:normal;mix-blend-mode:normal" d="M536.061 31.796v5.626h-5.626v5.627h-5.627v5.627h-5.627v5.627h11.254v-5.627h5.626v11.253h5.627V48.676h5.627v5.627h11.253v-5.627h-5.626v-5.627h-5.627v-5.627h-5.627v-5.626z" stroke-width="1.58753676"/><path style="font-variation-settings:normal;mix-blend-mode:normal" d="M507.928 37.422v28.134h5.626v5.627h5.627v5.627h5.627v5.626h5.627V71.183h-5.627v-5.627h-5.627V59.93h-5.627V37.422zm56.267 0V59.93h-5.627v5.627h-5.626v5.627h-5.627v11.253h5.627V76.81h5.626v-5.627h5.627v-5.627h5.627V37.422z" stroke-width="1.58753676"/><path style="font-variation-settings:normal;mix-blend-mode:normal" d="M507.928 37.422v28.134h5.626v5.627h5.627v5.627h5.627v5.626h5.627V71.183h-5.627v-5.627h-5.627V59.93h-5.627V37.422zm56.267 0V59.93h-5.627v5.627h-5.626v5.627h-5.627v11.253h5.627V76.81h5.626v-5.627h5.627v-5.627h5.627V37.422z" stroke-width="1.58753676"/></g><g stroke-width="1.493" fill="none" stroke="#fff"><path style="font-variation-settings:normal;mix-blend-mode:normal" d="M429.153 104.943v11.254h-5.626v5.627h-11.254v-5.627h-5.627v11.253h16.881v5.627h5.626v11.254h5.627v5.626h5.627v-5.626h5.627v-11.254h5.626v-5.627h16.88v-11.253h-5.626v5.627H451.66v-5.627h-5.626v-11.254h-5.627v11.254h-5.627v-11.254zm0 16.88h5.627v5.627h-5.627zm11.254 0h5.627v5.627h-5.627z" stroke-width="1.58753676"/><path style="font-variation-settings:normal;mix-blend-mode:normal" d="M429.153 127.45h5.627v-5.626h-5.627zM440.407 127.45h5.627v-5.626h-5.627zM412.273 133.077v5.627h-5.627v11.253H417.9v-5.626h5.627v-5.627h5.626v-5.627H417.9zm33.76 0v5.627h5.627v5.627h5.627v5.626h11.253v-11.253h-5.626v-5.627H451.66z" stroke-width="1.58753676"/></g><g stroke-width="1.493" fill="none" stroke="#fff"><path style="font-variation-settings:normal;mix-blend-mode:normal" d="M524.808 104.944v11.253h-16.88v-5.627H502.3v11.254h16.88v16.88h5.627v5.627h5.627v5.626h5.626v-5.626h5.627v-5.627h5.627v-16.88h16.88V110.57h-5.627v5.627h-16.88v-11.253h-5.627v11.253h-5.626v-11.253zm0 16.88h5.627v5.626h-5.627zm11.253 0h5.627v5.626h-5.627z" stroke-width="1.58753676"/><path style="font-variation-settings:normal;mix-blend-mode:normal" d="M524.808 127.45h5.626v-5.626h-5.626zM536.061 127.45h5.627v-5.626h-5.627zM502.3 127.45v16.881h5.628v-5.627h5.626v-5.627h5.627v-5.627h-11.253zm45.015 0v5.627h5.627v5.627h5.626v5.627h5.627V127.45h-11.253z" stroke-width="1.58753676"/></g><g stroke-width="1.493" fill="none" stroke="#fff"><path style="font-variation-settings:normal;mix-blend-mode:normal" d="M237.844 172.464v11.254h-5.627v5.626h-11.253v-5.626h-5.627v11.253h16.88v5.627h5.627v11.253h5.627v5.627h5.627v-5.627h5.626v-11.253h5.627v-5.627h16.88v-11.253h-5.626v5.626H260.35v-5.626h-5.627v-11.254h-5.626v11.254h-5.627v-11.254zm0 16.88h5.627v5.627h-5.627zm11.254 0h5.626v5.627h-5.626z" stroke-width="1.58753676"/><path style="font-variation-settings:normal;mix-blend-mode:normal" d="M237.844 194.971h5.627v-5.626h-5.627zM249.098 194.971h5.626v-5.626h-5.626zM220.964 200.598v5.627h-5.627v11.253h11.254v-5.627h5.626v-5.626h5.627v-5.627h-11.253zm33.76 0v5.627h5.627v5.626h5.627v5.627h11.253v-11.253h-5.626v-5.627H260.35z" stroke-width="1.58753676"/></g><g stroke-width="1.493" fill="none" stroke="#fff"><path style="font-variation-settings:normal;mix-blend-mode:normal" d="M46.535 172.464v11.254h-5.627v5.626H29.655v-5.626h-5.627v11.253h16.88v5.627h5.627v11.253h5.627v5.627h5.626v-5.627h5.627v-11.253h5.627v-5.627h16.88v-11.253h-5.627v5.626H69.042v-5.626h-5.627v-11.254h-5.627v11.254h-5.626v-11.254zm0 16.88h5.627v5.627h-5.627zm11.253 0h5.627v5.627h-5.627z" stroke-width="1.58753676"/><path style="font-variation-settings:normal;mix-blend-mode:normal" d="M46.535 194.971h5.627v-5.626h-5.627zM57.788 194.971h5.627v-5.626h-5.627zM29.655 200.598v5.627h-5.627v11.253h11.254v-5.627h5.626v-5.626h5.627v-5.627H35.282zm33.76 0v5.627h5.627v5.626h5.627v5.627h11.253v-11.253h-5.627v-5.627H69.042z" stroke-width="1.58753676"/></g><g stroke-width="1.493" fill="none" stroke="#fff"><path style="font-variation-settings:normal;mix-blend-mode:normal" d="M46.535 239.985v11.254h-5.627v5.626H29.655v-5.626h-5.627v11.253h16.88v5.627h5.627v11.253h5.627V285h5.626v-5.627h5.627V268.12h5.627v-5.627h16.88V251.24h-5.627v5.626H69.042v-5.626h-5.627v-11.254h-5.627v11.254h-5.626v-11.254zm0 16.88h5.627v5.627h-5.627zm11.253 0h5.627v5.627h-5.627z" stroke-width="1.58753676"/><path style="font-variation-settings:normal;mix-blend-mode:normal" d="M46.535 262.492h5.627v-5.627h-5.627zM57.788 262.492h5.627v-5.627h-5.627zM29.655 268.119v5.627h-5.627v11.253h11.254v-5.627h5.626v-5.626h5.627v-5.627H35.282zm33.76 0v5.627h5.627v5.626h5.627V285h11.253v-11.253h-5.627v-5.627H69.042z" stroke-width="1.58753676"/></g><g stroke-width="1.493" fill="none" stroke="#fff"><path style="font-variation-settings:normal;mix-blend-mode:normal" d="M429.153 172.464v11.254h-5.626v5.626h-11.254v-5.626h-5.627v11.253h16.881v5.627h5.626v11.253h5.627v5.627h5.627v-5.627h5.627v-11.253h5.626v-5.627h16.88v-11.253h-5.626v5.626H451.66v-5.626h-5.626v-11.254h-5.627v11.254h-5.627v-11.254zm0 16.88h5.627v5.627h-5.627zm11.254 0h5.627v5.627h-5.627z" stroke-width="1.58753676"/><path style="font-variation-settings:normal;mix-blend-mode:normal" d="M429.153 194.971h5.627v-5.626h-5.627zM440.407 194.971h5.627v-5.626h-5.627zM412.273 200.598v5.627h-5.627v11.253H417.9v-5.627h5.627v-5.626h5.626v-5.627H417.9zm33.76 0v5.627h5.627v5.626h5.627v5.627h11.253v-11.253h-5.626v-5.627H451.66z" stroke-width="1.58753676"/></g><g stroke-width="1.493" fill="none" stroke="#fff"><path style="font-variation-settings:normal;mix-blend-mode:normal" d="M429.153 239.985v11.254h-5.626v5.626h-11.254v-5.626h-5.627v11.253h16.881v5.627h5.626v11.253h5.627V285h5.627v-5.627h5.627V268.12h5.626v-5.627h16.88V251.24h-5.626v5.626H451.66v-5.626h-5.626v-11.254h-5.627v11.254h-5.627v-11.254zm0 16.88h5.627v5.627h-5.627zm11.254 0h5.627v5.627h-5.627z" stroke-width="1.58753676"/><path style="font-variation-settings:normal;mix-blend-mode:normal" d="M429.153 262.492h5.627v-5.627h-5.627zM440.407 262.492h5.627v-5.627h-5.627zM412.273 268.119v5.627h-5.627v11.253H417.9v-5.627h5.627v-5.626h5.626v-5.627H417.9zm33.76 0v5.627h5.627v5.626h5.627V285h11.253v-11.253h-5.626v-5.627H451.66z" stroke-width="1.58753676"/></g><g stroke-width="1.493" fill="none" stroke="#fff"><path style="font-variation-settings:normal;mix-blend-mode:normal" d="M524.808 172.465v11.253h-16.88v-5.627H502.3v11.254h16.88v16.88h5.627v5.626h5.627v5.627h5.626v-5.627h5.627v-5.626h5.627v-16.88h16.88v-11.254h-5.627v5.627h-16.88v-11.253h-5.627v11.253h-5.626v-11.253zm0 16.88h5.627v5.626h-5.627zm11.253 0h5.627v5.626h-5.627z" stroke-width="1.58753676"/><path style="font-variation-settings:normal;mix-blend-mode:normal" d="M524.808 194.971h5.626v-5.626h-5.626zM536.061 194.971h5.627v-5.626h-5.627zM502.3 194.971v16.88h5.628v-5.626h5.626v-5.627h5.627v-5.627h-11.253zm45.015 0v5.627h5.627v5.627h5.626v5.626h5.627v-16.88h-11.253z" stroke-width="1.58753676"/></g><g stroke-width="1.493" fill="none" stroke="#fff"><path style="font-variation-settings:normal;mix-blend-mode:normal" d="M524.808 239.986v11.253h-16.88v-5.627H502.3v11.254h16.88v16.88h5.627v5.626h5.627V285h5.626v-5.627h5.627v-5.626h5.627v-16.88h16.88v-11.254h-5.627v5.627h-16.88v-11.253h-5.627v11.253h-5.626v-11.253zm0 16.88h5.627v5.626h-5.627zm11.253 0h5.627v5.626h-5.627z" stroke-width="1.58753676"/><path style="font-variation-settings:normal;mix-blend-mode:normal" d="M524.808 262.492h5.626v-5.626h-5.626zM536.061 262.492h5.627v-5.626h-5.627zM502.3 262.492v16.88h5.628v-5.626h5.626v-5.627h5.627v-5.627h-11.253zm45.015 0v5.627h5.627v5.627h5.626v5.626h5.627v-16.88h-11.253z" stroke-width="1.58753676"/></g><g stroke-width="1.493" fill="none" stroke="#fff"><path style="font-variation-settings:normal;mix-blend-mode:normal" d="M142.19 172.464v11.253h-16.881v-5.627h-5.626v11.254h16.88v16.881h5.627v5.626h5.626v5.627h5.627v-5.627h5.627v-5.626h5.627v-16.881h16.88V178.09h-5.627v5.627h-16.88v-11.253h-5.627v11.253h-5.627v-11.253zm0 16.88h5.626v5.627h-5.626zm11.253 0h5.627v5.627h-5.627z" stroke-width="1.58753676"/><path style="font-variation-settings:normal;mix-blend-mode:normal" d="M142.19 194.97h5.626v-5.626h-5.627zM153.443 194.97h5.627v-5.626h-5.627zM119.683 194.97v16.881h5.626v-5.626h5.627v-5.628h5.627v-5.626h-11.254zm45.014 0v5.627h5.626v5.628h5.627v5.626h5.627V194.97h-11.254z" stroke-width="1.58753676"/></g><g stroke-width="1.493" fill="none" stroke="#fff"><path style="font-variation-settings:normal;mix-blend-mode:normal" d="M142.19 239.986v11.253h-16.881v-5.627h-5.626v11.254h16.88v16.88h5.627v5.626h5.626V285h5.627v-5.627h5.627v-5.626h5.627v-16.88h16.88v-11.254h-5.627v5.627h-16.88v-11.253h-5.627v11.253h-5.627v-11.253zm0 16.88h5.626v5.626h-5.626zm11.253 0h5.627v5.626h-5.627z" stroke-width="1.58753676"/><path style="font-variation-settings:normal;mix-blend-mode:normal" d="M142.19 262.492h5.626v-5.626h-5.627zM153.443 262.492h5.627v-5.626h-5.627zM119.683 262.492v16.88h5.626v-5.626h5.627v-5.627h5.627v-5.627h-11.254zm45.014 0v5.627h5.626v5.627h5.627v5.626h5.627v-16.88h-11.254z" stroke-width="1.58753676"/></g><g stroke-width="1.493" fill="none" stroke="#fff"><path style="font-variation-settings:normal;mix-blend-mode:normal" d="M204.084 313.133v5.626h-5.627v5.627h5.627v5.627h5.626v5.627h-5.626V358.147H226.59v-5.627h5.626v5.627h5.627v5.626h5.627v-5.626h5.627v-5.627h-11.254v-16.88h5.627v-5.627h-11.254v5.627h-5.626v-5.627h5.626v-11.254h-5.626v5.627H209.71v-11.253zm11.253 16.88h5.627v5.627h-5.627zm11.254 11.253h5.626v5.627h-5.626z" stroke-width="1.58753676"/><path style="font-variation-settings:normal;mix-blend-mode:normal" d="M215.337 335.64h5.627v-5.627h-5.627zM226.59 346.893h5.627v-5.627h-5.626zM187.203 330.013v5.627h-5.626v5.626H204.084v-11.253H192.83zm33.76 28.134V380.654h5.628v-5.627h5.626v-16.88h-5.626z" stroke-width="1.58753676"/></g><g stroke-width="1.493" fill="none" stroke="#fff"><path style="font-variation-settings:normal;mix-blend-mode:normal" d="M187.204 476.308v5.627h-5.627v5.627h-5.627v16.88h5.627v-5.627h11.253V543.83h5.627v-45.014h11.253v5.627h5.627v-16.88h-5.627v-5.627h-5.626v-5.627H192.83z" stroke-width="1.58753676"/><path style="font-variation-settings:normal;mix-blend-mode:normal" d="M187.204 504.442v16.88h-5.627v5.627h-5.627v5.627h-5.627v-11.254h-5.626V555.083h5.626v-16.881h5.627v5.627h5.627v-5.627h5.627v16.881h5.626V504.442zm11.253 0V555.083h5.627v-16.881h5.626v5.627h5.627v-5.627h5.627v16.881h5.627v-33.761h-5.627v11.254h-5.627v-5.627h-5.627v-5.627h-5.626v-16.88z" stroke-width="1.58753676"/><path style="font-variation-settings:normal;mix-blend-mode:normal" d="M164.697 504.442v11.253h-5.627v45.014h5.627v5.627h5.626v-5.627h5.627V538.202h-5.627v16.881h-5.626v-33.761h5.626v11.254h5.627v-16.881h-5.627v-11.253zm56.267 0v11.253h-5.627v16.881h5.627v-11.254h5.627V555.083h-5.627v-16.881h-5.627v22.507h5.627v5.627h5.627v-5.627h5.626v-45.014h-5.626v-11.253z" stroke-width="1.58753676"/></g><path style="font-variation-settings:normal;mix-blend-mode:normal" d="M223.777 425.668v16.88h5.627v-16.88zM147.816 346.893v16.88h5.627v-16.88zM52.162 304.693v16.88h5.626v-16.88z" fill="none" stroke="#fff" stroke-width="1.587"/><g stroke-width="1.493" fill="none" stroke="#fff"><path style="font-variation-settings:normal;mix-blend-mode:normal" d="M429.153 308.078v11.253h-5.626v5.627h-11.254v-5.627h-5.627v11.254h16.881v5.626h5.626v11.254h5.627v5.627h5.627v-5.627h5.627v-11.254h5.626v-5.626h16.88V319.33h-5.626v5.627H451.66v-5.627h-5.626v-11.253h-5.627v11.253h-5.627v-11.253zm0 16.88h5.627v5.627h-5.627zm11.254 0h5.627v5.627h-5.627z" stroke-width="1.58753676"/><path style="font-variation-settings:normal;mix-blend-mode:normal" d="M429.153 330.585h5.627v-5.627h-5.627zM440.407 330.585h5.627v-5.627h-5.627zM412.273 336.211v5.627h-5.627v11.254H417.9v-5.627h5.627v-5.627h5.626v-5.627H417.9zm33.76 0v5.627h5.627v5.627h5.627v5.627h11.253v-11.254h-5.626v-5.627H451.66z" stroke-width="1.58753676"/></g><g stroke-width="1.493" fill="none" stroke="#fff"><path style="font-variation-settings:normal;mix-blend-mode:normal" d="M524.808 308.078v11.253h-16.88v-5.626H502.3V324.959h16.88V341.839h5.627v5.626h5.627v5.627h5.626v-5.627h5.627v-5.626h5.627V324.959h16.88V313.705h-5.627v5.626h-16.88v-11.253h-5.627v11.253h-5.626v-11.253zm0 16.88h5.627v5.627h-5.627zm11.253 0h5.627v5.627h-5.627z" stroke-width="1.58753676"/><path style="font-variation-settings:normal;mix-blend-mode:normal" d="M524.808 330.585h5.626v-5.627h-5.626zM536.061 330.585h5.627v-5.627h-5.627zM502.3 330.585V347.465h5.628v-5.626h5.626v-5.628h5.627v-5.626h-11.253zm45.015 0v5.626h5.627v5.628h5.626v5.626h5.627V330.585h-11.253z" stroke-width="1.58753676"/></g><g stroke-width="1.493" fill="none" stroke="#fff"><path style="font-variation-settings:normal;mix-blend-mode:normal" d="M524.808 376.87v11.253h-16.88v-5.627H502.3v11.254h16.88v16.88h5.627v5.627h5.627v5.626h5.626v-5.626h5.627v-5.627h5.627v-16.88h16.88v-11.254h-5.627v5.627h-16.88V376.87h-5.627v11.253h-5.626V376.87zm0 16.88h5.627v5.626h-5.627zm11.253 0h5.627v5.626h-5.627z" stroke-width="1.58753676"/><path style="font-variation-settings:normal;mix-blend-mode:normal" d="M524.808 399.377h5.626v-5.627h-5.626zM536.061 399.377h5.627v-5.627h-5.627zM502.3 399.376v16.881h5.628v-5.627h5.626v-5.627h5.627v-5.627h-11.253zm45.015 0v5.627h5.627v5.627h5.626v5.627h5.627v-16.881h-11.253z" stroke-width="1.58753676"/></g><path style="font-variation-settings:normal;mix-blend-mode:normal" d="M193.155 452.445v16.88h5.627v-16.88z" fill="none" stroke="#fff" stroke-width="1.587"/></svg>