<?xml version="1.0" encoding="UTF-8" standalone="no"?>
<!-- Created with Inkscape (http://www.inkscape.org/) -->

<svg
   width="1614.0695"
   height="391.27579"
   viewBox="0 0 427.05588 103.52505"
   version="1.1"
   id="svg5"
   inkscape:version="1.1 (1:1.1+rc+202105240936+c4e8f9ed74)"
   sodipodi:docname="icons.svg"
   xmlns:inkscape="http://www.inkscape.org/namespaces/inkscape"
   xmlns:sodipodi="http://sodipodi.sourceforge.net/DTD/sodipodi-0.dtd"
   xmlns="http://www.w3.org/2000/svg"
   xmlns:svg="http://www.w3.org/2000/svg">
  <sodipodi:namedview
     id="namedview7"
     pagecolor="#505050"
     bordercolor="#eeeeee"
     borderopacity="1"
     inkscape:pageshadow="0"
     inkscape:pageopacity="0"
     inkscape:pagecheckerboard="0"
     inkscape:document-units="px"
     showgrid="false"
     lock-margins="true"
     fit-margin-top="50"
     fit-margin-left="50"
     fit-margin-right="50"
     fit-margin-bottom="50"
     inkscape:zoom="0.29010417"
     inkscape:cx="460.17953"
     inkscape:cy="325.74506"
     inkscape:window-width="1916"
     inkscape:window-height="1050"
     inkscape:window-x="3840"
     inkscape:window-y="0"
     inkscape:window-maximized="1"
     inkscape:current-layer="layer1" />
  <defs
     id="defs2" />
  <g
     inkscape:label="Layer 1"
     inkscape:groupmode="layer"
     id="layer1"
     transform="translate(-11.235965,-22.278012)">
    <path
       d="m 249.60619,102.94 c 0,2.66417 2.1524,4.81658 4.81657,4.81658 h 57.79893 c 2.66417,0 4.81657,-2.15241 4.81657,-4.81658 V 59.590809 h -67.43207 z m 24.08288,-31.909821 c 0,-0.993419 0.8128,-1.806216 1.80622,-1.806216 h 15.65387 c 0.99342,0 1.80622,0.812797 1.80622,1.806216 v 1.204146 c 0,0.993419 -0.8128,1.806217 -1.80622,1.806217 h -15.65387 c -0.99342,0 -1.80622,-0.812798 -1.80622,-1.806217 z m 43.34919,-30.70568 h -67.43207 c -2.66417,0 -4.81658,2.152407 -4.81658,4.816579 v 7.224865 c 0,1.324558 1.08373,2.408287 2.40829,2.408287 h 72.24865 c 1.32456,0 2.40829,-1.083729 2.40829,-2.408287 v -7.224865 c 0,-2.664172 -2.15241,-4.816579 -4.81658,-4.816579 z"
       id="path824"
       style="stroke-width:0.264583" />
    <path
       d="m 67.815819,52.81824 -32.89271,29.006332 c -0.24383,0.219755 -0.55541,0.322109 -0.82333,0.504233 v 27.836805 a 2.4082884,2.4082884 0 0 0 2.40829,2.40829 h 19.2663 a 2.4082884,2.4082884 0 0 0 2.4083,-2.40829 V 90.8993 a 2.4082884,2.4082884 0 0 1 2.40828,-2.40829 h 14.44973 a 2.4082884,2.4082884 0 0 1 2.40829,2.40829 v 19.26631 a 2.4082884,2.4082884 0 0 0 2.40829,2.40829 h 19.266305 a 2.4082884,2.4082884 0 0 0 2.408296,-2.40829 V 82.334829 c -0.25589,-0.174603 -0.55993,-0.273948 -0.79173,-0.48166 z M 110.36576,71.073068 71.842169,37.055997 a 5.9981434,5.9981434 0 0 0 -8.04518,0 l -38.53262,34.017071 a 2.4082884,2.4082884 0 0 0 -0.18212,3.401705 l 3.22259,3.585342 a 2.4082884,2.4082884 0 0 0 3.40171,0.182124 l 34.51679,-30.446782 a 2.4082884,2.4082884 0 0 1 3.18647,0 l 34.516791,30.44528 a 2.4082884,2.4082884 0 0 0 3.4017,-0.182129 l 3.22109,-3.585337 a 2.4082884,2.4082884 0 0 0 -0.18363,-3.400203 z"
       id="path833"
       style="stroke-width:0.264583" />
    <path
       d="m 376.90904,98.11721 c 0,5.32367 -4.31565,9.63933 -9.63933,9.63933 -5.32367,0 -9.63917,-4.31566 -9.63917,-9.63933 0,-5.32367 4.31565,-9.63932 9.63932,-9.63932 5.32368,0 9.63918,4.3158 9.63918,9.63932 z m 26.44,7.11198 c -1.25743,-23.270088 -19.89623,-41.93237 -43.19115,-43.191154 -1.37499,-0.07435 -2.52735,1.03045 -2.52735,2.40739 v 7.235247 c 0,1.26661 0.97686,2.328819 2.24076,2.411 16.83273,1.096376 30.32532,14.555397 31.42395,31.423947 0.0823,1.2639 1.14454,2.24077 2.411,2.24077 h 7.23525 c 1.37709,1.5e-4 2.48189,-1.15222 2.40754,-2.5272 z m 21.71207,0.0434 c -1.26345,-35.194132 -29.58056,-63.67696 -64.94657,-64.94658 -1.35918,-0.04877 -2.484,1.049261 -2.484,2.409193 v 7.235099 c 0,1.298218 1.02879,2.354857 2.32596,2.408139 28.77588,1.179912 51.87257,24.280971 53.05233,53.052339 0.0531,1.29717 1.10977,2.32595 2.40814,2.32595 h 7.2351 c 1.35978,-1.4e-4 2.4578,-1.12497 2.40904,-2.48414 z"
       id="path842"
       style="stroke-width:0.264583" />
    <path
       d="M 139.34401,73.456243 V 42.73281 c 0,-3.990236 3.23464,-7.224865 7.22487,-7.224865 h 30.72344 a 7.2248652,7.2248652 0 0 1 5.10873,2.116129 l 31.89206,31.892058 c 2.82146,2.821463 2.82146,7.396009 0,10.217467 l -30.72344,30.723441 c -2.82146,2.82145 -7.396,2.82145 -10.21746,0 L 141.46015,78.56498 a 7.2248652,7.2248652 0 0 1 -2.11614,-5.108737 z m 16.85803,-28.315152 c -3.99024,0 -7.22487,3.234635 -7.22487,7.224866 0,3.990236 3.23463,7.224865 7.22487,7.224865 3.99023,0 7.22486,-3.234629 7.22486,-7.224865 0,-3.990231 -3.23463,-7.224866 -7.22486,-7.224866 z"
       id="path851"
       style="stroke-width:0.264583" />
  </g>
</svg>
