<svg width="360.329" height="360.328" viewBox="0 0 95.337 95.337"
  xmlns="http://www.w3.org/2000/svg">
  <g color="#000" stroke="#000" stroke-width=".134">
    <path fill="#4cdc48" d="M79.442 47.692h5.244v5.244h-5.244zM79.442 42.4h5.244v5.244h-5.244zM79.442 52.983h5.244v5.244h-5.244zM74.15 52.983h5.244v5.244H74.15z"/>
    <path fill="#fcfcfc" d="M74.15 47.692h5.244v5.244H74.15zM74.15 42.4h5.244v5.244H74.15zM74.15 37.108h5.244v5.244H74.15zM74.15 31.817h5.244v5.244H74.15z"/>
    <path fill="#4cdc48" d="M74.15 26.525h5.244v5.244H74.15z"/>
    <path fill="#010000" d="M79.442 26.525h5.244v5.244h-5.244zM79.442 31.817h5.244v5.244h-5.244zM79.442 37.108h5.244v5.244h-5.244zM84.734 42.4h5.244v5.244h-5.244zM84.734 47.692h5.244v5.244h-5.244zM84.734 52.983h5.244v5.244h-5.244zM79.442 58.275h5.244v5.244h-5.244zM74.15 58.275h5.244v5.244H74.15zM68.86 58.275h5.243v5.244H68.86zM58.275 58.275h5.244v5.244h-5.244zM52.984 58.275h5.244v5.244h-5.244zM47.692 58.275h5.244v5.244h-5.244zM58.275 47.692h5.244v5.244h-5.244zM58.275 42.4h5.244v5.244h-5.244zM58.275 37.108h5.244v5.244h-5.244zM58.275 31.817h5.244v5.244h-5.244zM68.86 31.817h5.243v5.244H68.86zM68.86 37.108h5.243v5.244H68.86zM68.86 42.4h5.243v5.244H68.86zM68.86 47.692h5.243v5.244H68.86z"/>
    <path fill="#4cdc48" d="M63.567 26.525h5.244v5.244h-5.244zM63.567 31.817h5.244v5.244h-5.244zM63.567 37.108h5.244v5.244h-5.244zM63.567 42.4h5.244v5.244h-5.244zM63.567 47.692h5.244v5.244h-5.244zM63.567 52.983h5.244v5.244h-5.244zM68.86 21.233h5.243v5.244H68.86zM63.567 21.233h5.244v5.244h-5.244zM58.275 21.233h5.244v5.244h-5.244zM52.984 21.233h5.244v5.244h-5.244zM47.692 21.233h5.244v5.244h-5.244zM42.4 21.233h5.244v5.244H42.4zM37.11 21.233h5.243v5.244H37.11zM63.567 15.942h5.244v5.244h-5.244zM58.275 15.942h5.244v5.244h-5.244zM52.984 15.942h5.244v5.244h-5.244zM47.692 15.942h5.244v5.244h-5.244zM42.4 15.942h5.244v5.244H42.4z"/>
    <path fill="#fcfcfc" d="M68.86 26.525h5.243v5.244H68.86zM68.86 52.983h5.243v5.244H68.86zM58.275 52.983h5.244v5.244h-5.244zM52.984 52.983h5.244v5.244h-5.244zM52.984 47.692h5.244v5.244h-5.244zM52.984 42.4h5.244v5.244h-5.244zM52.984 37.108h5.244v5.244h-5.244zM52.984 31.817h5.244v5.244h-5.244zM52.984 26.525h5.244v5.244h-5.244zM58.275 26.525h5.244v5.244h-5.244z"/>
    <path fill="#fcfcfc" d="M58.275 26.525h5.244v5.244h-5.244zM63.567 58.275h5.244v5.244h-5.244zM47.692 47.692h5.244v5.244h-5.244zM47.692 42.4h5.244v5.244h-5.244zM47.692 37.108h5.244v5.244h-5.244zM47.692 31.817h5.244v5.244h-5.244z"/>
    <path fill="#4cdc48" d="M47.692 26.525h5.244v5.244h-5.244zM42.4 26.525h5.244v5.244H42.4zM37.11 26.525h5.243v5.244H37.11zM31.817 26.525h5.244v5.244h-5.244zM42.4 31.817h5.244v5.244H42.4zM37.11 31.817h5.243v5.244H37.11zM31.817 31.817h5.244v5.244h-5.244zM42.4 37.108h5.244v5.244H42.4zM37.11 37.108h5.243v5.244H37.11zM31.817 37.108h5.244v5.244h-5.244zM42.4 42.4h5.244v5.244H42.4zM37.11 42.4h5.243v5.244H37.11zM31.817 42.4h5.244v5.244h-5.244zM42.4 47.692h5.244v5.244H42.4zM37.11 47.692h5.243v5.244H37.11zM31.817 47.692h5.244v5.244h-5.244zM42.4 52.983h5.244v5.244H42.4zM37.11 52.983h5.243v5.244H37.11zM31.817 52.983h5.244v5.244h-5.244zM26.525 37.108h5.244v5.244h-5.244zM26.525 42.4h5.244v5.244h-5.244zM26.525 47.692h5.244v5.244h-5.244zM26.525 52.983h5.244v5.244h-5.244zM47.692 52.983h5.244v5.244h-5.244zM42.4 58.275h5.244v5.244H42.4zM37.11 58.275h5.243v5.244H37.11zM26.525 58.275h5.244v5.244h-5.244zM42.4 63.567h5.244v5.244H42.4zM47.692 63.567h5.244v5.244h-5.244zM52.984 63.567h5.244v5.244h-5.244zM58.275 63.567h5.244v5.244h-5.244zM63.567 63.567h5.244v5.244h-5.244zM68.86 63.567h5.243v5.244H68.86zM74.15 63.567h5.244v5.244H74.15zM42.4 68.858h5.244v5.244H42.4zM47.692 68.858h5.244v5.244h-5.244zM42.4 74.15h5.244v5.244H42.4zM37.11 74.15h5.243v5.244H37.11zM37.11 79.442h5.243v5.244H37.11zM31.817 79.442h5.244v5.244h-5.244zM26.525 79.442h5.244v5.244h-5.244zM21.234 79.442h5.244v5.244h-5.244zM21.234 74.15h5.244v5.244h-5.244zM21.234 68.858h5.244v5.244h-5.244zM21.234 63.567h5.244v5.244h-5.244zM21.234 84.733h5.244v5.244h-5.244zM26.525 84.733h5.244v5.244h-5.244zM31.817 84.733h5.244v5.244h-5.244zM15.942 84.733h5.244v5.244h-5.244zM15.942 79.442h5.244v5.244h-5.244z"/>
    <path fill="#010000" d="M74.15 21.233h5.244v5.244H74.15zM68.86 15.942h5.243v5.244H68.86zM63.567 10.65h5.244v5.244h-5.244zM58.275 10.65h5.244v5.244h-5.244zM52.984 5.358h5.244v5.244h-5.244zM47.692.067h5.244v5.244h-5.244zM42.4 5.358h5.244v5.244H42.4zM37.11 10.65h5.243v5.244H37.11zM31.817 10.65h5.244v5.244h-5.244zM26.525 10.65h5.244v5.244h-5.244zM21.234 10.65h5.244v5.244h-5.244zM15.942 15.942h5.244v5.244h-5.244zM21.234 21.233h5.244v5.244h-5.244zM26.525 26.525h5.244v5.244h-5.244zM21.234 26.525h5.244v5.244h-5.244zM15.942 26.525h5.244v5.244h-5.244zM10.65 31.817h5.244v5.244H10.65zM15.942 37.108h5.244v5.244h-5.244zM15.942 42.4h5.244v5.244h-5.244zM21.234 42.4h5.244v5.244h-5.244zM10.65 47.692h5.244v5.244H10.65zM15.942 52.983h5.244v5.244h-5.244zM15.942 58.275h5.244v5.244h-5.244zM21.234 58.275h5.244v5.244h-5.244zM15.942 63.567h5.244v5.244h-5.244zM15.942 68.858h5.244v5.244h-5.244zM5.36 79.442h5.243v5.244H5.36zM.067 74.15h5.244v5.244H.067zM10.65 90.025h5.244v5.244H10.65zM15.942 90.025h5.244v5.244h-5.244zM21.234 90.025h5.244v5.244h-5.244zM26.525 90.025h5.244v5.244h-5.244zM31.817 90.025h5.244v5.244h-5.244zM37.11 90.025h5.243v5.244H37.11zM42.4 90.025h5.244v5.244H42.4zM47.692 90.025h5.244v5.244h-5.244zM52.984 90.025h5.244v5.244h-5.244zM58.275 90.025h5.244v5.244h-5.244zM63.567 90.025h5.244v5.244h-5.244zM68.86 90.025h5.243v5.244H68.86zM74.15 90.025h5.244v5.244H74.15zM79.442 90.025h5.244v5.244h-5.244zM84.734 90.025h5.244v5.244h-5.244zM90.025 84.733h5.244v5.244h-5.244zM84.734 79.442h5.244v5.244h-5.244zM79.442 79.442h5.244v5.244h-5.244zM79.442 74.15h5.244v5.244h-5.244zM79.442 68.858h5.244v5.244h-5.244zM74.15 68.858h5.244v5.244H74.15zM79.442 63.567h5.244v5.244h-5.244z"/>
    <path fill="#fcfcfc" d="M52.984 68.858h5.244v5.244h-5.244zM58.275 68.858h5.244v5.244h-5.244zM63.567 68.858h5.244v5.244h-5.244zM68.86 68.858h5.243v5.244H68.86zM52.984 74.15h5.244v5.244h-5.244zM58.275 74.15h5.244v5.244h-5.244zM63.567 74.15h5.244v5.244h-5.244zM68.86 74.15h5.243v5.244H68.86zM52.984 79.442h5.244v5.244h-5.244zM58.275 79.442h5.244v5.244h-5.244zM63.567 79.442h5.244v5.244h-5.244zM68.86 79.442h5.243v5.244H68.86zM58.275 84.733h5.244v5.244h-5.244zM63.567 84.733h5.244v5.244h-5.244zM68.86 84.733h5.243v5.244H68.86zM47.692 74.15h5.244v5.244h-5.244zM74.15 74.15h5.244v5.244H74.15zM74.15 79.442h5.244v5.244H74.15z"/>
    <path fill="#fc7460" d="M74.15 84.733h5.244v5.244H74.15zM79.442 84.733h5.244v5.244h-5.244zM84.734 84.733h5.244v5.244h-5.244zM52.984 84.733h5.244v5.244h-5.244zM47.692 84.733h5.244v5.244h-5.244zM42.4 84.733h5.244v5.244H42.4zM37.11 84.733h5.243v5.244H37.11zM42.4 79.442h5.244v5.244H42.4zM47.692 79.442h5.244v5.244h-5.244zM31.817 74.15h5.244v5.244h-5.244zM26.525 74.15h5.244v5.244h-5.244zM31.817 68.858h5.244v5.244h-5.244zM26.525 68.858h5.244v5.244h-5.244zM31.817 63.567h5.244v5.244h-5.244zM26.525 63.567h5.244v5.244h-5.244zM37.11 68.858h5.243v5.244H37.11zM37.11 63.567h5.243v5.244H37.11zM31.817 58.275h5.244v5.244h-5.244zM15.942 74.15h5.244v5.244h-5.244z"/>
    <path fill="#010000" d="M5.36 63.567h5.243v5.244H5.36z"/>
    <path fill="#fc7460" d="M15.942 47.692h5.244v5.244h-5.244zM21.234 47.692h5.244v5.244h-5.244zM21.234 52.983h5.244v5.244h-5.244zM21.234 37.108h5.244v5.244h-5.244zM15.942 31.817h5.244v5.244h-5.244zM21.234 31.817h5.244v5.244h-5.244zM26.525 31.817h5.244v5.244h-5.244zM26.525 21.233h5.244v5.244h-5.244zM31.817 21.233h5.244v5.244h-5.244zM31.817 15.942h5.244v5.244h-5.244zM37.11 15.942h5.243v5.244H37.11zM26.525 15.942h5.244v5.244h-5.244zM21.234 15.942h5.244v5.244h-5.244zM47.692 5.358h5.244v5.244h-5.244zM47.692 10.65h5.244v5.244h-5.244zM52.984 10.65h5.244v5.244h-5.244zM42.4 10.65h5.244v5.244H42.4z"/>
    <path fill="#4cdc48" d="M5.36 68.858h5.243v5.244H5.36z"/>
    <path fill="#fc7460" d="M10.65 74.15h5.244v5.244H10.65z"/>
    <path fill="#010000" d="M10.65 68.858h5.244v5.244H10.65zM.067 68.858h5.244v5.244H.067z"/>
    <path fill="#4cdc48" d="M10.65 79.442h5.244v5.244H10.65zM5.36 74.15h5.243v5.244H5.36z"/>
    <path fill="#010000" d="M10.65 84.733h5.244v5.244H10.65z"/>
  </g>
</svg>