<svg width="360.329" height="360.328" viewBox="0 0 95.337 95.337"
  xmlns="http://www.w3.org/2000/svg">
  <g transform="translate(-102.884 -86.34)" color="#000" stroke="#000" stroke-width=".134">
    <rect width="5.244" height="5.244" x="182.326" y="134.032" fill="#4cdc48"/>
    <rect width="5.244" height="5.244" x="182.326" y="128.74" fill="#4cdc48"/>
    <rect width="5.244" height="5.244" x="182.326" y="139.323" fill="#4cdc48"/>
    <rect width="5.244" height="5.244" x="177.034" y="139.323" fill="#4cdc48"/>
    <rect width="5.244" height="5.244" x="177.034" y="134.032" fill="#fcfcfc"/>
    <rect width="5.244" height="5.244" x="177.034" y="128.74" fill="#fcfcfc"/>
    <rect width="5.244" height="5.244" x="177.034" y="123.448" fill="#fcfcfc"/>
    <rect width="5.244" height="5.244" x="177.034" y="118.157" fill="#fcfcfc"/>
    <rect width="5.244" height="5.244" x="177.034" y="112.865" fill="#4cdc48"/>
    <rect width="5.244" height="5.244" x="182.326" y="112.865" fill="#010000"/>
    <rect width="5.244" height="5.244" x="182.326" y="118.157" fill="#010000"/>
    <rect width="5.244" height="5.244" x="182.326" y="123.448" fill="#010000"/>
    <rect width="5.244" height="5.244" x="187.618" y="128.74" fill="#010000"/>
    <rect width="5.244" height="5.244" x="187.618" y="134.032" fill="#010000"/>
    <rect width="5.244" height="5.244" x="187.618" y="139.323" fill="#010000"/>
    <rect width="5.244" height="5.244" x="182.326" y="144.615" fill="#010000"/>
    <rect width="5.244" height="5.244" x="177.034" y="144.615" fill="#010000"/>
    <rect width="5.244" height="5.244" x="171.743" y="144.615" fill="#010000"/>
    <rect width="5.244" height="5.244" x="161.159" y="144.615" fill="#010000"/>
    <rect width="5.244" height="5.244" x="155.868" y="144.615" fill="#010000"/>
    <rect width="5.244" height="5.244" x="150.576" y="144.615" fill="#010000"/>
    <rect width="5.244" height="5.244" x="161.159" y="134.032" fill="#010000"/>
    <rect width="5.244" height="5.244" x="161.159" y="128.74" fill="#010000"/>
    <rect width="5.244" height="5.244" x="161.159" y="123.448" fill="#010000"/>
    <rect width="5.244" height="5.244" x="161.159" y="118.157" fill="#010000"/>
    <rect width="5.244" height="5.244" x="171.743" y="118.157" fill="#010000"/>
    <rect width="5.244" height="5.244" x="171.743" y="123.448" fill="#010000"/>
    <rect width="5.244" height="5.244" x="171.743" y="128.74" fill="#010000"/>
    <rect width="5.244" height="5.244" x="171.743" y="134.032" fill="#010000"/>
    <rect width="5.244" height="5.244" x="166.451" y="112.865" fill="#4cdc48"/>
    <rect width="5.244" height="5.244" x="166.451" y="118.157" fill="#4cdc48"/>
    <rect width="5.244" height="5.244" x="166.451" y="123.448" fill="#4cdc48"/>
    <rect width="5.244" height="5.244" x="166.451" y="128.74" fill="#4cdc48"/>
    <rect width="5.244" height="5.244" x="166.451" y="134.032" fill="#4cdc48"/>
    <rect width="5.244" height="5.244" x="166.451" y="139.323" fill="#4cdc48"/>
    <rect width="5.244" height="5.244" x="171.743" y="107.573" fill="#4cdc48"/>
    <rect width="5.244" height="5.244" x="166.451" y="107.573" fill="#4cdc48"/>
    <rect width="5.244" height="5.244" x="161.159" y="107.573" fill="#4cdc48"/>
    <rect width="5.244" height="5.244" x="155.868" y="107.573" fill="#4cdc48"/>
    <rect width="5.244" height="5.244" x="150.576" y="107.573" fill="#4cdc48"/>
    <rect width="5.244" height="5.244" x="145.284" y="107.573" fill="#4cdc48"/>
    <rect width="5.244" height="5.244" x="139.993" y="107.573" fill="#4cdc48"/>
    <rect width="5.244" height="5.244" x="166.451" y="102.282" fill="#4cdc48"/>
    <rect width="5.244" height="5.244" x="161.159" y="102.282" fill="#4cdc48"/>
    <rect width="5.244" height="5.244" x="155.868" y="102.282" fill="#4cdc48"/>
    <rect width="5.244" height="5.244" x="150.576" y="102.282" fill="#4cdc48"/>
    <rect width="5.244" height="5.244" x="145.284" y="102.282" fill="#4cdc48"/>
    <rect width="5.244" height="5.244" x="171.743" y="112.865" fill="#fcfcfc"/>
    <rect width="5.244" height="5.244" x="171.743" y="139.323" fill="#fcfcfc"/>
    <rect width="5.244" height="5.244" x="161.159" y="139.323" fill="#fcfcfc"/>
    <rect width="5.244" height="5.244" x="155.868" y="139.323" fill="#fcfcfc"/>
    <rect width="5.244" height="5.244" x="155.868" y="134.032" fill="#fcfcfc"/>
    <rect width="5.244" height="5.244" x="155.868" y="128.74" fill="#fcfcfc"/>
    <rect width="5.244" height="5.244" x="155.868" y="123.448" fill="#fcfcfc"/>
    <rect width="5.244" height="5.244" x="155.868" y="118.157" fill="#fcfcfc"/>
    <rect width="5.244" height="5.244" x="155.868" y="112.865" fill="#fcfcfc"/>
    <rect width="5.244" height="5.244" x="161.159" y="112.865" fill="#fcfcfc"/>
    <rect width="5.244" height="5.244" x="161.159" y="112.865" fill="#fcfcfc"/>
    <rect width="5.244" height="5.244" x="166.451" y="144.615" fill="#fcfcfc"/>
    <rect width="5.244" height="5.244" x="150.576" y="134.032" fill="#fcfcfc"/>
    <rect width="5.244" height="5.244" x="150.576" y="128.74" fill="#fcfcfc"/>
    <rect width="5.244" height="5.244" x="150.576" y="123.448" fill="#fcfcfc"/>
    <rect width="5.244" height="5.244" x="150.576" y="118.157" fill="#fcfcfc"/>
    <rect width="5.244" height="5.244" x="150.576" y="112.865" fill="#4cdc48"/>
    <rect width="5.244" height="5.244" x="145.284" y="112.865" fill="#4cdc48"/>
    <rect width="5.244" height="5.244" x="139.993" y="112.865" fill="#4cdc48"/>
    <rect width="5.244" height="5.244" x="134.701" y="112.865" fill="#4cdc48"/>
    <rect width="5.244" height="5.244" x="145.284" y="118.157" fill="#4cdc48"/>
    <rect width="5.244" height="5.244" x="139.993" y="118.157" fill="#4cdc48"/>
    <rect width="5.244" height="5.244" x="134.701" y="118.157" fill="#4cdc48"/>
    <rect width="5.244" height="5.244" x="145.284" y="123.448" fill="#4cdc48"/>
    <rect width="5.244" height="5.244" x="139.993" y="123.448" fill="#4cdc48"/>
    <rect width="5.244" height="5.244" x="134.701" y="123.448" fill="#4cdc48"/>
    <rect width="5.244" height="5.244" x="145.284" y="128.74" fill="#4cdc48"/>
    <rect width="5.244" height="5.244" x="139.993" y="128.74" fill="#4cdc48"/>
    <rect width="5.244" height="5.244" x="134.701" y="128.74" fill="#4cdc48"/>
    <rect width="5.244" height="5.244" x="145.284" y="134.032" fill="#4cdc48"/>
    <rect width="5.244" height="5.244" x="139.993" y="134.032" fill="#4cdc48"/>
    <rect width="5.244" height="5.244" x="134.701" y="134.032" fill="#4cdc48"/>
    <rect width="5.244" height="5.244" x="145.284" y="139.323" fill="#4cdc48"/>
    <rect width="5.244" height="5.244" x="139.993" y="139.323" fill="#4cdc48"/>
    <rect width="5.244" height="5.244" x="134.701" y="139.323" fill="#4cdc48"/>
    <rect width="5.244" height="5.244" x="129.409" y="123.448" fill="#4cdc48"/>
    <rect width="5.244" height="5.244" x="129.409" y="128.74" fill="#4cdc48"/>
    <rect width="5.244" height="5.244" x="129.409" y="134.032" fill="#4cdc48"/>
    <rect width="5.244" height="5.244" x="129.409" y="139.323" fill="#4cdc48"/>
    <rect width="5.244" height="5.244" x="150.576" y="139.323" fill="#4cdc48"/>
    <rect width="5.244" height="5.244" x="145.284" y="144.615" fill="#4cdc48"/>
    <rect width="5.244" height="5.244" x="139.993" y="144.615" fill="#4cdc48"/>
    <rect width="5.244" height="5.244" x="129.409" y="144.615" fill="#4cdc48"/>
    <rect width="5.244" height="5.244" x="145.284" y="149.907" fill="#4cdc48"/>
    <rect width="5.244" height="5.244" x="150.576" y="149.907" fill="#4cdc48"/>
    <rect width="5.244" height="5.244" x="155.868" y="149.907" fill="#4cdc48"/>
    <rect width="5.244" height="5.244" x="161.159" y="149.907" fill="#4cdc48"/>
    <rect width="5.244" height="5.244" x="166.451" y="149.907" fill="#4cdc48"/>
    <rect width="5.244" height="5.244" x="171.743" y="149.907" fill="#4cdc48"/>
    <rect width="5.244" height="5.244" x="177.034" y="149.907" fill="#4cdc48"/>
    <rect width="5.244" height="5.244" x="145.284" y="155.198" fill="#4cdc48"/>
    <rect width="5.244" height="5.244" x="150.576" y="155.198" fill="#4cdc48"/>
    <rect width="5.244" height="5.244" x="145.284" y="160.49" fill="#4cdc48"/>
    <rect width="5.244" height="5.244" x="139.993" y="160.49" fill="#4cdc48"/>
    <rect width="5.244" height="5.244" x="139.993" y="165.782" fill="#4cdc48"/>
    <rect width="5.244" height="5.244" x="134.701" y="165.782" fill="#4cdc48"/>
    <rect width="5.244" height="5.244" x="129.409" y="165.782" fill="#4cdc48"/>
    <rect width="5.244" height="5.244" x="124.118" y="165.782" fill="#4cdc48"/>
    <rect width="5.244" height="5.244" x="124.118" y="160.49" fill="#4cdc48"/>
    <rect width="5.244" height="5.244" x="124.118" y="155.198" fill="#4cdc48"/>
    <rect width="5.244" height="5.244" x="124.118" y="149.907" fill="#4cdc48"/>
    <rect width="5.244" height="5.244" x="124.118" y="171.073" fill="#4cdc48"/>
    <rect width="5.244" height="5.244" x="129.409" y="171.073" fill="#4cdc48"/>
    <rect width="5.244" height="5.244" x="134.701" y="171.073" fill="#4cdc48"/>
    <rect width="5.244" height="5.244" x="118.826" y="171.073" fill="#4cdc48"/>
    <rect width="5.244" height="5.244" x="118.826" y="165.782" fill="#4cdc48"/>
    <rect width="5.244" height="5.244" x="177.034" y="107.573" fill="#010000"/>
    <rect width="5.244" height="5.244" x="171.743" y="102.282" fill="#010000"/>
    <rect width="5.244" height="5.244" x="166.451" y="96.99" fill="#010000"/>
    <rect width="5.244" height="5.244" x="161.159" y="96.99" fill="#010000"/>
    <rect width="5.244" height="5.244" x="155.868" y="91.698" fill="#010000"/>
    <rect width="5.244" height="5.244" x="150.576" y="86.407" fill="#010000"/>
    <rect width="5.244" height="5.244" x="145.284" y="91.698" fill="#010000"/>
    <rect width="5.244" height="5.244" x="139.993" y="96.99" fill="#010000"/>
    <rect width="5.244" height="5.244" x="134.701" y="96.99" fill="#010000"/>
    <rect width="5.244" height="5.244" x="129.409" y="96.99" fill="#010000"/>
    <rect width="5.244" height="5.244" x="124.118" y="96.99" fill="#010000"/>
    <rect width="5.244" height="5.244" x="118.826" y="102.282" fill="#010000"/>
    <rect width="5.244" height="5.244" x="124.118" y="107.573" fill="#010000"/>
    <rect width="5.244" height="5.244" x="129.409" y="112.865" fill="#010000"/>
    <rect width="5.244" height="5.244" x="124.118" y="112.865" fill="#010000"/>
    <rect width="5.244" height="5.244" x="118.826" y="112.865" fill="#010000"/>
    <rect width="5.244" height="5.244" x="113.534" y="118.157" fill="#010000"/>
    <rect width="5.244" height="5.244" x="118.826" y="123.448" fill="#010000"/>
    <rect width="5.244" height="5.244" x="118.826" y="128.74" fill="#010000"/>
    <rect width="5.244" height="5.244" x="124.118" y="128.74" fill="#010000"/>
    <rect width="5.244" height="5.244" x="113.534" y="134.032" fill="#010000"/>
    <rect width="5.244" height="5.244" x="118.826" y="139.323" fill="#010000"/>
    <rect width="5.244" height="5.244" x="118.826" y="144.615" fill="#010000"/>
    <rect width="5.244" height="5.244" x="124.118" y="144.615" fill="#010000"/>
    <rect width="5.244" height="5.244" x="118.826" y="149.907" fill="#010000"/>
    <rect width="5.244" height="5.244" x="118.826" y="155.198" fill="#010000"/>
    <rect width="5.244" height="5.244" x="108.243" y="165.782" fill="#010000"/>
    <rect width="5.244" height="5.244" x="102.951" y="160.49" fill="#010000"/>
    <rect width="5.244" height="5.244" x="113.534" y="176.365" fill="#010000"/>
    <rect width="5.244" height="5.244" x="118.826" y="176.365" fill="#010000"/>
    <rect width="5.244" height="5.244" x="124.118" y="176.365" fill="#010000"/>
    <rect width="5.244" height="5.244" x="129.409" y="176.365" fill="#010000"/>
    <rect width="5.244" height="5.244" x="134.701" y="176.365" fill="#010000"/>
    <rect width="5.244" height="5.244" x="139.993" y="176.365" fill="#010000"/>
    <rect width="5.244" height="5.244" x="145.284" y="176.365" fill="#010000"/>
    <rect width="5.244" height="5.244" x="150.576" y="176.365" fill="#010000"/>
    <rect width="5.244" height="5.244" x="155.868" y="176.365" fill="#010000"/>
    <rect width="5.244" height="5.244" x="161.159" y="176.365" fill="#010000"/>
    <rect width="5.244" height="5.244" x="166.451" y="176.365" fill="#010000"/>
    <rect width="5.244" height="5.244" x="171.743" y="176.365" fill="#010000"/>
    <rect width="5.244" height="5.244" x="177.034" y="176.365" fill="#010000"/>
    <rect width="5.244" height="5.244" x="182.326" y="176.365" fill="#010000"/>
    <rect width="5.244" height="5.244" x="187.618" y="176.365" fill="#010000"/>
    <rect width="5.244" height="5.244" x="192.909" y="171.073" fill="#010000"/>
    <rect width="5.244" height="5.244" x="187.618" y="165.782" fill="#010000"/>
    <rect width="5.244" height="5.244" x="182.326" y="165.782" fill="#010000"/>
    <rect width="5.244" height="5.244" x="182.326" y="160.49" fill="#010000"/>
    <rect width="5.244" height="5.244" x="182.326" y="155.198" fill="#010000"/>
    <rect width="5.244" height="5.244" x="177.034" y="155.198" fill="#010000"/>
    <rect width="5.244" height="5.244" x="182.326" y="149.907" fill="#010000"/>
    <rect width="5.244" height="5.244" x="155.868" y="155.198" fill="#fcfcfc"/>
    <rect width="5.244" height="5.244" x="161.159" y="155.198" fill="#fcfcfc"/>
    <rect width="5.244" height="5.244" x="166.451" y="155.198" fill="#fcfcfc"/>
    <rect width="5.244" height="5.244" x="171.743" y="155.198" fill="#fcfcfc"/>
    <rect width="5.244" height="5.244" x="155.868" y="160.49" fill="#fcfcfc"/>
    <rect width="5.244" height="5.244" x="161.159" y="160.49" fill="#fcfcfc"/>
    <rect width="5.244" height="5.244" x="166.451" y="160.49" fill="#fcfcfc"/>
    <rect width="5.244" height="5.244" x="171.743" y="160.49" fill="#fcfcfc"/>
    <rect width="5.244" height="5.244" x="155.868" y="165.782" fill="#fcfcfc"/>
    <rect width="5.244" height="5.244" x="161.159" y="165.782" fill="#fcfcfc"/>
    <rect width="5.244" height="5.244" x="166.451" y="165.782" fill="#fcfcfc"/>
    <rect width="5.244" height="5.244" x="171.743" y="165.782" fill="#fcfcfc"/>
    <rect width="5.244" height="5.244" x="161.159" y="171.073" fill="#fcfcfc"/>
    <rect width="5.244" height="5.244" x="166.451" y="171.073" fill="#fcfcfc"/>
    <rect width="5.244" height="5.244" x="171.743" y="171.073" fill="#fcfcfc"/>
    <rect width="5.244" height="5.244" x="150.576" y="160.49" fill="#fcfcfc"/>
    <rect width="5.244" height="5.244" x="177.034" y="160.49" fill="#fcfcfc"/>
    <rect width="5.244" height="5.244" x="177.034" y="165.782" fill="#fcfcfc"/>
    <rect width="5.244" height="5.244" x="177.034" y="171.073" fill="#fc7460"/>
    <rect width="5.244" height="5.244" x="182.326" y="171.073" fill="#fc7460"/>
    <rect width="5.244" height="5.244" x="187.618" y="171.073" fill="#fc7460"/>
    <rect width="5.244" height="5.244" x="155.868" y="171.073" fill="#fc7460"/>
    <rect width="5.244" height="5.244" x="150.576" y="171.073" fill="#fc7460"/>
    <rect width="5.244" height="5.244" x="145.284" y="171.073" fill="#fc7460"/>
    <rect width="5.244" height="5.244" x="139.993" y="171.073" fill="#fc7460"/>
    <rect width="5.244" height="5.244" x="145.284" y="165.782" fill="#fc7460"/>
    <rect width="5.244" height="5.244" x="150.576" y="165.782" fill="#fc7460"/>
    <rect width="5.244" height="5.244" x="134.701" y="160.49" fill="#fc7460"/>
    <rect width="5.244" height="5.244" x="129.409" y="160.49" fill="#fc7460"/>
    <rect width="5.244" height="5.244" x="134.701" y="155.198" fill="#fc7460"/>
    <rect width="5.244" height="5.244" x="129.409" y="155.198" fill="#fc7460"/>
    <rect width="5.244" height="5.244" x="134.701" y="149.907" fill="#fc7460"/>
    <rect width="5.244" height="5.244" x="129.409" y="149.907" fill="#fc7460"/>
    <rect width="5.244" height="5.244" x="139.993" y="155.198" fill="#fc7460"/>
    <rect width="5.244" height="5.244" x="139.993" y="149.907" fill="#fc7460"/>
    <rect width="5.244" height="5.244" x="134.701" y="144.615" fill="#fc7460"/>
    <rect width="5.244" height="5.244" x="118.826" y="160.49" fill="#fc7460"/>
    <rect width="5.244" height="5.244" x="108.243" y="149.907" fill="#010000"/>
    <rect width="5.244" height="5.244" x="118.826" y="134.032" fill="#fc7460"/>
    <rect width="5.244" height="5.244" x="124.118" y="134.032" fill="#fc7460"/>
    <rect width="5.244" height="5.244" x="124.118" y="139.323" fill="#fc7460"/>
    <rect width="5.244" height="5.244" x="124.118" y="123.448" fill="#fc7460"/>
    <rect width="5.244" height="5.244" x="118.826" y="118.157" fill="#fc7460"/>
    <rect width="5.244" height="5.244" x="124.118" y="118.157" fill="#fc7460"/>
    <rect width="5.244" height="5.244" x="129.409" y="118.157" fill="#fc7460"/>
    <rect width="5.244" height="5.244" x="129.409" y="107.573" fill="#fc7460"/>
    <rect width="5.244" height="5.244" x="134.701" y="107.573" fill="#fc7460"/>
    <rect width="5.244" height="5.244" x="134.701" y="102.282" fill="#fc7460"/>
    <rect width="5.244" height="5.244" x="139.993" y="102.282" fill="#fc7460"/>
    <rect width="5.244" height="5.244" x="129.409" y="102.282" fill="#fc7460"/>
    <rect width="5.244" height="5.244" x="124.118" y="102.282" fill="#fc7460"/>
    <rect width="5.244" height="5.244" x="150.576" y="91.698" fill="#fc7460"/>
    <rect width="5.244" height="5.244" x="150.576" y="96.99" fill="#fc7460"/>
    <rect width="5.244" height="5.244" x="155.868" y="96.99" fill="#fc7460"/>
    <rect width="5.244" height="5.244" x="145.284" y="96.99" fill="#fc7460"/>
    <rect width="5.244" height="5.244" x="108.243" y="155.198" fill="#4cdc48"/>
    <rect width="5.244" height="5.244" x="113.534" y="160.49" fill="#fc7460"/>
    <rect width="5.244" height="5.244" x="113.534" y="155.198" fill="#010000"/>
    <rect width="5.244" height="5.244" x="102.951" y="155.198" fill="#010000"/>
    <rect width="5.244" height="5.244" x="113.534" y="165.782" fill="#4cdc48"/>
    <rect width="5.244" height="5.244" x="108.243" y="160.49" fill="#4cdc48"/>
    <rect width="5.244" height="5.244" x="113.534" y="171.073" fill="#010000"/>
  </g>
</svg>