<svg viewBox="0 0 512 512" xmlns="http://www.w3.org/2000/svg"><path d="M256 152c-57.3 0-104 46.7-104 104s46.7 104 104 104 104-46.7 104-104-46.7-104-104-104zm0 160c-30.9 0-56-25.1-56-56s25.1-56 56-56 56 25.1 56 56-25.1 56-56 56z"/><path d="M256.033 28.518l.301 53.271M416.416 94.827l-37.455 37.88M482.937 255.121l-53.27.302M416.629 415.505l-37.881-37.455M256.334 482.026l-.301-53.27M95.95 415.718l37.456-37.881M29.43 255.423l53.27-.302M95.738 95.04l37.881 37.455" fill="none" stroke="currentColor" stroke-width="55" stroke-linecap="round" stroke-linejoin="round"/></svg>