<?xml version="1.0" encoding="UTF-8" standalone="no"?>
<!-- Created with Inkscape (http://www.inkscape.org/) -->

<svg
   width="99.74791mm"
   height="99.74791mm"
   viewBox="0 0 99.74791 99.74791"
   version="1.1"
   id="svg2424"
   inkscape:version="1.1 (1:1.1+rc+202105240936+c4e8f9ed74)"
   sodipodi:docname="blueprint-icon-transparent.svg"
   xmlns:inkscape="http://www.inkscape.org/namespaces/inkscape"
   xmlns:sodipodi="http://sodipodi.sourceforge.net/DTD/sodipodi-0.dtd"
   xmlns="http://www.w3.org/2000/svg"
   xmlns:svg="http://www.w3.org/2000/svg">
  <sodipodi:namedview
     id="namedview2426"
     pagecolor="#505050"
     bordercolor="#eeeeee"
     borderopacity="1"
     inkscape:pageshadow="0"
     inkscape:pageopacity="0"
     inkscape:pagecheckerboard="0"
     inkscape:document-units="mm"
     showgrid="false"
     fit-margin-top="0"
     fit-margin-left="0"
     fit-margin-right="0"
     fit-margin-bottom="0"
     inkscape:zoom="1.5518659"
     inkscape:cx="140.15386"
     inkscape:cy="129.19931"
     inkscape:window-width="1916"
     inkscape:window-height="1050"
     inkscape:window-x="3840"
     inkscape:window-y="0"
     inkscape:window-maximized="1"
     inkscape:current-layer="layer1" />
  <defs
     id="defs2421">
    <pattern
       patternUnits="userSpaceOnUse"
       width="76.5"
       height="76.5025"
       patternTransform="translate(1202.2188,322.65625)"
       id="pattern6939">
      <rect
         style="fill:#2c71b8;fill-opacity:1;stroke:none"
         width="76.5"
         height="76.5"
         x="0"
         y="0"
         id="rect6984" />
      <path
         style="fill:none;stroke:#ffffff;stroke-width:0.26947749px;stroke-linecap:butt;stroke-linejoin:miter;stroke-opacity:1"
         d="m 38.24885,0.01054 0,76.49196"
         id="path6935"
         inkscape:connector-curvature="0" />
      <path
         inkscape:connector-curvature="0"
         id="path6937"
         d="m 76.49475,38.25652 -76.4919,0"
         style="fill:none;stroke:#ffffff;stroke-width:0.26947749px;stroke-linecap:butt;stroke-linejoin:miter;stroke-opacity:1" />
    </pattern>
  </defs>
  <g
     inkscape:label="Layer 1"
     inkscape:groupmode="layer"
     id="layer1"
     transform="translate(-51.486711,-119.45458)">
    <rect
       style="color:#000000;clip-rule:nonzero;display:inline;overflow:visible;visibility:visible;color-interpolation:sRGB;color-interpolation-filters:linearRGB;fill:none;fill-opacity:1;fill-rule:nonzero;stroke:#ffffff;stroke-width:1.5875;stroke-miterlimit:4;stroke-dasharray:none;stroke-opacity:1;marker:none;color-rendering:auto;image-rendering:auto;shape-rendering:auto;text-rendering:auto;enable-background:accumulate;stroke-linejoin:round;stroke-linecap:round;paint-order:normal"
       id="rect6921"
       width="99.241493"
       height="99.241493"
       x="51.739918"
       y="119.70779"
       ry="7.7917142"
       inkscape:export-filename="/home/duncan/dev/duncanlock.net-pelican/content/images/apple-touch-icon.png"
       inkscape:export-xdpi="95.977997"
       inkscape:export-ydpi="95.977997" />
    <g
       id="g4412"
       transform="matrix(0.26458333,0,0,0.26458333,27.954865,93.417536)"
       style="display:inline">
      <path
         d="m 385.85252,435.71758 -82.07545,2.73585 -3.51752,-20.71428 c -16.41522,16.41509 -36.08726,24.62263 -59.01615,24.62263 -26.83744,0 -46.90031,-9.11948 -60.18867,-27.35848 -13.28842,-18.23895 -19.93262,-43.90378 -19.93261,-76.99459 -1e-5,-36.99895 9.24975,-65.26936 27.74932,-84.8113 18.76005,-19.80212 46.37906,-29.70328 82.85712,-29.70349 8.59825,2.1e-4 17.06635,1.30299 25.40431,3.90835 v -49.6361 l -31.26684,-7.81671 v -31.26684 l 88.71965,-3.12669 v 261.0781 l 31.26684,7.81671 v 31.26684 M 297.13287,374.35641 V 274.30253 c -6.51407,-3.90819 -16.67578,-5.86236 -30.48517,-5.86253 -29.96414,1.7e-4 -44.94615,22.14749 -44.94608,66.44203 -7e-5,41.16806 12.50665,61.75205 37.52021,61.752 7.29548,5e-5 14.06995,-1.82385 20.32344,-5.47169 6.51379,-3.90831 11.07353,-7.68638 13.67924,-11.33423 l 3.90836,-5.4717"
         style="font-style:normal;font-variant:normal;font-weight:bold;font-stretch:normal;font-size:390.835px;line-height:90%;font-family:Bitter;-inkscape-font-specification:'Bitter Bold';text-align:start;letter-spacing:0px;word-spacing:0px;writing-mode:lr-tb;text-anchor:start;fill:none;stroke:#ffffff;stroke-width:3;stroke-linecap:round;stroke-linejoin:round;stroke-miterlimit:4;stroke-dasharray:none"
         id="path3301"
         inkscape:connector-curvature="0" />
      <path
         inkscape:connector-curvature="0"
         id="path4128"
         d="m 338.06293,137.61275 c -0.84225,0.0297 -10.73889,10.3035 -20.5625,20.53125 -9.82361,10.22776 -19.58245,20.41688 -20.125,20.28125 -0.75132,-0.18783 7.99817,-10.13913 16.625,-20.03125 8.62683,-9.89213 17.11477,-19.72899 15.9375,-19.6875 -1.44302,0.0508 -10.90492,9.56259 -20.34375,19 -9.43884,9.43742 -18.83649,18.79869 -20.03125,18.5 -1.40354,-0.35087 6.35366,-9.64734 13.9375,-18.84375 7.58384,-9.19641 14.99651,-18.28911 13,-18.21875 -2.26228,0.0797 -11.36647,8.71618 -20.3125,17.25 -8.94603,8.53382 -17.73939,16.94796 -19.40625,16.53125 -1.87565,-0.4689 4.77218,-8.90714 11.6875,-17.21875 6.91531,-8.31162 14.08562,-16.496 13.3125,-16.46875 -1.03886,0.0366 -8.82561,7.9603 -16.46875,15.46875 -7.64314,7.50844 -15.12363,14.59671 -15.4375,12.96875 -0.71643,-3.71585 21.89236,-28.19045 17.375,-28.03125 -5.04887,0.17794 -18.03083,14.26043 -18.03125,9.90625 -4.7e-4,-4.91108 3.5625,-8.96875 3.5625,-8.96875 0,0 -4.2501,4.40517 -4.25,9.6875 1.1e-4,5.83922 14.39975,-9.77827 18.03125,-9.90625 4.16302,-0.14672 -18.15023,24.04002 -17.375,28.0625 0.43194,2.24122 8.271,-4.86325 16.0625,-12.53125 7.79151,-7.668 15.54482,-15.89462 15.875,-15.90625 0.59594,-0.021 -6.65605,8.13614 -13.5625,16.4375 -6.90646,8.30135 -13.48356,16.7463 -11.46875,17.25 2.2236,0.5559 11.3903,-7.86264 20.375,-16.4375 8.98469,-8.57486 17.79016,-17.32025 19.34375,-17.375 1.81935,-0.0641 -5.67495,9.00135 -13.25,18.1875 -7.57505,9.18615 -15.2302,18.48933 -13.6875,18.875 1.75147,0.43787 11.49116,-8.9278 20.96875,-18.40625 9.47759,-9.47846 18.70316,-19.06787 19.4375,-19.09375 1.0001,-0.0352 -7.56942,9.77438 -16.1875,19.65625 -8.61809,9.88187 -17.29673,19.83987 -16.40625,20.0625 1.09925,0.27481 11.23132,-9.9187 21.09375,-20.1875 9.86243,-10.26879 19.46019,-20.62029 19.59375,-20.625 0.39932,-0.0141 -9.04243,10.42215 -18.59375,21.21875 -9.55132,10.79659 -19.21874,21.97212 -19.21875,23.40625 -2e-5,1.71153 11.01236,-9.32321 22.0625,-20.78125 11.05014,-11.45803 22.13221,-23.33519 22.375,-23.34375 0.50855,-0.0179 -10.45334,12.14869 -21.59375,24.75 -11.14041,12.60132 -22.43756,25.62914 -22.4375,27.3125 7e-5,1.9605 12.81714,-10.92486 25.90625,-23.875 13.08912,-12.95015 26.44308,-25.96238 27.5625,-24.34375 1.22959,1.77791 -12.17669,17.84066 -25.9375,34.1875 -13.76082,16.34685 -27.87499,32.96284 -27.875,35.8125 -10e-6,3.12613 14.41178,-10.97761 28.78125,-25.875 14.36946,-14.89738 28.6875,-30.59375 28.6875,-30.59375 0,0 -14.14424,15.12548 -28.34375,29.65625 -14.1995,14.53077 -28.46857,28.48264 -28.46875,26.09375 -2e-4,-2.66535 14.15948,-19.22737 27.9375,-35.59375 13.77802,-16.36637 27.17818,-32.55339 25.875,-34.4375 -1.41335,-2.0434 -14.73577,10.62843 -27.75,23.5 -13.01423,12.87157 -25.71861,25.9402 -25.71875,24.71875 -1.7e-4,-1.49859 11.37873,-14.50719 22.5625,-27.15625 11.18377,-12.64907 22.18572,-24.93041 21.5,-24.90625 -0.95148,0.0335 -12.03441,11.54565 -22.90625,22.8125 -10.87184,11.26686 -21.53118,22.28427 -21.53125,21.3125 -9e-5,-1.24919 9.74894,-12.40561 19.34375,-23.25 9.59481,-10.84439 19.04524,-21.36407 18.46875,-21.34375 z m 19.40625,31.6875 c -0.70696,0.0942 -12.28652,12.11061 -29.46875,30.15625 -17.7365,18.62776 -41.4531,43.67776 -65.3125,68.6875 -0.39348,0.41245 -0.79398,0.80636 -1.1875,1.21875 0.38303,-0.0356 0.76769,-0.0351 1.15625,-0.0625 23.64965,-24.78937 47.11086,-49.67315 64.6875,-68.3125 17.72474,-18.79638 29.50001,-31.26996 29.5,-30.9375 -2e-5,0.47137 -11.74247,13.51382 -29.40625,32.84375 -16.64642,18.21661 -38.67719,42.10081 -61,66.25 0.0734,-2.7e-4 0.14514,0 0.21875,0 0.0216,0 0.041,-1e-5 0.0625,0 22.47047,-24.3115 44.65528,-48.40525 61.40625,-66.78125 17.65752,-19.37049 29.37503,-32.46727 29.375,-33.03125 0,-0.022 -0.008,-0.0343 -0.0312,-0.0312 z m -0.28125,14.625 c -1.34606,-0.12158 -12.6473,10.85162 -29.125,27.625 -15.30731,15.58198 -35.28219,36.38643 -55.75,57.71875 0.33627,0.0146 0.66879,0.0451 1,0.0625 19.87847,-20.73422 39.23675,-40.94182 54.125,-56.25 17.55844,-18.0537 29.21882,-29.61362 29.21875,-28.25 -8e-5,1.50231 -11.5161,15.04203 -28.84375,34.53125 -12.87232,14.4781 -28.97144,32.23547 -45.9375,50.78125 0.0726,0.0108 0.14651,0.0202 0.21875,0.0312 17.13915,-18.74157 33.41669,-36.69806 46.40625,-51.34375 17.31941,-19.5276 28.81254,-33.15524 28.8125,-34.75 0,-0.10834 -0.0353,-0.14814 -0.125,-0.15625 z m -0.21875,11.5625 c 1e-5,-0.50158 -11.44525,11.44038 -28.6875,29.65625 -11.6968,12.35729 -27.79169,29.42155 -43.0625,45.59375 0.28093,0.057 0.56856,0.0962 0.84375,0.15625 15.25386,-16.19097 29.91457,-31.75767 41.59375,-44.21875 17.21666,-18.36929 28.62502,-30.60098 28.625,-30.46875 -2e-5,0.27074 -11.40677,12.76667 -28.5625,31.4375 -10.92356,11.88826 -26.03255,28.26741 -40.15625,43.59375 0.0743,0.0185 0.14491,0.0438 0.21875,0.0625 14.89228,-16.17169 29.17384,-31.69347 40.625,-44.1875 17.14629,-18.70784 28.5625,-31.26192 28.5625,-31.625 z m 0.6875,15.90625 c -0.67543,-0.0324 -11.76065,11.28604 -28.1875,28.375 -9.5561,9.94128 -21.0823,21.98164 -33.28125,34.71875 0.22458,0.12206 0.4395,0.24875 0.65625,0.375 11.75143,-12.31321 22.7583,-23.88141 32,-33.59375 16.92614,-17.78811 28.15625,-29.55245 28.15625,-29.125 -10e-6,0.56569 -11.12245,12.9638 -27.84375,31.25 -9.2353,10.09961 -20.30003,22.13726 -32.03125,34.84375 v 0.25 c 11.98801,-12.99516 23.3381,-25.33688 32.75,-35.65625 16.71018,-18.32133 27.81255,-30.7484 27.8125,-31.40625 0,-0.0249 -0.009,-0.0302 -0.0312,-0.0312 z m -0.0312,11 c -0.66044,0.0273 -11.48173,11.11763 -27.53125,27.875 -9.44763,9.86431 -20.89807,21.86093 -32.96875,34.53125 v 1.03125 c 11.84361,-12.4742 23.05933,-24.26773 32.34375,-34.0625 16.52979,-17.43841 27.50001,-28.97246 27.5,-28.625 -10e-6,0.48553 -10.90243,12.56143 -27.28125,30.40625 -8.63682,9.40987 -18.84725,20.50481 -29.75,32.28125 -0.36862,-0.1601 -1.34031,0.43714 -2.8125,1.59375 v 0.65625 c 0.91124,-0.74627 1.59637,-1.25793 1.96875,-1.375 -0.63431,0.68504 -1.32979,1.43516 -1.96875,2.125 v 0.28125 c 0.72402,-0.7823 1.50056,-1.62991 2.21875,-2.40625 0.0682,0.0262 0.12501,0.0816 0.125,0.1875 -7e-5,0.58362 -0.86895,2.03871 -2.34375,4.125 v 0.34375 c 1.90594,-2.64646 3.00023,-4.47039 3,-5.1875 -3e-5,-0.0985 -0.028,-0.19254 -0.0625,-0.25 11.10458,-12.00542 21.56787,-23.35081 30.34375,-32.9375 16.36656,-17.87867 27.25003,-29.98492 27.25,-30.5625 0,-0.0224 -0.01,-0.0321 -0.0312,-0.0312 z m -89.5625,2.8125 c -1.87921,0.0648 -27.55864,26.65252 -52.90625,53.15625 -25.34761,26.50373 -50.38477,52.91582 -50.375,52.65625 0.0205,-0.5437 24.73072,-26.99268 48.90625,-53.28125 24.17552,-26.28857 47.8137,-52.39878 46.375,-52.28125 -1.71699,0.14026 -25.35315,24.66914 -48.6875,49.125 -23.33435,24.45585 -46.35575,48.83745 -46.34375,48.6875 0.0359,-0.44833 22.66162,-24.70163 44.84375,-48.78125 22.18213,-24.07962 43.93213,-48.00252 42.6875,-47.84375 -1.53643,0.196 -23.25314,22.78577 -44.65625,45.09375 -21.40311,22.30799 -42.48999,44.34604 -42.375,43.46875 0.15661,-1.19479 20.0341,-22.83899 39.1875,-44.0625 19.1534,-21.22352 37.5714,-42.01938 35.1875,-41.5 -2.70652,0.58967 -20.55979,18.58054 -37.65625,35.875 -17.09647,17.29447 -33.43006,33.88137 -32.84375,31.65625 0.68661,-2.60575 14.89533,-18.68715 27.75,-33.5625 12.85467,-14.87535 24.38303,-28.54824 19.875,-26.375 -4.97519,2.39845 -14.33473,10.96959 -22.3125,18.6875 -7.97776,7.71791 -14.5913,14.59795 -14,13.625 1.60087,-2.63412 11.99584,-14.09269 17.09375,-19.65625 -5.14563,5.52905 -15.70585,16.96052 -17.78125,20.375 -1.86071,3.06129 5.36107,-4.10987 13.96875,-12.5 8.60769,-8.39013 18.61419,-17.98336 22.34375,-19.78125 4.19674,-2.02311 -7.30126,11.50687 -20.0625,26.28125 -12.76124,14.77437 -26.80881,30.76549 -27.5625,33.625 -0.85402,3.24014 15.93224,-13.43617 33.3125,-31.03125 17.38025,-17.59508 35.37252,-36.09777 37.21875,-36.5 2.16886,-0.47253 -16.2495,20.21612 -35.34375,41.375 -19.09426,21.15888 -38.87804,42.78104 -39.0625,44.1875 -0.22611,1.72395 21.24738,-20.36179 42.875,-42.90625 21.62761,-22.54447 43.39794,-45.52827 44.15625,-45.625 1.05012,-0.13396 -20.68123,23.69506 -42.8125,47.71875 -22.13127,24.02369 -44.66689,48.22775 -44.71875,48.875 -0.0758,0.94562 23.3368,-23.45508 46.875,-48.125 23.53821,-24.66993 47.21262,-49.60787 48.1875,-49.6875 1.25318,-0.10237 -22.43322,25.91882 -46.5625,52.15625 -24.12928,26.23743 -48.72235,52.70438 -48.75,53.4375 -0.0384,1.01723 25.34055,-25.42575 50.875,-52.125 25.53444,-26.69925 51.23545,-53.67838 52.40625,-53.71875 1.43646,-0.0495 -24.28066,28.32096 -50.5,57.46875 -26.21933,29.14779 -52.95291,59.08008 -52.875,62.21875 0.0845,3.40403 29.9554,-26.4685 60.09375,-57.125 15.06918,-15.32824 30.20453,-30.84575 41.8125,-42.5 11.60796,-11.65426 19.68121,-19.45831 20.65625,-19.3125 1.08788,0.16269 -5.87787,8.68831 -17,21.4375 -6.28044,7.19921 -14.0141,15.86582 -22.21875,25.03125 0.15476,-0.0741 0.31259,-0.14673 0.46875,-0.21875 8.34185,-9.32867 16.20258,-18.15079 22.5625,-25.46875 11.1035,-12.77609 18.03812,-21.32606 16.875,-21.5 -2.55193,-0.38163 -32.94829,30.71665 -62.9375,61.21875 -29.98921,30.50209 -59.55786,60.41517 -59.625,57.71875 -0.0737,-2.96177 26.73963,-32.9002 53,-62.09375 26.26037,-29.19354 51.98855,-57.64939 50.375,-57.59375 z m 89.1875,9 c -1.24218,0.19482 -11.63696,10.48617 -26.84375,26.0625 -9.50536,9.73635 -21.09592,21.7332 -33.28125,34.40625 v 1.09375 c 11.97173,-12.49135 23.33685,-24.35013 32.6875,-34.03125 16.17829,-16.75004 26.90629,-27.60416 26.90625,-26.71875 -4e-5,1.0233 -10.53355,13.11127 -26.375,30.6875 -9.48206,10.52044 -21.06105,23.19908 -33.21875,36.46875 v 0.28125 c 12.41529,-13.56025 24.24844,-26.5681 33.90625,-37.3125 15.82718,-17.60789 26.34378,-29.72853 26.34375,-30.84375 0,-0.0783 -0.0422,-0.10674 -0.125,-0.0937 z m -0.4375,14.96875 c 2e-5,-0.46458 -10.28181,10.20899 -25.78125,26.4375 -8.83734,9.25305 -19.54633,20.4417 -30.84375,32.28125 -0.23756,-0.53768 -1.32319,-0.0351 -3.0625,1.21875 v 0.6875 c 1.28486,-0.95881 2.13667,-1.38795 2.375,-1.125 -0.77413,0.81123 -1.59428,1.68204 -2.375,2.5 v 1.03125 c 0.71005,-0.74628 1.42053,-1.50919 2.125,-2.25 -0.37339,0.85613 -1.10286,2.07193 -2.125,3.5625 v 0.625 c 12.51033,-13.47135 24.46419,-26.34493 34.15625,-36.84375 15.32794,-16.60382 25.53124,-27.79809 25.53125,-28.125 z m -0.6875,0.75 c -2e-5,0.23514 -10.1876,11.33243 -25.53125,27.90625 -9.50241,10.26426 -21.20571,22.83945 -33.4375,36 1.38118,-1.97307 2.34115,-3.53363 2.78125,-4.59375 11.20992,-11.7902 21.73147,-22.90475 30.5,-32.1875 15.44904,-16.35501 25.68752,-27.22247 25.6875,-27.125 z m 0.3125,14.34375 c -1.15003,-0.25344 -10.78629,8.9178 -24.875,23.03125 -9.72675,9.74383 -21.79928,22.12497 -34.4375,35.09375 v 1.0625 c 12.42411,-12.78588 24.30627,-24.98907 33.875,-34.6875 14.97133,-15.17425 24.87517,-24.86033 24.875,-23.59375 -1.9e-4,1.404 -9.55602,12.68204 -23.90625,28.8125 -9.85044,11.07244 -22.01389,24.49343 -34.84375,38.53125 v 0.3125 c 13.10656,-14.34703 25.52481,-28.08987 35.5625,-39.40625 14.3317,-16.15739 23.87491,-27.47313 23.875,-28.96875 1e-5,-0.10207 -0.0483,-0.1706 -0.125,-0.1875 z m 0.34375,18.5 c -1.55325,0.0981 -10.43714,8.38449 -23.21875,21.03125 -10.22249,10.11464 -22.98096,23.05954 -36.4375,36.8125 v 1.09375 c 13.17953,-13.50003 25.85848,-26.46422 35.875,-36.5 14.03563,-14.06262 23.34387,-22.90732 23.34375,-21.46875 -1.3e-4,1.5757 -8.78219,12.14001 -21.96875,27.09375 -9.69293,10.99192 -21.79315,24.35094 -34.5,38.28125 -0.30069,-0.44836 -1.27466,-0.0868 -2.75,0.875 v 0.71875 c 1.03377,-0.69733 1.74938,-0.99218 2.03125,-0.8125 -0.67546,0.74024 -1.35269,1.50707 -2.03125,2.25 v 0.28125 c 0.70282,-0.76967 1.42531,-1.54545 2.125,-2.3125 0.008,0.0391 0.0313,0.0766 0.0312,0.125 -1.9e-4,0.82911 -0.79965,2.3867 -2.15625,4.4375 v 0.46875 c 1.77893,-2.60675 2.84397,-4.59756 2.84375,-5.625 -2e-5,-0.0711 -0.0204,-0.12933 -0.0312,-0.1875 12.95766,-14.21026 25.29429,-27.8429 35.15625,-39.0625 13.16494,-14.97727 21.93749,-25.58287 21.9375,-27.25 0,-0.16915 -0.0893,-0.26015 -0.25,-0.25 z m -128.375,11.5 c -0.22266,0.24724 -0.43351,0.47144 -0.65625,0.71875 -15.42752,17.12935 -31.04356,34.38434 -42.75,47.6875 -11.70645,13.30317 -19.51393,22.63561 -19.34375,23.90625 0.18613,1.38964 12.3722,-10.26345 30.46875,-28.53125 8.18116,-8.25857 17.68558,-17.98607 27.71875,-28.34375 0.002,-0.0102 -0.002,-0.0211 0,-0.0312 0.0827,-0.43569 0.19383,-0.85259 0.28125,-1.28125 -9.90643,10.27199 -19.28952,19.94312 -27.375,28.1875 -18.08758,18.44306 -30.26254,30.35355 -30.40625,29.28125 -0.15965,-1.1913 7.67514,-10.49648 19.40625,-23.78125 11.62061,-13.15964 27.07507,-30.23186 42.375,-47.21875 0.0843,-0.20501 0.1953,-0.39119 0.28125,-0.59375 z m 128.90625,1.875 c -10e-6,-0.45083 -8.55198,8.3451 -21.46875,21.78125 -10.50863,10.93119 -24.72819,25.77602 -38.71875,40.375 v 1.0625 c 14.03606,-14.66967 27.64015,-28.97755 38.15625,-40.0625 12.83586,-13.53018 21.34376,-22.5232 21.34375,-22.4375 -10e-6,0.22262 -8.42683,9.38632 -21.09375,23 -10.60324,11.39576 -24.343,26.07427 -38.40625,41.09375 v 0.28125 c 14.33323,-15.31381 28.33777,-30.30419 39.125,-41.9375 12.64415,-13.63589 21.06251,-22.84235 21.0625,-23.15625 z m -0.4375,6.75 c -0.95229,0.54341 -8.93863,8.66555 -20.59375,20.75 -10.75201,11.14808 -24.79363,25.81588 -39.15625,40.8125 v 1.09375 c 14.19146,-14.83677 28.02037,-29.35198 38.625,-40.5 12.34622,-12.97886 20.53127,-21.59062 20.53125,-21.4375 -2e-5,0.28995 -8.11001,9.13315 -20.28125,22.25 -10.69608,11.52708 -24.65418,26.48436 -38.875,41.6875 v 0.25 c 14.48025,-15.48501 28.71963,-30.73922 39.59375,-42.5 12.1473,-13.13777 20.25,-22.02509 20.25,-22.40625 0,-0.0324 -0.0303,-0.0362 -0.0937,0 z m 0.40625,7.71875 c -0.91855,0.16505 -8.63388,7.71816 -19.875,19.15625 -10.34169,10.5229 -23.81252,24.49792 -37.625,38.8125 0.0109,-0.0411 0.0312,-0.0944 0.0312,-0.125 -5e-5,-0.47074 -1.03567,0.18497 -2.6875,1.5625 v 0.75 c 1.15099,-1.04995 1.96881,-1.77008 1.96875,-1.59375 -10e-6,0.0264 -0.0191,0.0868 -0.0312,0.125 -0.6567,0.68063 -1.27916,1.31754 -1.9375,2 v 1.09375 c 14.59533,-15.14033 28.88792,-30.03691 39.75,-41.25 11.89971,-12.28424 19.81252,-20.27942 19.8125,-19.75 -3e-5,0.66613 -7.62627,9.27124 -19.03125,21.8125 -11.40498,12.54126 -26.60356,29.03954 -41.71875,45.4375 -3.32088,3.60271 -6.44733,7.00967 -9.71875,10.5625 -2.0629,1.69133 -3.97681,3.11175 -5.3125,3.8125 -1.50915,0.79176 -0.99688,-0.253 0.5625,-2.3125 -0.21992,0.13957 -0.46253,0.26634 -0.6875,0.40625 -1.77108,2.33452 -2.38682,3.59674 -0.59375,2.65625 1.41523,-0.7423 2.95058,-1.74894 4.46875,-2.875 -11.04123,11.99493 -21.66978,23.57038 -29.875,32.6875 -11.01233,12.23622 -18.01801,20.38147 -17,20.4375 2.28029,0.12552 32.21168,-29.95316 61.375,-60 29.16332,-30.04684 57.56251,-60.05551 57.5625,-59.75 -2e-5,0.57851 -27.96821,30.563 -55.9375,60.40625 -27.96929,29.84325 -55.91855,59.54578 -55.125,59.53125 1.05524,-0.0193 28.74512,-28.48656 56,-56.71875 27.25488,-28.23218 54.06264,-56.22323 54.0625,-55.3125 -1.8e-4,1.18352 -25.89615,29.24955 -51.25,56.90625 -25.35385,27.65669 -50.17114,54.8883 -47.3125,54.4375 3.16133,-0.49854 27.97847,-25.06838 51.875,-48.875 23.89653,-23.80663 46.9066,-46.83061 46.90625,-44.1875 -3.8e-4,2.91532 -19.05031,24.51004 -36.6875,44.34375 -17.63718,19.8337 -33.85709,37.90857 -27.9375,33.8125 6.67452,-4.61843 22.90253,-20.45983 37.40625,-34.875 14.50371,-14.41516 27.28138,-27.40719 27.28125,-26.34375 -1.6e-4,1.33515 -13.07388,15.82969 -26.125,30.46875 -13.05111,14.63905 -26.07406,29.40392 -25.75,31.3125 0.36294,2.13758 13.46336,-10.31868 26.4375,-23.09375 12.97414,-12.77507 25.81257,-25.84755 25.8125,-24.875 -10e-5,1.24382 -12.63327,15.19172 -25.21875,29.0625 -12.58548,13.87077 -25.11275,27.67085 -24.71875,28.5625 0.4754,1.07585 13.12813,-11.4262 25.75,-23.5625 12.62187,-12.1363 25.22181,-23.92147 25.65625,-21.4375 0.47445,2.7127 -8.91475,14.2101 -17.71875,25 -8.804,10.7899 -17.03697,20.87832 -14.125,20.78125 3.17754,-0.10592 13.50359,-9.33172 23.46875,-18.40625 9.96515,-9.07452 19.57979,-18.01132 21.375,-17.5625 2.00297,0.50076 -5.30631,9.47459 -12.625,18.3125 -7.31868,8.83791 -14.66075,17.53453 -12.6875,17.46875 2.23881,-0.0746 11.19474,-8.29633 19.6875,-16.5 8.49276,-8.20367 16.52279,-16.3615 16.96875,-16.25 0.65371,0.16343 -6.67796,8.28941 -13.46875,16.375 -6.7908,8.08558 -13.01663,16.12868 -10.09375,16.03125 6.3769,-0.21256 28.81306,-23.79628 28.8125,-18.21875 -6.2e-4,6.11767 -10.75421,17.40847 -6,17.25 5.28534,-0.17618 6.90625,-2.59375 6.90625,-2.59375 0,0 -2.31852,1.71478 -6.1875,1.84375 -4.40011,0.14667 5.99985,-10.74098 6,-17.21875 1.7e-4,-7.01791 -23.88323,18.02215 -28.84375,18.1875 -2.74583,0.0915 3.56322,-7.8933 10.34375,-15.96875 6.78054,-8.07545 14.04222,-16.23944 13.25,-16.4375 -0.99996,-0.25 -9.40685,7.91206 -17.9375,16.15625 -8.53064,8.2442 -17.18812,16.57398 -18.71875,16.625 -1.79619,0.0599 5.59788,-8.60972 12.90625,-17.4375 7.30837,-8.82778 14.51652,-17.80836 12.375,-18.34375 -2.34928,-0.58732 -12.30954,8.3537 -22.3125,17.46875 -10.00296,9.11505 -20.03064,18.41769 -22.5,18.5 -2.73492,0.0912 5.4844,-9.93719 14.25,-20.6875 8.7656,-10.7503 18.06383,-22.22858 17.5625,-25.09375 -0.54135,-3.0939 -13.22689,8.42777 -25.875,20.59375 -12.6481,12.16599 -25.27286,24.95967 -25.53125,24.375 -0.33981,-0.76886 12.17906,-14.45624 24.75,-28.3125 12.57094,-13.85626 25.1875,-27.88783 25.1875,-29.3125 0,-1.69593 -12.87642,11.07175 -25.875,23.875 -12.99857,12.80326 -26.11563,25.65192 -26.375,24.125 -0.29827,-1.75591 12.73763,-16.43056 25.78125,-31.0625 13.04361,-14.63195 26.09369,-29.20247 26.09375,-30.71875 8e-5,-1.78797 -13.77537,11.89921 -28.78125,26.84375 -15.00587,14.94455 -31.24511,31.11829 -35.90625,34.34375 -5.41602,3.74782 10.83408,-14.23622 28.34375,-33.9375 17.50967,-19.70127 36.28108,-41.0907 36.28125,-44.1875 1.8e-4,-3.36903 -23.40397,19.69883 -47.5,43.71875 -24.09603,24.01993 -48.89585,48.9725 -51.25,49.34375 -2.65682,0.41898 22.13614,-26.74048 47.4375,-54.34375 25.30135,-27.60328 51.09365,-55.63462 51.09375,-57 1.2e-4,-1.63817 -27.16715,26.36401 -54.59375,54.78125 -27.4266,28.41723 -55.11135,57.24346 -55.46875,57.25 -0.61909,0.0113 27.3265,-29.6093 55.25,-59.40625 27.9235,-29.79695 55.81253,-59.77074 55.8125,-60.53125 -4e-5,-1.0335 -28.70803,28.93638 -58.03125,59.15625 -29.32321,30.21987 -59.24613,60.68341 -60.875,60.59375 -0.93658,-0.0516 6.06735,-8.1681 17.09375,-20.375 8.23427,-9.11585 18.9114,-20.71385 29.96875,-32.71875 2.30923,-1.78583 4.60331,-3.83664 6.59375,-5.71875 3.5615,-3.36767 6.15625,-6.21875 6.15625,-6.21875 0,0 -3.10892,3.03699 -6.84375,6.40625 -1.32035,1.19111 -2.72936,2.41168 -4.09375,3.5625 3.15918,-3.42903 6.17205,-6.71237 9.375,-10.1875 15.09364,-16.3763 30.24621,-32.8465 41.625,-45.40625 11.3788,-12.55975 18.96877,-21.2115 18.96875,-21.96875 0,-0.0559 -10e-4,-0.0735 -0.0625,-0.0625 z m -134.4375,5.71875 c -9.2205,9.96665 -18.25741,19.69688 -25.8125,27.90625 -17.87931,19.42769 -29.79465,32.61437 -29.65625,33.28125 0.1615,0.77819 12.21401,-11.21608 30.125,-29.5625 7.33738,-7.51576 15.80027,-16.26314 24.6875,-25.46875 0.0297,-0.37831 0.0613,-0.75072 0.0937,-1.125 -8.57649,8.92685 -17.08301,17.80598 -24.1875,25.15625 -17.89845,18.51764 -29.93131,30.76263 -30.03125,30.28125 -0.12305,-0.59268 11.80692,-13.70892 29.6875,-33.09375 7.33883,-7.95624 16.11035,-17.46072 25.03125,-27.09375 0.0118,-0.095 0.0505,-0.18654 0.0625,-0.28125 z m 75.53125,16.25 c -0.30649,0.0562 -0.7502,0.27704 -1.25,0.5625 v 0.6875 c 0.77091,-0.42914 1.21914,-0.46533 1.21875,0 -3.7e-4,0.5508 -0.4391,1.52702 -1.21875,2.8125 v 0.4375 c 1.20183,-1.85753 1.90596,-3.23198 1.90625,-3.96875 1.3e-4,-0.43436 -0.22348,-0.61056 -0.65625,-0.53125 z m -76.6875,2.8125 c -7.6531,8.25382 -15.41942,16.63835 -21.8125,23.53125 -17.54446,18.91613 -29.27155,31.61263 -29.15625,31.96875 0.14801,0.45714 11.9762,-11.51191 29.53125,-29.71875 6.43196,-6.67077 13.81764,-14.3662 21.5,-22.40625 -0.005,-0.32871 -0.0276,-0.66853 -0.0312,-1 -7.30037,7.6805 -14.79653,15.56668 -20.9375,22 -17.53784,18.37277 -29.28294,30.59402 -29.34375,30.40625 -0.0935,-0.28879 11.60933,-12.93789 29.15625,-31.8125 6.17973,-6.64732 13.72961,-14.75572 21.09375,-22.6875 -1e-5,-0.0316 0,-0.0621 0,-0.0937 0,-0.0634 -6e-5,-0.12421 0,-0.1875 z m 0.15625,7.40625 c -7.28643,7.98599 -14.29005,15.67427 -20.375,22.4375 -17.19006,19.1062 -28.53067,32.26475 -28.0625,33.40625 0.50694,1.23604 12.38168,-9.92868 29.8125,-27.3125 5.81748,-5.8018 12.40702,-12.44251 19.25,-19.40625 -0.0312,-0.30921 -0.0644,-0.62513 -0.0937,-0.9375 -6.62855,6.7835 -13.00811,13.30788 -18.65625,19 -17.41071,17.5463 -29.19012,28.8902 -29.59375,27.90625 -0.4424,-1.07848 10.90048,-14.18446 28.09375,-33.25 5.88792,-6.52909 12.60634,-13.90855 19.625,-21.59375 -0.003,-0.0817 0.003,-0.16808 0,-0.25 z m 1.40625,15.1875 c -5.92616,6.39962 -12.25287,13.19651 -17.3125,18.6875 -16.83058,18.26548 -27.97521,30.632 -27.6875,31.15625 0.33476,0.60999 11.78058,-10.7241 28.71875,-28.03125 5.16985,-5.28247 10.97201,-11.24068 17,-17.46875 -0.0526,-0.26397 -0.0742,-0.54555 -0.125,-0.8125 -5.80662,6.03628 -11.38201,11.81308 -16.375,16.96875 -16.91398,17.46507 -28.32193,28.97512 -28.53125,28.59375 -0.25638,-0.46711 10.91514,-12.74279 27.75,-30.96875 4.85265,-5.25363 10.94006,-11.809 16.59375,-17.90625 -0.0114,-0.073 -0.02,-0.14552 -0.0312,-0.21875 z m 1.6875,8.53125 c -5.41919,5.82972 -11.27647,12.12333 -15.9375,17.15625 -16.48745,17.80295 -27.42276,29.78572 -27.15625,30.1875 0.31932,0.4814 11.52645,-10.67295 28.09375,-27.625 4.86285,-4.97578 10.29223,-10.54861 15.9375,-16.375 -0.0754,-0.24821 -0.14543,-0.49842 -0.21875,-0.75 -5.16044,5.35982 -10.77053,11.21086 -15.25,15.84375 -16.54027,17.10677 -27.66524,28.45658 -27.84375,28.1875 -0.23133,-0.34871 10.69501,-12.29827 27.1875,-30.0625 4.158,-4.47863 10.47945,-11.2499 15.25,-16.375 -0.0162,-0.0635 -0.0464,-0.12378 -0.0625,-0.1875 z m 3.53125,10.3125 c -5.16692,5.63029 -10.09594,11.00541 -14.53125,15.875 -15.80667,17.35435 -26.18113,29.10796 -25.65625,29.6875 0.58753,0.64875 11.45429,-9.82687 27.40625,-25.90625 4.59355,-4.63024 9.69398,-9.82325 15,-15.25 -0.11231,-0.19282 -0.2023,-0.39747 -0.3125,-0.59375 -5.04271,5.19157 -9.86983,10.1287 -14.25,14.59375 -15.92018,16.2287 -26.73579,26.90172 -27.15625,26.4375 -0.48314,-0.53342 9.90581,-12.24552 25.71875,-29.5625 4.04285,-4.42738 9.18626,-10.0245 13.84375,-15.09375 -0.0271,-0.06 -0.0356,-0.12724 -0.0625,-0.1875 z m 3.8125,6.90625 c -5.10774,5.53119 -10.00222,10.81881 -14.375,15.59375 -15.28621,16.69204 -25.31882,27.99716 -24.78125,28.46875 0.60761,0.53302 11.18758,-9.67772 26.65625,-25.21875 4.64318,-4.6649 9.83249,-9.89665 15.21875,-15.375 -0.15112,-0.16923 -0.28896,-0.35778 -0.4375,-0.53125 -5.09883,5.22133 -9.99551,10.20444 -14.40625,14.6875 -15.43324,15.68627 -25.92285,26.08796 -26.34375,25.71875 -0.49092,-0.43063 9.58155,-11.68806 24.875,-28.34375 4.18485,-4.55761 8.82728,-9.58785 13.6875,-14.84375 -0.035,-0.0504 -0.0589,-0.1056 -0.0937,-0.15625 z m 9.40625,9.0625 c -5.15548,5.59904 -10.62642,11.5354 -15,16.3125 -14.26415,15.58021 -23.60676,26.04025 -23.0625,26.34375 0.62818,0.3503 10.57493,-9.33075 25.09375,-23.9375 5.01201,-5.04237 10.71973,-10.8015 16.625,-16.8125 -0.23937,-0.10237 -0.48302,-0.20415 -0.71875,-0.3125 -5.37222,5.50464 -11.00159,11.29162 -15.59375,15.96875 -14.47658,14.74443 -24.2831,24.56925 -24.6875,24.34375 -0.48833,-0.2723 8.85182,-10.67302 23.125,-26.21875 4.19366,-4.56755 9.4607,-10.26494 14.375,-15.59375 -0.052,-0.0313 -0.10441,-0.0621 -0.15625,-0.0937 z m 35.28125,0.4375 c -0.58688,0.2892 -1.18559,0.58527 -1.78125,0.84375 -9.63994,9.99471 -18.89669,19.53622 -26.46875,27.34375 -12.24526,12.62606 -20.51998,21.07434 -20.78125,21.03125 -0.37235,-0.0614 7.56435,-8.7096 19.65625,-21.6875 6.76715,-7.26298 14.93008,-16.00046 23.5625,-25.21875 -0.11688,0.0362 -0.22655,0.0899 -0.34375,0.125 -8.80803,9.41599 -17.15343,18.34299 -24.03125,25.75 -12.07928,13.00869 -20.00889,21.67638 -19.5625,21.75 0.55747,0.0919 9.01167,-8.21576 21.3125,-20.71875 8.12463,-8.25814 18.09187,-18.53368 28.4375,-29.21875 z m -9.25,3.21875 c -0.52611,0.11145 -1.06155,0.19114 -1.59375,0.28125 -0.0442,0.046 -0.0808,0.11026 -0.125,0.15625 -0.39133,0.18037 -0.74649,0.2986 -1,0.3125 -0.24763,0.0136 -0.3833,-0.0556 -0.4375,-0.21875 -0.23753,0.0306 -0.48004,0.036 -0.71875,0.0625 -0.17137,0.58165 -0.0303,0.90237 0.46875,0.875 0.25557,-0.014 0.5457,-0.078 0.875,-0.1875 -7.5759,7.88441 -14.7125,15.34583 -20.84375,21.6875 -12.68599,13.12134 -21.2611,21.86796 -21.5,21.8125 -0.34415,-0.0799 7.9487,-9.13737 20.5625,-22.65625 5.87029,-6.29151 12.82764,-13.68213 20.125,-21.46875 -0.0938,0.01 -0.18722,0.0222 -0.28125,0.0312 -7.52499,8.03983 -14.63281,15.61694 -20.65625,22.09375 -12.60194,13.55046 -20.88306,22.62258 -20.46875,22.71875 0.51956,0.1206 9.26134,-8.50489 22,-21.5 6.71149,-6.84661 14.56922,-14.96054 22.90625,-23.59375 0.22366,-0.12674 0.44873,-0.25927 0.6875,-0.40625 z m -12,0.71875 c -6.40429,6.95132 -12.72973,13.84486 -17.96875,19.5625 -13.06027,14.25341 -21.59752,23.76246 -21.03125,23.9375 0.66556,0.20573 9.84424,-8.71733 23.15625,-22.1875 6.15331,-6.22641 13.24658,-13.46016 20.75,-21.1875 -0.34277,0.0112 -0.68614,0.0283 -1.03125,0.0312 -6.96611,7.21342 -13.7345,14.21364 -19.46875,20.09375 -13.26227,13.59961 -22.28667,22.65514 -22.6875,22.53125 -0.5001,-0.15459 8.05369,-9.62274 21.125,-23.84375 5.07646,-5.52296 11.2344,-12.21713 17.40625,-18.90625 -0.0845,-0.006 -0.16583,-0.0243 -0.25,-0.0312 z"
         style="font-style:normal;font-variant:normal;font-weight:bold;font-stretch:normal;font-size:390.835px;line-height:90%;font-family:Bitter;-inkscape-font-specification:'Bitter Bold';text-align:start;letter-spacing:0px;word-spacing:0px;writing-mode:lr-tb;text-anchor:start;fill:none;stroke:#ffffff;stroke-width:3;stroke-linecap:round;stroke-linejoin:round;stroke-miterlimit:4" />
      <path
         sodipodi:nodetypes="cc"
         style="color:#000000;display:inline;overflow:visible;visibility:visible;fill:none;stroke:#ffffff;stroke-width:3;stroke-linecap:round;stroke-linejoin:round;stroke-miterlimit:4;stroke-dasharray:none;stroke-dashoffset:0;stroke-opacity:1;marker:none;enable-background:accumulate"
         d="M 265.91024,146.96759 V 129.94442"
         id="path4388"
         inkscape:connector-curvature="0" />
      <path
         inkscape:connector-curvature="0"
         id="path4390"
         d="M 354.53524,144.71759 V 127.69442"
         style="color:#000000;display:inline;overflow:visible;visibility:visible;fill:none;stroke:#ffffff;stroke-width:3;stroke-linecap:round;stroke-linejoin:round;stroke-miterlimit:4;stroke-dasharray:none;stroke-dashoffset:0;stroke-opacity:1;marker:none;enable-background:accumulate"
         sodipodi:nodetypes="cc" />
      <path
         inkscape:connector-curvature="0"
         id="path4392"
         d="M 265.78524,174.34259 V 157.31942"
         style="color:#000000;display:inline;overflow:visible;visibility:visible;fill:none;stroke:#ffffff;stroke-width:3;stroke-linecap:round;stroke-linejoin:round;stroke-miterlimit:4;stroke-dasharray:none;stroke-dashoffset:0;stroke-opacity:1;marker:none;enable-background:accumulate"
         sodipodi:nodetypes="cc" />
      <path
         sodipodi:nodetypes="cc"
         style="color:#000000;display:inline;overflow:visible;visibility:visible;fill:none;stroke:#ffffff;stroke-width:3;stroke-linecap:round;stroke-linejoin:round;stroke-miterlimit:4;stroke-dasharray:none;stroke-dashoffset:0;stroke-opacity:1;marker:none;enable-background:accumulate"
         d="m 346.778,135.8219 17.01447,-0.54428"
         id="path4394"
         inkscape:connector-curvature="0" />
      <path
         inkscape:connector-curvature="0"
         id="path4396"
         d="m 259.40873,168.33676 16.50301,4.176"
         style="color:#000000;display:inline;overflow:visible;visibility:visible;fill:none;stroke:#ffffff;stroke-width:3;stroke-linecap:round;stroke-linejoin:round;stroke-miterlimit:4;stroke-dasharray:none;stroke-dashoffset:0;stroke-opacity:1;marker:none;enable-background:accumulate"
         sodipodi:nodetypes="cc" />
      <path
         sodipodi:nodetypes="cc"
         style="color:#000000;display:inline;overflow:visible;visibility:visible;fill:none;stroke:#ffffff;stroke-width:3;stroke-linecap:round;stroke-linejoin:round;stroke-miterlimit:4;stroke-dasharray:none;stroke-dashoffset:0;stroke-opacity:1;marker:none;enable-background:accumulate"
         d="m 258.02583,138.74234 17.01881,-0.38516"
         id="path4398"
         inkscape:connector-curvature="0" />
      <path
         inkscape:connector-curvature="0"
         id="path4400"
         d="m 385.85055,427.34975 v 17.02317"
         style="color:#000000;display:inline;overflow:visible;visibility:visible;fill:none;stroke:#ffffff;stroke-width:3;stroke-linecap:round;stroke-linejoin:round;stroke-miterlimit:4;stroke-dasharray:none;stroke-dashoffset:0;stroke-opacity:1;marker:none;enable-background:accumulate"
         sodipodi:nodetypes="cc" />
      <path
         sodipodi:nodetypes="cc"
         style="color:#000000;display:inline;overflow:visible;visibility:visible;fill:none;stroke:#ffffff;stroke-width:3;stroke-linecap:round;stroke-linejoin:round;stroke-miterlimit:4;stroke-dasharray:none;stroke-dashoffset:0;stroke-opacity:1;marker:none;enable-background:accumulate"
         d="m 385.97555,399.97475 v 17.02317"
         id="path4402"
         inkscape:connector-curvature="0" />
      <path
         sodipodi:nodetypes="cc"
         style="color:#000000;display:inline;overflow:visible;visibility:visible;fill:none;stroke:#ffffff;stroke-width:3;stroke-linecap:round;stroke-linejoin:round;stroke-miterlimit:4;stroke-dasharray:none;stroke-dashoffset:0;stroke-opacity:1;marker:none;enable-background:accumulate"
         d="m 392.35206,405.98058 -16.50301,-4.176"
         id="path4404"
         inkscape:connector-curvature="0" />
      <path
         inkscape:connector-curvature="0"
         id="path4406"
         d="m 393.73496,435.575 -17.01881,0.38516"
         style="color:#000000;display:inline;overflow:visible;visibility:visible;fill:none;stroke:#ffffff;stroke-width:3;stroke-linecap:round;stroke-linejoin:round;stroke-miterlimit:4;stroke-dasharray:none;stroke-dashoffset:0;stroke-opacity:1;marker:none;enable-background:accumulate"
         sodipodi:nodetypes="cc" />
      <path
         sodipodi:nodetypes="cc"
         style="color:#000000;display:inline;overflow:visible;visibility:visible;fill:none;stroke:#ffffff;stroke-width:3;stroke-linecap:round;stroke-linejoin:round;stroke-miterlimit:4;stroke-dasharray:none;stroke-dashoffset:0;stroke-opacity:1;marker:none;enable-background:accumulate"
         d="m 302.13811,429.35133 2.92488,16.77001"
         id="path4408"
         inkscape:connector-curvature="0" />
      <path
         inkscape:connector-curvature="0"
         id="path4410"
         d="m 311.85674,438.30838 -17.01239,0.6059"
         style="color:#000000;display:inline;overflow:visible;visibility:visible;fill:none;stroke:#ffffff;stroke-width:3;stroke-linecap:round;stroke-linejoin:round;stroke-miterlimit:4;stroke-dasharray:none;stroke-dashoffset:0;stroke-opacity:1;marker:none;enable-background:accumulate"
         sodipodi:nodetypes="cc" />
    </g>
  </g>
</svg>
